<?xml version="1.0" standalone="no"?>
<!DOCTYPE svg PUBLIC "-//W3C//DTD SVG 1.1//EN" "http://www.w3.org/Graphics/SVG/1.1/DTD/svg11.dtd" >
<svg xmlns="http://www.w3.org/2000/svg" xmlns:xlink="http://www.w3.org/1999/xlink" version="1.1">
<metadata>
Created by FontForge 20150318 at Mon Sep 28 16:33:39 2015
 By uniteet7
Copyright (c) 2002, 2005 Parachute :, www.parachute.gr.  All rights reserved.
</metadata>
<defs>
<font id="PFDinTextProMedium" horiz-adv-x="1818" >
  <font-face 
    font-family="PFDinTextProMedium"
    font-weight="500"
    font-stretch="normal"
    units-per-em="1000"
    panose-1="2 0 5 6 2 0 0 2 0 4"
    ascent="750"
    descent="-250"
    x-height="495"
    cap-height="696"
    bbox="-403 -285 1760 943"
    underline-thickness="50"
    underline-position="-50"
    unicode-range="U+0020-FB05"
  />
<missing-glyph horiz-adv-x="450" 
d="M0 0v700h450v-700h-450zM109 73h232l-116 210zM225 418l116 209h-233zM73 554v-407l111 204zM266 349l111 -202v407z" />
    <glyph glyph-name="fj" unicode="fj" horiz-adv-x="526" 
d="M21 495h58v70q0 90 54 131.5t141 41.5q116 0 178 -69l-68 -76q-39 44 -110 44q-82 0 -82 -75v-67h263v-554q0 -65 -40.5 -103.5t-111.5 -38.5h-45v100h28q56 1 56 59v446h-150v-404h-113v404h-58v91z" />
    <glyph glyph-name="ffj" unicode="ffj" horiz-adv-x="793" 
d="M191 404v-404h-113v404h-58v91h58v50q0 90 54 131.5t141 41.5q69 0 119 -25q52 45 145 45q115 0 177 -69l-67 -76q-41 44 -111 44q-81 0 -81 -75v-67h263v-554q0 -65 -40.5 -103.5t-112.5 -38.5h-45v100h28q57 1 57 59v446h-150v-404h-113v404h-151zM191 495h151v70
q0 19 3 36q-32 16 -72 16q-82 0 -82 -75v-47z" />
    <glyph glyph-name="ff" unicode="ff" horiz-adv-x="571" 
d="M484 738h79v-98h-61q-46 0 -46 -52v-93h100v-91h-100v-404h-113v404h-150v-404h-112v404h-59v91h59v51q0 89 53 133.5t141 44.5q62 0 109 -20q37 34 100 34zM193 549v-54h150v91q0 15 1 23q-30 14 -69 14q-82 0 -82 -74z" />
    <glyph glyph-name="fi" unicode="fi" horiz-adv-x="526" 
d="M21 495h58v70q0 90 54 131.5t141 41.5q116 0 178 -69l-68 -76q-39 44 -110 44q-82 0 -82 -75v-67h263v-495h-113v404h-150v-404h-113v404h-58v91z" />
    <glyph glyph-name="fl" unicode="fl" horiz-adv-x="548" 
d="M528 0h-43q-138 0 -138 131v490q-38 13 -73 13q-82 0 -82 -75v-64h103v-91h-103v-404h-113v404h-58v91h58v67q0 90 52 131t138 41q91 0 190 -38l1 -548q0 -26 12 -37t36 -11h20v-100z" />
    <glyph glyph-name="ffi" unicode="ffi" horiz-adv-x="788" 
d="M192 404v-404h-113v404h-58v91h58v50q0 90 54 131.5t141 41.5q69 0 119 -25q52 45 145 45q115 0 177 -69l-67 -76q-41 44 -111 44q-81 0 -81 -75v-67h263v-495h-113v404h-150v-404h-113v404h-151zM192 495h151v70q0 19 3 36q-32 16 -72 16q-82 0 -82 -75v-47z" />
    <glyph glyph-name="ffl" unicode="ffl" horiz-adv-x="807" 
d="M537 737q79 0 181 -39l1 -550q0 -26 12 -37t36 -11h20v-100h-43q-138 0 -138 131v492q-41 14 -69 14q-82 0 -82 -75v-67h98v-91h-98v-404h-112v404h-151v-404h-113v404h-58v91h58v50q0 90 54 131t141 41q69 0 119 -25q51 45 144 45zM273 617q-76 0 -81 -67v-55h151v70
q0 25 2 36q-30 16 -72 16z" />
    <glyph glyph-name="ft" unicode="ft" horiz-adv-x="561" 
d="M528 404h-74v-248q0 -29 10.5 -43t35.5 -14h37v-99h-68q-57 0 -92.5 33t-35.5 92v279h-149v-404h-113v404h-58v91h58v96q0 67 39.5 102t101.5 35h73v-98h-55q-46 0 -46 -52v-83h150v131h111v-130h75v-92z" />
    <glyph glyph-name=".notdef" horiz-adv-x="450" 
d="M0 0v700h450v-700h-450zM109 73h232l-116 210zM225 418l116 209h-233zM73 554v-407l111 204zM266 349l111 -202v407z" />
    <glyph glyph-name=".null" horiz-adv-x="0" 
 />
    <glyph glyph-name="nonmarkingreturn" horiz-adv-x="333" 
 />
    <glyph glyph-name="space" unicode=" " horiz-adv-x="252" 
 />
    <glyph glyph-name="exclam" unicode="!" horiz-adv-x="268" 
d="M190 696l-10 -512h-92l-10 512h112zM194 0h-119v113h119v-113z" />
    <glyph glyph-name="quotedbl" unicode="&#x22;" horiz-adv-x="359" 
d="M297 481h-94v215h94v-215zM151 481h-94v215h94v-215z" />
    <glyph glyph-name="numbersign" unicode="#" horiz-adv-x="546" 
d="M417 410l-18 -123h95v-78h-106l-29 -209h-91l29 209h-98l-29 -209h-92l30 209h-89v78h101l17 123h-89v79h101l29 206h90l-29 -206h99l29 206h90l-29 -206h95v-79h-106zM228 410l-18 -123h99l18 123h-99z" />
    <glyph glyph-name="dollar" unicode="$" horiz-adv-x="525" 
d="M240 -111v107q-123 8 -214 92l68 88q70 -61 146 -69v187q-88 29 -139.5 74t-51.5 124q0 84 52 140t139 63v74h52v-74q102 -6 184 -65q-2 -3 -15.5 -26.5t-26.5 -45.5t-16 -26q-69 45 -126 52v-179q105 -32 156 -78t51 -130q0 -89 -57.5 -142.5t-149.5 -58.5v-107h-52z
M369 191q0 35 -20 54.5t-57 33.5v-171q77 12 77 83zM170 497q0 -47 70 -74v160q-32 -6 -51 -27.5t-19 -58.5z" />
    <glyph glyph-name="percent" unicode="%" horiz-adv-x="860" 
d="M795 121q0 -57 -41 -90.5t-99 -33.5q-57 0 -98 33.5t-41 90.5v174q0 57 41 91t98 34q58 0 99 -34t41 -91v-174zM707 124v169q0 24 -14 37t-38 13q-23 0 -37 -13t-14 -37v-169q0 -24 14 -37t37 -13q24 0 38 13t14 37zM344 400q0 -57 -41 -90.5t-99 -33.5q-57 0 -98 33.5
t-41 90.5v174q0 57 41 91t98 34q58 0 99 -34t41 -91v-174zM256 403v169q0 24 -14 37t-38 13q-23 0 -37 -13t-14 -37v-169q0 -24 14 -37t37 -13q24 0 38 13t14 37zM688 713l-426 -730h-89l425 730h90z" />
    <glyph glyph-name="ampersand" unicode="&#x26;" horiz-adv-x="649" 
d="M495 0l-51 66q-80 -72 -174 -72q-99 0 -150.5 51.5t-51.5 128.5q0 123 130 211q-25 33 -35 47t-22.5 43.5t-12.5 58.5q0 77 47.5 123t139.5 46q103 0 179 -65l-64 -83q-35 29 -61 38t-60 9q-35 0 -54 -19t-19 -47q0 -29 30 -70l180 -237q24 46 36 108l102 -22
q-20 -102 -70 -173q14 -17 53 -67t60 -75h-132zM382 145q-14 18 -57 74.5t-68 87.5q-82 -54 -82 -128q0 -37 25.5 -60t72.5 -23q56 0 109 49z" />
    <glyph glyph-name="quotesingle" unicode="'" horiz-adv-x="251" 
d="M170 481h-94v215h94v-215z" />
    <glyph glyph-name="parenleft" unicode="(" horiz-adv-x="332" 
d="M316 -83l-62 -48q-87 94 -142 206.5t-55 229.5q0 224 193 434l66 -42q-66 -87 -102 -189.5t-36 -197.5q0 -100 37 -203.5t101 -189.5z" />
    <glyph glyph-name="parenright" unicode=")" horiz-adv-x="332" 
d="M296 305q0 -117 -55 -229.5t-142 -206.5l-63 48q65 86 102 189t37 204q0 95 -36 197.5t-102 189.5l65 42q194 -209 194 -434z" />
    <glyph glyph-name="asterisk" unicode="*" horiz-adv-x="413" 
d="M264 512l79 -89q-15 -14 -73 -54l-61 103l-63 -104l-73 54l80 90q-52 14 -113 28q1 6 12 42t13 42l111 -47q-1 10 -6 60.5t-5 59.5h90l-12 -120l111 47l25 -84z" />
    <glyph glyph-name="plus" unicode="+" horiz-adv-x="525" 
d="M501 251h-191v-189h-95v189h-191v90h191v187h95v-187h191v-90z" />
    <glyph glyph-name="comma" unicode="," horiz-adv-x="276" 
d="M126 -132h-63l36 131h-33v139h137v-133z" />
    <glyph glyph-name="hyphen" unicode="-" horiz-adv-x="416" 
d="M367 211h-318v103h318v-103z" />
    <glyph glyph-name="period" unicode="." horiz-adv-x="270" 
d="M203 0h-136v138h136v-138z" />
    <glyph glyph-name="slash" unicode="/" horiz-adv-x="343" 
d="M336 725l-252 -767h-93l252 767h93z" />
    <glyph glyph-name="zero" unicode="0" horiz-adv-x="525" 
d="M475 197q0 -93 -61 -147.5t-147 -54.5q-85 0 -146 54.5t-61 147.5v301q0 93 61 148t146 55q86 0 147 -55t61 -148v-301zM360 201v294q0 47 -25 73t-68 26t-67.5 -26t-24.5 -73v-294q0 -47 24.5 -73t67.5 -26t68 26t25 73z" />
    <glyph glyph-name="one" unicode="1" horiz-adv-x="525" 
d="M350 0h-115v570l-97 -69v121l105 74h107v-696z" />
    <glyph glyph-name="two" unicode="2" horiz-adv-x="525" 
d="M169 494l-114 18q11 85 70.5 137t139.5 52q92 0 150 -49t58 -139q0 -78 -50 -137l-221 -266h267v-110h-418v103l274 330q29 37 29 74q0 35 -23.5 60t-65.5 25q-38 0 -63.5 -25.5t-32.5 -72.5z" />
    <glyph glyph-name="three" unicode="3" horiz-adv-x="525" 
d="M48 162l112 16q7 -37 33.5 -56.5t63.5 -19.5q45 0 73.5 30.5t28.5 78.5t-28 76t-77 28h-55v94h51q49 0 76.5 26.5t27.5 66.5q0 39 -27.5 65t-67.5 26q-31 0 -57.5 -20.5t-34.5 -60.5l-112 18q16 78 74 124.5t133 46.5q104 0 158 -55.5t54 -138.5q0 -40 -22.5 -80.5
t-66.5 -63.5q48 -24 72 -66t24 -86q0 -96 -62 -156t-161 -60q-76 0 -134.5 40.5t-75.5 126.5z" />
    <glyph glyph-name="four" unicode="4" horiz-adv-x="525" 
d="M499 101h-57v-101h-115v101h-299v98l241 497h127l-238 -489h169v193h115v-193h57v-106z" />
    <glyph glyph-name="five" unicode="5" horiz-adv-x="525" 
d="M479 265q0 -125 -52 -197.5t-164 -72.5q-181 0 -211 166l114 20q14 -81 95 -81q101 0 101 145q0 129 -97 129q-55 0 -86 -60h-108v382h389v-107h-280v-151q45 40 115 40q91 0 136.5 -57t47.5 -156z" />
    <glyph glyph-name="six" unicode="6" horiz-adv-x="525" 
d="M479 217q0 -109 -63.5 -165.5t-153.5 -56.5q-88 0 -147 56.5t-59 156.5q0 71 33 134l186 354h128l-150 -288l2 -2q21 6 44 6q81 0 130.5 -55.5t49.5 -139.5zM360 210q0 51 -27 79t-68 28q-39 0 -66.5 -28t-27.5 -79q0 -52 25.5 -80.5t68.5 -28.5q40 0 67.5 29t27.5 80z
" />
    <glyph glyph-name="seven" unicode="7" horiz-adv-x="525" 
d="M470 592l-245 -592h-124l239 586h-171v-99h-115v209h416v-104z" />
    <glyph glyph-name="eight" unicode="8" horiz-adv-x="525" 
d="M489 204q0 -92 -64.5 -150.5t-157.5 -58.5q-92 0 -157 58.5t-65 150.5q0 48 25 91.5t70 62.5v3q-40 18 -60.5 56t-20.5 83q0 86 59.5 143.5t148.5 57.5q99 0 154 -56t55 -145q0 -44 -21 -81t-60 -58v-2q45 -18 69.5 -62t24.5 -93zM362 499q0 44 -27 71t-68 27
q-40 0 -67 -26.5t-27 -71.5q0 -43 27.5 -67t66.5 -24t67 24.5t28 66.5zM375 207q0 43 -32 72.5t-76 29.5t-76 -29.5t-32 -72.5q0 -44 31.5 -75.5t76.5 -31.5t76.5 31t31.5 76z" />
    <glyph glyph-name="nine" unicode="9" horiz-adv-x="525" 
d="M57 479q0 109 63.5 165.5t153.5 56.5q88 0 147 -56.5t59 -156.5q0 -71 -33 -134l-186 -354h-128l150 288l-2 2q-21 -6 -44 -6q-81 0 -130.5 55.5t-49.5 139.5zM176 486q0 -51 27 -79t68 -28q39 0 66.5 28t27.5 79q0 52 -25.5 80.5t-68.5 28.5q-40 0 -67.5 -29t-27.5 -80z
" />
    <glyph glyph-name="colon" unicode=":" horiz-adv-x="271" 
d="M202 0h-136v138h136v-138zM202 276h-136v139h136v-139z" />
    <glyph glyph-name="semicolon" unicode=";" horiz-adv-x="271" 
d="M203 276h-136v139h136v-139zM126 -132h-62l35 131h-32v139h136v-133z" />
    <glyph glyph-name="less" unicode="&#x3c;" horiz-adv-x="525" 
d="M490 40l-460 213v87l460 213v-102l-340 -155l340 -155v-101z" />
    <glyph glyph-name="equal" unicode="=" horiz-adv-x="525" 
d="M501 357h-478v89h478v-89zM501 146h-478v90h478v-90z" />
    <glyph glyph-name="greater" unicode="&#x3e;" horiz-adv-x="525" 
d="M491 253l-460 -213v101l340 155l-340 155v102l460 -213v-87z" />
    <glyph glyph-name="question" unicode="?" horiz-adv-x="510" 
d="M470 510q0 -39 -24 -80.5t-52 -71.5t-52 -66.5t-24 -66.5v-36h-117v39q0 40 22.5 79.5t49 65.5t49 62t22.5 71q0 33 -23.5 58.5t-67.5 25.5t-70.5 -32t-29.5 -75q-59 9 -113 16q16 96 78 148.5t145 52.5q94 0 150.5 -53.5t56.5 -136.5zM318 0h-118v113h118v-113z" />
    <glyph glyph-name="at" unicode="@" horiz-adv-x="874" 
d="M585 409l-1 -149q0 -22 13 -37.5t35 -15.5q97 0 97 176q0 119 -81 190.5t-197 71.5q-134 0 -223 -90.5t-89 -221.5q0 -138 89 -224t231 -86q116 0 220 49l26 -73q-126 -50 -241 -50q-179 0 -294 103.5t-115 281.5q0 164 112.5 274t282.5 110q158 0 260.5 -93t102.5 -240
q0 -119 -50 -187t-141 -68q-28 0 -62.5 17.5t-44.5 46.5h-5q-13 -24 -44 -40.5t-69 -16.5q-61 0 -100.5 30t-39.5 89q0 51 36 85t99 34h105v28q0 57 -79 57q-48 0 -88 -35l-51 57q61 59 149 59q157 0 157 -132zM497 278v28h-90q-64 0 -64 -43q0 -19 17 -33.5t53 -14.5
q38 0 61 16t23 47z" />
    <glyph glyph-name="A" unicode="A" horiz-adv-x="629" 
d="M626 0h-128l-55 154h-258l-56 -154h-127l263 696h98zM407 257l-46 141l-46 143h-3l-45 -140l-47 -144h187z" />
    <glyph glyph-name="B" unicode="B" horiz-adv-x="618" 
d="M582 200q0 -88 -59.5 -144t-144.5 -56h-305v696h278q104 0 161 -52t57 -138q0 -100 -96 -143v-4q51 -15 80 -61.5t29 -97.5zM443 499q0 40 -27.5 64.5t-80.5 24.5h-141v-181h141q53 0 80.5 26t27.5 66zM459 207q0 41 -28 69.5t-82 28.5h-155v-195h155q54 0 82 28t28 69z
" />
    <glyph glyph-name="C" unicode="C" horiz-adv-x="572" 
d="M436 204l115 -48q-26 -76 -90 -119t-154 -43q-126 0 -192.5 74t-66.5 191v178q0 112 67.5 188t191.5 76q89 0 152.5 -43.5t90.5 -118.5l-114 -45q-13 42 -46.5 67t-82.5 25q-66 0 -101.5 -42.5t-35.5 -101.5v-185q0 -62 35.5 -105.5t101.5 -43.5q48 0 82 26t47 70z" />
    <glyph glyph-name="D" unicode="D" horiz-adv-x="638" 
d="M194 586v-476h119q84 0 120 44.5t36 128.5v130q0 91 -39.5 132t-118.5 41h-117zM73 696h253q175 0 237 -129q27 -55 27 -207q0 -163 -25 -222q-60 -138 -256 -138h-236v696z" />
    <glyph glyph-name="E" unicode="E" horiz-adv-x="564" 
d="M539 0h-466v696h466v-110h-345v-182h294v-106h-294v-188h345v-110z" />
    <glyph glyph-name="F" unicode="F" horiz-adv-x="545" 
d="M539 586h-345v-188h294v-105h-294v-293h-121v696h466v-110z" />
    <glyph glyph-name="G" unicode="G" horiz-adv-x="618" 
d="M308 104q58 0 99 42.5t41 99.5v30h-145v104h265v-137q0 -108 -74.5 -178.5t-185.5 -70.5q-126 0 -192 73.5t-66 191.5v178q0 112 66 188t189 76q90 0 153.5 -43.5t90.5 -118.5l-114 -45q-13 42 -47.5 67t-83.5 25q-65 0 -99 -42t-34 -102v-188q0 -61 36 -105.5t101 -44.5
z" />
    <glyph glyph-name="H" unicode="H" horiz-adv-x="655" 
d="M582 0h-120v298h-268v-298h-121v696h121v-292h268v292h120v-696z" />
    <glyph glyph-name="I" unicode="I" horiz-adv-x="268" 
d="M196 0h-122v696h122v-696z" />
    <glyph glyph-name="J" unicode="J" horiz-adv-x="489" 
d="M424 224q0 -121 -64 -175t-165 -54q-113 0 -190 86l86 79q51 -54 101 -54q111 0 111 122v468h121v-472z" />
    <glyph glyph-name="K" unicode="K" horiz-adv-x="638" 
d="M645 0h-143l-195 324l-113 -131v-193h-121v696h122v-337l2 -1l117 143l164 195h144l-235 -278z" />
    <glyph glyph-name="L" unicode="L" horiz-adv-x="564" 
d="M539 0h-466v696h121v-586h345v-110z" />
    <glyph glyph-name="M" unicode="M" horiz-adv-x="765" 
d="M702 0h-121v413h-3l-37 -89l-51 -112l-54 -114h-97l-40 85l-66 146l-36 85l-3 -3v-411h-121v696h113l91 -199q29 -63 109 -250h4l56 133l51 117l89 199h116v-696z" />
    <glyph glyph-name="N" unicode="N" horiz-adv-x="692" 
d="M621 0h-112l-215 324l-97 159l-3 -1v-482h-121v696h112l195 -296l118 -188l2 2v482h121v-696z" />
    <glyph glyph-name="O" unicode="O" horiz-adv-x="610" 
d="M304 701q118 0 189 -74t71 -190v-178q0 -121 -70.5 -193t-189.5 -72q-124 0 -191.5 76t-67.5 189v178q0 112 67.5 188t191.5 76zM304 587q-66 0 -101.5 -42.5t-35.5 -101.5v-187q0 -62 35.5 -105.5t101.5 -43.5q62 0 99.5 42t37.5 107v187q0 61 -37 102.5t-100 41.5z" />
    <glyph glyph-name="P" unicode="P" horiz-adv-x="591" 
d="M581 478q0 -86 -64.5 -148.5t-163.5 -62.5h-159v-267h-121v696h271q103 0 170 -57t67 -161zM457 481q0 52 -31 78.5t-85 26.5h-147v-209h151q51 0 81.5 30t30.5 74z" />
    <glyph glyph-name="Q" unicode="Q" horiz-adv-x="618" 
d="M307 701q119 0 190 -74t71 -190v-178q0 -75 -29 -133l86 -69l-66 -77l-85 66q-66 -52 -167 -52q-124 0 -191 76t-67 189v178q0 112 67 188t191 76zM307 586q-72 0 -104.5 -47t-32.5 -116v-166q0 -62 36 -105.5t101 -43.5q37 0 65 19l-83 66l67 80q13 -11 40.5 -33
t40.5 -32q8 24 8 49v166q0 70 -33.5 116.5t-104.5 46.5z" />
    <glyph glyph-name="R" unicode="R" horiz-adv-x="625" 
d="M580 0h-136l-121 287h-129v-287h-121v696h296q91 0 152 -54.5t61 -145.5q0 -66 -36.5 -116.5t-102.5 -74.5zM458 496q0 47 -29 70t-79 23h-156v-194h152q50 0 81 26.5t31 74.5z" />
    <glyph glyph-name="S" unicode="S" horiz-adv-x="569" 
d="M518 637l-60 -100q-79 52 -172 52q-60 0 -89 -24t-29 -64q0 -41 36.5 -59.5t133.5 -35.5q44 -8 76 -19.5t63.5 -33t48.5 -58.5t17 -89q0 -98 -75.5 -155t-186.5 -57q-168 0 -276 96l73 94q84 -77 209 -77q59 0 94 24.5t35 70.5q0 41 -30.5 63t-96.5 32q-43 6 -72.5 12.5
t-64 21t-55.5 34.5t-35 53.5t-14 78.5q0 98 69.5 151.5t166.5 53.5q143 0 234 -65z" />
    <glyph glyph-name="T" unicode="T" horiz-adv-x="521" 
d="M513 588h-194v-588h-121v588h-193v108h508v-108z" />
    <glyph glyph-name="U" unicode="U" horiz-adv-x="638" 
d="M579 247q0 -113 -73 -182.5t-187 -69.5q-117 0 -188 72.5t-71 184.5v444h120v-435q0 -66 38 -109.5t102 -43.5q63 0 100 38.5t37 109.5v440h122v-449z" />
    <glyph glyph-name="V" unicode="V" horiz-adv-x="575" 
d="M571 696l-235 -696h-99l-236 696h129l100 -318l56 -184h5l53 183l98 319h129z" />
    <glyph glyph-name="W" unicode="W" horiz-adv-x="839" 
d="M419 473q-1 0 -3 -1q-11 -43 -33.5 -127t-33.5 -127q-3 -13 -30 -107.5t-31 -111.5h-101l-181 696h129q46 -196 78 -340l28 -127h4l32 126q69 250 95 341h92q60 -208 96 -344l33 -124h4q5 23 14.5 70.5l10.5 52.5q54 244 79 345h128q-120 -464 -181 -696h-100
q-59 214 -70 251q-24 94 -59 223z" />
    <glyph glyph-name="X" unicode="X" horiz-adv-x="576" 
d="M575 0h-136l-152 257l-151 -257h-136l225 356l-212 340h137l137 -240l138 240h136l-211 -340z" />
    <glyph glyph-name="Y" unicode="Y" horiz-adv-x="557" 
d="M553 696q-144 -274 -217 -410v-286h-115v286q-40 74 -113 213t-104 197h129l84 -172q21 -44 61 -134h2l62 137l83 169h128z" />
    <glyph glyph-name="Z" unicode="Z" horiz-adv-x="527" 
d="M497 0h-467v104l323 485h-310v107h454v-99l-323 -486h323v-111z" />
    <glyph glyph-name="bracketleft" unicode="[" horiz-adv-x="288" 
d="M269 -100h-199v799h199v-82h-93v-636h93v-81z" />
    <glyph glyph-name="backslash" unicode="\" horiz-adv-x="343" 
d="M244 -42l-252 767h93l252 -767h-93z" />
    <glyph glyph-name="bracketright" unicode="]" horiz-adv-x="288" 
d="M221 -100h-199v81h93v636h-93v82h199v-799z" />
    <glyph glyph-name="asciicircum" unicode="^" horiz-adv-x="525" 
d="M505 282h-101l-140 298l-140 -299h-100l197 414h87z" />
    <glyph glyph-name="underscore" unicode="_" horiz-adv-x="500" 
d="M500 -145h-500v76h500v-76z" />
    <glyph glyph-name="grave" unicode="`" horiz-adv-x="504" 
d="M342 573l-67 -29l-123 179l108 36z" />
    <glyph glyph-name="a" unicode="a" horiz-adv-x="499" 
d="M245 500q205 0 205 -164v-336h-113v44q-1 1 -2 1q-37 -50 -129 -50q-80 0 -125.5 39t-45.5 110q0 63 44.5 106t123.5 43h134v36q0 71 -98 71q-75 0 -118 -41l-60 76q65 65 184 65zM142 152q0 -26 21 -43.5t67 -17.5q98 0 106 69q1 8 1 47h-115q-80 0 -80 -55z" />
    <glyph glyph-name="b" unicode="b" horiz-adv-x="515" 
d="M473 257q0 -262 -178 -262q-81 0 -122 53l-2 -1v-47h-113v727h113v-279l2 -1q49 53 122 53q176 0 178 -243zM357 248q0 30 -3 51.5t-11.5 45t-28.5 36t-50 12.5q-93 0 -93 -145q0 -150 93 -150q25 0 42.5 10t27 24t15 36t7 39.5t1.5 40.5z" />
    <glyph glyph-name="c" unicode="c" horiz-adv-x="447" 
d="M430 67q-76 -73 -175 -73q-97 0 -162 63.5t-65 189.5t67 189.5t164 63.5q99 0 169 -70l-73 -79q-44 46 -94 46q-117 0 -117 -150q0 -149 116 -149q49 0 96 47z" />
    <glyph glyph-name="d" unicode="d" horiz-adv-x="515" 
d="M463 0h-113v46l-2 2q-47 -53 -124 -53q-45 0 -78.5 15.5t-51.5 39t-29 59.5t-14 68t-3 74q0 47 8.5 87.5t28 79t58.5 61t93 22.5q74 0 112 -48l2 1v272h113v-726zM350 248q0 28 -3 49.5t-11.5 45.5t-28 37t-48.5 13q-31 0 -51.5 -13.5t-29 -38.5t-11.5 -47t-3 -53
q0 -28 3 -49t11.5 -43.5t28.5 -35t50 -12.5q93 0 93 147z" />
    <glyph glyph-name="e" unicode="e" horiz-adv-x="507" 
d="M466 215h-312q0 -50 26.5 -84.5t78.5 -34.5q25 0 58.5 12t58.5 35q12 -14 33 -39.5t33 -39.5q-75 -70 -187 -70q-34 0 -63.5 6.5t-58.5 24t-49.5 45t-33.5 73t-13 103.5q0 68 19 119.5t51 80t68.5 42t77.5 13.5q99 0 156 -64t57 -173v-49zM252 398q-39 0 -65.5 -27.5
t-30.5 -75.5h190q-3 49 -29 76t-65 27z" />
    <glyph glyph-name="f" unicode="f" horiz-adv-x="302" 
d="M293 404h-101v-404h-113v404h-58v91h58v96q0 67 39.5 102t101.5 35h73v-98h-55q-46 0 -46 -52v-83h101v-91z" />
    <glyph glyph-name="g" unicode="g" horiz-adv-x="522" 
d="M345 495h111v-475q0 -223 -221 -223q-105 0 -172 60l59 83q55 -40 122 -40q47 0 74.5 26.5t27.5 75.5v46h-2q-46 -53 -119 -53q-182 0 -182 241q0 264 185 264q75 0 115 -50h2v45zM158 247q0 -32 3 -54t11.5 -45t28.5 -35t51 -12q93 0 93 146q0 28 -2.5 48t-10.5 45.5
t-28 39.5t-51 14t-51.5 -13t-29 -37t-11.5 -45.5t-3 -51.5z" />
    <glyph glyph-name="h" unicode="h" horiz-adv-x="529" 
d="M485 0h-113v294q0 100 -89 100q-42 0 -69.5 -27t-27.5 -73v-294h-113v726h113v-279h3q23 24 58 38.5t69 14.5q74 0 121.5 -45.5t47.5 -129.5v-325z" />
    <glyph glyph-name="i" unicode="i" horiz-adv-x="247" 
d="M180 592h-113v104h113v-104zM180 0h-113v495h113v-495z" />
    <glyph glyph-name="j" unicode="j" horiz-adv-x="265" 
d="M190 592h-114v104h114v-104zM190 496v-555q0 -65 -37.5 -103.5t-108.5 -38.5h-52v100h28q56 0 56 59v538h114z" />
    <glyph glyph-name="k" unicode="k" horiz-adv-x="520" 
d="M523 0h-132q-25 37 -73 111l-72 111q-1 -2 -28.5 -31t-41.5 -45v-146h-112v726h112v-435h3l96 110l86 94h138l-179 -193q17 -25 90 -134.5t113 -167.5z" />
    <glyph glyph-name="l" unicode="l" horiz-adv-x="265" 
d="M245 0h-43q-138 0 -138 131v595h113v-578q0 -26 12 -37t36 -11h20v-100z" />
    <glyph glyph-name="m" unicode="m" horiz-adv-x="833" 
d="M772 0h-112v295q0 101 -93 101q-40 0 -66.5 -28.5t-26.5 -72.5v-295h-113v295q0 48 -23.5 74.5t-69.5 26.5q-40 0 -67 -28.5t-27 -72.5v-295h-113v495h113v-53h1q1 -1 2 -1q21 27 57.5 43t74.5 16q93 0 137 -71q68 71 157 71q77 0 123 -45.5t46 -128.5v-326z" />
    <glyph glyph-name="n" unicode="n" horiz-adv-x="529" 
d="M470 0h-113v294q0 100 -91 100q-42 0 -68.5 -27t-26.5 -73v-294h-113v496h113v-52h2q23 26 58.5 41t70.5 15q78 0 123 -45t45 -130v-325z" />
    <glyph glyph-name="o" unicode="o" horiz-adv-x="515" 
d="M264 501q116 0 172 -83q38 -59 36 -163q0 -109 -34 -168q-28 -46 -77 -70t-109 -24q-118 0 -171 78q-41 61 -39 176q0 89 25 140q25 54 77 84t120 30zM260 399q-61 0 -87 -56q-15 -33 -17 -97q0 -65 15 -95q24 -55 84 -55q71 0 93 71q9 29 9 88q0 58 -13 87
q-22 57 -84 57z" />
    <glyph glyph-name="p" unicode="p" horiz-adv-x="516" 
d="M60 495h112v-44l3 -1q45 50 121 50q56 0 93.5 -22.5t55 -62.5t24 -79.5t6.5 -89.5q0 -48 -8 -88.5t-27.5 -79.5t-59 -61.5t-96.5 -22.5q-73 0 -110 47h-2v-241h-112v695zM172 246q0 -146 92 -146q30 0 50 13t29 36t12 45.5t3 51.5q0 24 -1 40.5t-6.5 38.5t-14.5 35.5
t-27 23.5t-43 10q-94 0 -94 -148z" />
    <glyph glyph-name="q" unicode="q" horiz-adv-x="522" 
d="M53 238q0 262 192 262q68 0 109 -51h2v46h113v-697h-113v249h-2q-49 -53 -120 -53q-55 0 -92.5 21t-55.5 58.5t-25.5 76.5t-7.5 88zM169 246q0 -30 3 -51.5t11.5 -45t28.5 -36t51 -12.5q93 0 93 145q0 151 -92 151q-25 0 -43 -10t-28 -24.5t-15.5 -36.5t-7 -39.5
t-1.5 -40.5z" />
    <glyph glyph-name="r" unicode="r" horiz-adv-x="388" 
d="M270 395q-42 0 -67.5 -25.5t-25.5 -72.5v-298h-113v496h111v-59h4q45 64 120 64q57 0 94 -26l-42 -102q-38 23 -81 23z" />
    <glyph glyph-name="s" unicode="s" horiz-adv-x="463" 
d="M433 151q0 -72 -58 -114.5t-144 -42.5q-130 0 -215 75l61 81q64 -59 159 -59q37 0 61.5 15.5t24.5 41.5q0 25 -21 38t-67 18q-33 4 -54 7.5t-49.5 13.5t-44.5 23.5t-28 38.5t-12 58q0 73 53 114t132 41q116 0 190 -56l-54 -86q-65 43 -134 43q-38 0 -59 -15t-21 -38
q0 -24 27 -35.5t91 -18.5q162 -18 162 -143z" />
    <glyph glyph-name="t" unicode="t" horiz-adv-x="316" 
d="M285 0h-68q-56 0 -91.5 33t-35.5 91v280h-57v92h58v129h110v-129h76v-92h-75v-249q0 -56 46 -56h37v-99z" />
    <glyph glyph-name="u" unicode="u" horiz-adv-x="533" 
d="M59 495h112v-295q0 -52 21.5 -76.5t70.5 -24.5q41 0 68 27.5t27 73.5v295h113v-495h-113v49h-3q-45 -55 -126 -55q-80 0 -125 44t-45 132v325z" />
    <glyph glyph-name="v" unicode="v" horiz-adv-x="480" 
d="M240 155h3l43 138l67 202h122l-189 -495h-91l-190 495h122q13 -38 36.5 -111.5t29.5 -90.5q32 -92 47 -138z" />
    <glyph glyph-name="w" unicode="w" horiz-adv-x="736" 
d="M514 168h6q4 12 7.5 26.5t8 32t6.5 26.5q5 15 11.5 40t21 78.5t34.5 123.5h121q-54 -165 -164 -495h-99q-18 59 -70 231l-29 94h-2l-31 -106q-32 -110 -67 -219h-99l-164 495h121q14 -46 40 -140q8 -26 24.5 -88.5t26.5 -95.5h4q7 21 42 139l58 185h95q39 -123 74 -243z
" />
    <glyph glyph-name="x" unicode="x" horiz-adv-x="501" 
d="M490 0h-136l-104 167l-103 -167h-136l180 253l-172 242h135l96 -160l97 160h135l-172 -243z" />
    <glyph glyph-name="y" unicode="y" horiz-adv-x="470" 
d="M470 495l-218 -595q-37 -100 -144 -100h-42v95h31q41 0 60 52l25 78l-182 470h122l64 -182l49 -156h4l49 154l63 184h119z" />
    <glyph glyph-name="z" unicode="z" horiz-adv-x="449" 
d="M417 0h-386v94l249 304h-235v97h372v-92l-248 -301h248v-102z" />
    <glyph glyph-name="braceleft" unicode="{" horiz-adv-x="288" 
d="M279 -98h-83q-41 0 -70 26.5t-34 71.5q-2 22 -2 35v101q0 25 -1 36q-6 84 -76 88v77q38 4 57.5 33.5t19.5 76.5v133q0 52 30.5 84t75.5 32h83v-78h-41q-23 0 -33 -21.5t-10 -50.5v-121q0 -50 -23.5 -81t-52.5 -44v-2q30 -11 53 -42.5t23 -80.5v-124q0 -72 43 -72h41v-77z
" />
    <glyph glyph-name="bar" unicode="|" horiz-adv-x="232" 
d="M163 -195h-95v918h95v-918z" />
    <glyph glyph-name="braceright" unicode="}" horiz-adv-x="288" 
d="M276 260q-43 1 -60 -35t-17 -89v-101q0 -24 -2 -35q-5 -45 -33.5 -71.5t-69.5 -26.5h-83v77h41q43 0 43 72v124q0 49 23 81t53 42v2q-29 12 -52.5 43.5t-23.5 81.5v121q0 72 -43 72h-41v76h82q48 0 77 -31.5t29 -82.5v-133q0 -45 20 -77t57 -33v-77z" />
    <glyph glyph-name="asciitilde" unicode="~" horiz-adv-x="525" 
d="M494 308q-57 -107 -139 -107q-30 0 -90 29.5t-83 29.5q-24 0 -41.5 -11.5t-40.5 -41.5q-44 28 -66 43q57 105 144 105q33 -1 90.5 -30.5t79.5 -29.5q21 0 38.5 14t40.5 44z" />
    <glyph glyph-name="exclamdown" unicode="&#xa1;" horiz-adv-x="268" 
d="M80 -203l8 511h97l7 -511h-112zM76 493h119v-114h-119v114z" />
    <glyph glyph-name="cent" unicode="&#xa2;" horiz-adv-x="525" 
d="M257 -117v113q-86 10 -141 72.5t-55 178.5q0 114 55 177t141 74v103h45v-101q92 -4 159 -70l-73 -79q-41 41 -86 46v-299q44 4 87 47l74 -78q-71 -68 -161 -72v-112h-45zM177 247q0 -125 80 -145v290q-80 -22 -80 -145z" />
    <glyph glyph-name="sterling" unicode="&#xa3;" horiz-adv-x="525" 
d="M489 592l-96 -66q-47 69 -119 69q-31 0 -56 -23t-25 -64q0 -25 18 -72t22 -69h150v-87h-146q-5 -107 -50 -179h295v-101h-443v86q71 94 78 194h-80v87h67q-5 16 -16.5 46t-17.5 53t-6 44q0 78 53.5 134t153.5 56q76 0 123 -20.5t95 -87.5z" />
    <glyph glyph-name="currency" unicode="&#xa4;" horiz-adv-x="556" 
d="M155 320q0 -49 35.5 -84.5t84.5 -35.5q50 0 85.5 35t35.5 85q0 51 -35 85.5t-86 34.5q-50 0 -85 -35t-35 -85zM101 433l-68 67q8 9 61 62l68 -68q56 35 114 35q59 0 114 -34q32 35 67 67l61 -62l-68 -67q35 -56 35 -113t-34 -113q30 -27 67 -66l-61 -62l-67 67
q-53 -35 -114 -35q-58 0 -114 35l-68 -67q-3 3 -16 16.5t-29 28.5l-16 16l68 67q-34 55 -34 113q0 56 34 113z" />
    <glyph glyph-name="yen" unicode="&#xa5;" horiz-adv-x="525" 
d="M264 386h4l58 146l72 164h123q-53 -111 -161 -333h110v-68h-145l-5 -17v-52h150v-68h-150v-158h-114v158h-148v68h148v52q-1 4 -2.5 9t-2.5 8h-143v68h108q-55 111 -163 333h129l81 -186q11 -24 29 -69.5t22 -54.5z" />
    <glyph glyph-name="brokenbar" unicode="&#xa6;" horiz-adv-x="232" 
d="M163 294h-95v429h95v-429zM68 232h95v-427h-95v427z" />
    <glyph glyph-name="section" unicode="&#xa7;" horiz-adv-x="488" 
d="M454 292q0 -32 -15.5 -62.5t-37.5 -46.5q44 -42 44 -94q0 -77 -58 -123t-148 -46q-120 0 -200 80l63 73q60 -60 138 -60q99 0 99 71q0 27 -25 45t-85 36q-91 28 -133.5 63.5t-42.5 105.5q0 30 17.5 59.5t42.5 46.5q-48 43 -48 99q0 72 54 116.5t135 44.5q115 0 189 -59
l-57 -78q-62 43 -137 43q-33 0 -57 -17.5t-24 -43.5q0 -15 8.5 -27t26 -21t31.5 -14t39.5 -13t34.5 -11q32 -10 54.5 -21.5t45 -30.5t34.5 -48t12 -67zM185 391q-31 -18 -31 -51q0 -35 53 -57q19 -9 62.5 -22.5t62.5 -22.5q23 17 23 50q0 29 -25.5 46.5t-90.5 37.5
q-21 6 -54 19z" />
    <glyph glyph-name="dieresis" unicode="&#xa8;" horiz-adv-x="504" 
d="M410 583h-118v109h118v-109zM211 583h-119v109h119v-109z" />
    <glyph glyph-name="copyright" unicode="&#xa9;" horiz-adv-x="812" 
d="M408 -12q-152 0 -252 99.5t-100 254.5q0 152 101 253.5t251 101.5t251 -100.5t101 -254.5q0 -152 -101 -253t-251 -101zM408 627q-118 0 -197 -81.5t-79 -203.5q0 -121 79 -202.5t197 -81.5t196.5 81t78.5 203q0 124 -78.5 204.5t-196.5 80.5zM488 250l77 -32
q-17 -50 -57.5 -77.5t-97.5 -27.5q-79 0 -121 46.5t-42 120.5v109q0 70 42.5 118.5t120.5 48.5q57 0 97 -28.5t57 -76.5l-76 -30q-9 26 -29 42t-49 16q-40 0 -61 -25t-21 -61v-115q0 -36 21.5 -62.5t60.5 -26.5q29 0 49.5 16.5t28.5 44.5z" />
    <glyph glyph-name="ordfeminine" unicode="&#xaa;" horiz-adv-x="348" 
d="M170 610q147 0 147 -111v-220h-87v38q-30 -42 -89 -42q-56 0 -86.5 26.5t-30.5 75.5q0 42 31.5 69.5t88.5 27.5h86v22q0 40 -61 40q-53 0 -80 -29q-49 52 -50 53q46 50 131 50zM108 382q0 -34 54 -34q67 0 67 45q0 1 0.5 6t0.5 15h-73q-49 0 -49 -32z" />
    <glyph glyph-name="guillemotleft" unicode="&#xab;" horiz-adv-x="525" 
d="M491 28h-109l-137 200l137 200h109l-133 -200zM291 28h-109l-137 200l137 200h109l-134 -200z" />
    <glyph glyph-name="logicalnot" unicode="&#xac;" horiz-adv-x="525" 
d="M500 341v-279h-94v189h-382v90h476z" />
    <glyph glyph-name="sfthyphen" unicode="&#xad;" horiz-adv-x="416" 
d="M367 211h-318v103h318v-103z" />
    <glyph glyph-name="registered" unicode="&#xae;" horiz-adv-x="543" 
d="M320 367l-47 97h-35v-97h-47v243h99q32 0 53.5 -19.5t21.5 -51.5q0 -45 -44 -67l52 -105h-53zM287 567h-49v-59h47q15 0 24.5 8.5t9.5 22.5q0 28 -32 28zM272 277q-92 0 -153.5 60t-61.5 151t63 152t152 61q92 0 153.5 -61t61.5 -152q0 -90 -63 -150.5t-152 -60.5z
M272 657q-71 0 -119 -48.5t-48 -120.5q0 -71 48 -119.5t119 -48.5t118.5 48.5t47.5 119.5q0 72 -47.5 120.5t-118.5 48.5z" />
    <glyph glyph-name="macron" unicode="&#xaf;" horiz-adv-x="504" 
d="M410 589h-301v97h301v-97z" />
    <glyph glyph-name="degree" unicode="&#xb0;" horiz-adv-x="409" 
d="M353 558q0 -60 -43.5 -102t-105.5 -42t-105.5 42t-43.5 102q0 59 43.5 101t105.5 42t105.5 -42t43.5 -101zM277 558q0 29 -21 49.5t-52 20.5q-29 0 -50.5 -20.5t-21.5 -49.5t21.5 -50t50.5 -21q31 0 52 21t21 50z" />
    <glyph glyph-name="plusminus" unicode="&#xb1;" horiz-adv-x="525" 
d="M501 306h-189v-174h-95v174h-189v90h189v178h95v-178h189v-90zM503 0h-477v89h477v-89z" />
    <glyph glyph-name="twosuperior" unicode="&#xb2;" horiz-adv-x="327" 
d="M111 653l-88 12q7 56 48.5 90t95.5 34q61 0 100 -30.5t39 -85.5q0 -48 -35 -85q-8 -9 -61 -67t-67 -74h159v-78h-280v70l176 193q17 19 17 37q0 17 -13 29.5t-35 12.5q-21 0 -36.5 -15t-19.5 -43z" />
    <glyph glyph-name="threesuperior" unicode="&#xb3;" horiz-adv-x="331" 
d="M20 476l86 12q9 -46 56 -46q25 0 41 16t16 40t-16 38.5t-44 14.5h-37v69h35q27 0 42.5 13t15.5 33t-15 33t-37 13q-17 0 -32.5 -12.5t-21.5 -35.5l-85 12q11 51 51 82t90 31q70 0 105.5 -34t35.5 -86q0 -57 -49 -83q54 -27 54 -88q0 -58 -41.5 -95t-107.5 -37
q-51 0 -91 27t-51 83z" />
    <glyph glyph-name="acute" unicode="&#xb4;" horiz-adv-x="504" 
d="M256 544l-68 25l79 190l107 -34z" />
    <glyph glyph-name="mu" unicode="&#xb5;" horiz-adv-x="537" 
d="M476 0h-113v45q-1 1 -3 1q-45 -51 -119 -51q-34 0 -63 16l-1 -1v-210h-113v695h113v-295q0 -45 23.5 -72t69.5 -27q41 0 67 26.5t26 72.5v295h113v-495z" />
    <glyph glyph-name="mu" unicode="&#x3bc;" horiz-adv-x="537" 
d="M476 0h-113v45q-1 1 -3 1q-45 -51 -119 -51q-34 0 -63 16l-1 -1v-210h-113v695h113v-295q0 -45 23.5 -72t69.5 -27q41 0 67 26.5t26 72.5v295h113v-495z" />
    <glyph glyph-name="paragraph" unicode="&#xb6;" horiz-adv-x="563" 
d="M224 -80v397h-32q-73 0 -115 56t-42 132q0 80 48 139.5t134 59.5q27 0 150.5 0.5t152.5 0.5v-76h-43v-709h-87v709h-77v-709h-89z" />
    <glyph glyph-name="periodcentered" unicode="&#xb7;" horiz-adv-x="271" 
d="M203 205h-136v138h136v-138z" />
    <glyph glyph-name="cedilla" unicode="&#xb8;" horiz-adv-x="447" 
d="M214 44q10 0 29.5 -0.5t29.5 -0.5q-21 -62 -26 -80q50 -4 74 -29.5t24 -57.5q0 -35 -30 -62t-84 -27q-56 0 -100 24l21 52q35 -16 72 -16q44 0 44 33q0 32 -43 32q-7 0 -17 -2l-30 20z" />
    <glyph glyph-name="onesuperior" unicode="&#xb9;" horiz-adv-x="278" 
d="M199 369h-89v323l-61 -40v88l72 46h78v-417z" />
    <glyph glyph-name="ordmasculine" unicode="&#xba;" horiz-adv-x="356" 
d="M183 610q83 0 121 -56q26 -36 26 -107q0 -69 -25 -109q-41 -64 -130 -64q-83 0 -121 53q-28 41 -28 116q2 60 18 91q18 36 54.5 56t84.5 20zM180 534q-38 0 -54 -33q-11 -21 -11 -59q0 -39 10 -58q14 -33 52 -33q41 0 57 42q6 18 6 54q0 38 -8 54q-13 33 -52 33z" />
    <glyph glyph-name="guillemotright" unicode="&#xbb;" horiz-adv-x="525" 
d="M155 28h-109l132 200l-132 200h109l136 -200zM355 28h-109l133 200l-133 200h109l136 -200z" />
    <glyph glyph-name="onequarter" unicode="&#xbc;" horiz-adv-x="860" 
d="M243 279h-89v323l-61 -40v88l72 46h78v-417zM661 713l-426 -730h-89l425 730h90zM767 59h-36v-59h-88v59h-190v65l155 293h98l-151 -282h88v95h88v-95h36v-76z" />
    <glyph glyph-name="onehalf" unicode="&#xbd;" horiz-adv-x="860" 
d="M779 0h-280v70l176 193v-1q17 20 17 38q0 17 -13.5 29.5t-36.5 12.5q-21 0 -36 -15t-19 -43l-87 12q7 56 47.5 89.5t94.5 33.5q62 0 101 -30t39 -85q0 -48 -34 -85l-129 -141h160v-78zM643 713l-426 -730h-89l425 730h90zM228 279h-89v323l-61 -40v88l72 46h78v-417z" />
    <glyph glyph-name="threequarters" unicode="&#xbe;" horiz-adv-x="860" 
d="M45 386l86 12q9 -46 56 -46q25 0 41 16t16 40t-16 38.5t-44 14.5h-37v69h35q27 0 42.5 13t15.5 33t-15 33t-37 13q-17 0 -32.5 -12.5t-21.5 -35.5l-85 12q11 51 51 82t90 31q70 0 105.5 -34t35.5 -86q0 -57 -49 -83q54 -27 54 -88q0 -58 -41.5 -95t-107.5 -37
q-51 0 -91 27t-51 83zM709 713l-426 -730h-89l425 730h90zM814 59h-36v-59h-88v59h-190v65l155 293h98l-151 -282h88v95h88v-95h36v-76z" />
    <glyph glyph-name="questiondown" unicode="&#xbf;" horiz-adv-x="472" 
d="M27 -17q0 35 16 68.5t28.5 48.5t44.5 49q20 21 31.5 36t21.5 37t10 45v36h117v-39q0 -48 -22 -88t-65 -91q-56 -62 -56 -99q0 -32 23.5 -58t67.5 -26t70.5 32t29.5 75q20 -3 58 -8t58 -8q-16 -96 -79 -148.5t-147 -52.5q-94 0 -150.5 54t-56.5 137zM179 492h118v-113
h-118v113z" />
    <glyph glyph-name="Agrave" unicode="&#xc0;" horiz-adv-x="629" 
d="M626 0h-128l-55 154h-258l-56 -154h-127l263 696h98zM407 257l-46 141l-46 143h-3l-45 -140l-47 -144h187zM366 791l-47 -56l-192 97l74 84z" />
    <glyph glyph-name="Aacute" unicode="&#xc1;" horiz-adv-x="629" 
d="M626 0h-128l-55 154h-258l-56 -154h-127l263 696h98zM407 257l-46 141l-46 143h-3l-45 -140l-47 -144h187zM282 735l-47 56l165 125l74 -84z" />
    <glyph glyph-name="Acircumflex" unicode="&#xc2;" horiz-adv-x="629" 
d="M626 0h-128l-55 154h-258l-56 -154h-127l263 696h98zM407 257l-46 141l-46 143h-3l-45 -140l-47 -144h187zM460 733l-147 82l-147 -82l-38 48l149 124h76l147 -123z" />
    <glyph glyph-name="Atilde" unicode="&#xc3;" horiz-adv-x="629" 
d="M626 0h-128l-55 154h-258l-56 -154h-127l263 696h98zM407 257l-46 141l-46 143h-3l-45 -140l-47 -144h187zM243 875q27 0 73 -24t60 -24q31 0 64 47l60 -35q-46 -99 -114 -99q-27 0 -74 23t-64 23q-33 0 -69 -45l-57 33q49 101 121 101z" />
    <glyph glyph-name="Adieresis" unicode="&#xc4;" horiz-adv-x="629" 
d="M626 0h-128l-55 154h-258l-56 -154h-127l263 696h98zM407 257l-46 141l-46 143h-3l-45 -140l-47 -144h187zM472 757h-120v111h120v-111zM275 757h-121v111h121v-111z" />
    <glyph glyph-name="Aring" unicode="&#xc5;" horiz-adv-x="629" 
d="M626 0h-128l-55 154h-258l-56 -154h-127l263 696h98zM407 257l-46 141l-46 143h-3l-45 -140l-47 -144h187zM361 821q0 19 -13.5 32.5t-33.5 13.5t-34 -13.5t-14 -32.5t14 -32.5t34 -13.5q19 0 33 13.5t14 32.5zM202 821q0 45 32.5 76.5t79.5 31.5q46 0 78.5 -31.5
t32.5 -76.5q0 -44 -32.5 -75.5t-78.5 -31.5t-79 31.5t-33 75.5z" />
    <glyph glyph-name="AE" unicode="&#xc6;" horiz-adv-x="1034" 
d="M983 0h-466v176h-247q-14 -23 -107 -176h-137l433 696h524v-110h-345v-183h294v-105h-294v-189h345v-109zM515 585q-31 -51 -92.5 -152t-91.5 -152h186v304h-2z" />
    <glyph glyph-name="Ccedilla" unicode="&#xc7;" horiz-adv-x="572" 
d="M436 204l115 -48q-26 -74 -86.5 -116.5t-146.5 -45.5l-9 -31q50 -4 74 -29.5t24 -57.5q0 -35 -30 -62t-84 -27q-56 0 -100 24l21 52q35 -16 72 -16q44 0 44 33q0 32 -43 32q-7 0 -17 -2l-30 20l21 67q-104 14 -158.5 85.5t-54.5 176.5v178q0 112 67.5 188t191.5 76
q89 0 152.5 -43.5t90.5 -118.5l-114 -45q-13 42 -46.5 67t-82.5 25q-66 0 -101.5 -42.5t-35.5 -101.5v-185q0 -62 35.5 -105.5t101.5 -43.5q48 0 82 26t47 70z" />
    <glyph glyph-name="Egrave" unicode="&#xc8;" horiz-adv-x="564" 
d="M539 0h-466v696h466v-110h-345v-182h294v-106h-294v-188h345v-110zM357 791l-47 -56l-192 97l74 84z" />
    <glyph glyph-name="Eacute" unicode="&#xc9;" horiz-adv-x="564" 
d="M539 0h-466v696h466v-110h-345v-182h294v-106h-294v-188h345v-110zM262 735l-47 56l165 125l74 -84z" />
    <glyph glyph-name="Ecircumflex" unicode="&#xca;" horiz-adv-x="564" 
d="M539 0h-466v696h466v-110h-345v-182h294v-106h-294v-188h345v-110zM446 733l-147 82l-147 -82l-38 48l149 124h76l147 -123z" />
    <glyph glyph-name="Edieresis" unicode="&#xcb;" horiz-adv-x="564" 
d="M539 0h-466v696h466v-110h-345v-182h294v-106h-294v-188h345v-110zM460 753h-118v109h118v-109zM261 753h-119v109h119v-109z" />
    <glyph glyph-name="Igrave" unicode="&#xcc;" horiz-adv-x="268" 
d="M196 0h-122v696h122v-696zM173 791l-47 -56l-192 97l74 84z" />
    <glyph glyph-name="Iacute" unicode="&#xcd;" horiz-adv-x="268" 
d="M196 0h-122v696h122v-696zM120 735l-47 56l165 125l74 -84z" />
    <glyph glyph-name="Icircumflex" unicode="&#xce;" horiz-adv-x="268" 
d="M196 0h-122v696h122v-696zM283 733l-147 82l-147 -82l-38 48l149 124h76l147 -123z" />
    <glyph glyph-name="Idieresis" unicode="&#xcf;" horiz-adv-x="268" 
d="M196 0h-122v696h122v-696zM293 753h-118v109h118v-109zM94 753h-119v109h119v-109z" />
    <glyph glyph-name="Eth" unicode="&#xd0;" horiz-adv-x="638" 
d="M6 306v85h67v305h253q175 0 237 -129q27 -55 27 -207q0 -163 -25 -222q-60 -138 -256 -138h-236v306h-67zM194 586v-195h97v-85h-97v-196h119q84 0 120 44.5t36 128.5v130q0 91 -39.5 132t-118.5 41h-117z" />
    <glyph glyph-name="Ntilde" unicode="&#xd1;" horiz-adv-x="692" 
d="M621 0h-112l-215 324l-97 159l-3 -1v-482h-121v696h112l195 -296l118 -188l2 2v482h121v-696zM274 876q27 0 73 -24t60 -24q31 0 64 47l60 -35q-46 -99 -114 -99q-27 0 -74 23t-64 23q-33 0 -69 -45l-57 33q49 101 121 101z" />
    <glyph glyph-name="Ograve" unicode="&#xd2;" horiz-adv-x="610" 
d="M304 701q118 0 189 -74t71 -190v-178q0 -121 -70.5 -193t-189.5 -72q-124 0 -191.5 76t-67.5 189v178q0 112 67.5 188t191.5 76zM304 587q-66 0 -101.5 -42.5t-35.5 -101.5v-187q0 -62 35.5 -105.5t101.5 -43.5q62 0 99.5 42t37.5 107v187q0 61 -37 102.5t-100 41.5z
M380 791l-47 -56l-192 97l74 84z" />
    <glyph glyph-name="Oacute" unicode="&#xd3;" horiz-adv-x="610" 
d="M304 701q118 0 189 -74t71 -190v-178q0 -121 -70.5 -193t-189.5 -72q-124 0 -191.5 76t-67.5 189v178q0 112 67.5 188t191.5 76zM304 587q-66 0 -101.5 -42.5t-35.5 -101.5v-187q0 -62 35.5 -105.5t101.5 -43.5q62 0 99.5 42t37.5 107v187q0 61 -37 102.5t-100 41.5z
M290 735l-47 56l165 125l74 -84z" />
    <glyph glyph-name="Ocircumflex" unicode="&#xd4;" horiz-adv-x="610" 
d="M304 701q118 0 189 -74t71 -190v-178q0 -121 -70.5 -193t-189.5 -72q-124 0 -191.5 76t-67.5 189v178q0 112 67.5 188t191.5 76zM304 587q-66 0 -101.5 -42.5t-35.5 -101.5v-187q0 -62 35.5 -105.5t101.5 -43.5q62 0 99.5 42t37.5 107v187q0 61 -37 102.5t-100 41.5z
M451 733l-147 82l-147 -82l-38 48l149 124h76l147 -123z" />
    <glyph glyph-name="Otilde" unicode="&#xd5;" horiz-adv-x="610" 
d="M304 701q118 0 189 -74t71 -190v-178q0 -121 -70.5 -193t-189.5 -72q-124 0 -191.5 76t-67.5 189v178q0 112 67.5 188t191.5 76zM304 587q-66 0 -101.5 -42.5t-35.5 -101.5v-187q0 -62 35.5 -105.5t101.5 -43.5q62 0 99.5 42t37.5 107v187q0 61 -37 102.5t-100 41.5z
M239 875q27 0 73 -24t60 -24q31 0 64 47l60 -35q-46 -99 -114 -99q-27 0 -74 23t-64 23q-33 0 -69 -45l-57 33q49 101 121 101z" />
    <glyph glyph-name="Odieresis" unicode="&#xd6;" horiz-adv-x="610" 
d="M304 701q118 0 189 -74t71 -190v-178q0 -121 -70.5 -193t-189.5 -72q-124 0 -191.5 76t-67.5 189v178q0 112 67.5 188t191.5 76zM304 587q-66 0 -101.5 -42.5t-35.5 -101.5v-187q0 -62 35.5 -105.5t101.5 -43.5q62 0 99.5 42t37.5 107v187q0 61 -37 102.5t-100 41.5z
M463 757h-120v111h120v-111zM266 757h-121v111h121v-111z" />
    <glyph glyph-name="multiply" unicode="&#xd7;" horiz-adv-x="525" 
d="M433 56l-165 165l-161 -161l-67 66l161 161l-164 165l64 63l164 -164l159 160l67 -67l-160 -159l165 -165z" />
    <glyph glyph-name="Oslash" unicode="&#xd8;" horiz-adv-x="610" 
d="M304 701q100 0 169 -56l41 57l47 -34l-47 -66q50 -70 50 -165v-178q0 -121 -70.5 -193t-189.5 -72q-110 0 -178 62l-42 -60l-45 33l50 71q-44 66 -44 159v178q0 112 67.5 188t191.5 76zM441 443q0 26 -7 47l-236 -334q37 -49 106 -49q62 0 99.5 42t37.5 107v187zM304 587
q-66 0 -101.5 -42.5t-35.5 -101.5v-187q0 -23 4 -40l232 330q-38 41 -99 41z" />
    <glyph glyph-name="Ugrave" unicode="&#xd9;" horiz-adv-x="638" 
d="M579 247q0 -113 -73 -182.5t-187 -69.5q-117 0 -188 72.5t-71 184.5v444h120v-435q0 -66 38 -109.5t102 -43.5q63 0 100 38.5t37 109.5v440h122v-449zM375 791l-47 -56l-192 97l74 84z" />
    <glyph glyph-name="Uacute" unicode="&#xda;" horiz-adv-x="638" 
d="M579 247q0 -113 -73 -182.5t-187 -69.5q-117 0 -188 72.5t-71 184.5v444h120v-435q0 -66 38 -109.5t102 -43.5q63 0 100 38.5t37 109.5v440h122v-449zM291 735l-47 56l165 125l74 -84z" />
    <glyph glyph-name="Ucircumflex" unicode="&#xdb;" horiz-adv-x="638" 
d="M579 247q0 -113 -73 -182.5t-187 -69.5q-117 0 -188 72.5t-71 184.5v444h120v-435q0 -66 38 -109.5t102 -43.5q63 0 100 38.5t37 109.5v440h122v-449zM465 733l-147 82l-147 -82l-38 48l149 124h76l147 -123z" />
    <glyph glyph-name="Udieresis" unicode="&#xdc;" horiz-adv-x="638" 
d="M579 247q0 -113 -73 -182.5t-187 -69.5q-117 0 -188 72.5t-71 184.5v444h120v-435q0 -66 38 -109.5t102 -43.5q63 0 100 38.5t37 109.5v440h122v-449zM480 757h-120v111h120v-111zM283 757h-121v111h121v-111z" />
    <glyph glyph-name="Yacute" unicode="&#xdd;" horiz-adv-x="557" 
d="M553 696q-144 -274 -217 -410v-286h-115v286q-40 74 -113 213t-104 197h129l84 -172q21 -44 61 -134h2l62 137l83 169h128zM258 735l-47 56l165 125l74 -84z" />
    <glyph glyph-name="Thorn" unicode="&#xde;" horiz-adv-x="591" 
d="M581 352q0 -86 -64.5 -148.5t-163.5 -62.5h-159v-141h-121l-1 695h122v-125h145q104 0 173 -57t69 -161zM458 355q0 52 -31 78.5t-84 26.5h-149v-209h153q50 0 80.5 30.5t30.5 73.5z" />
    <glyph glyph-name="germandbls" unicode="&#xdf;" horiz-adv-x="542" 
d="M493 236q0 -44 -10 -83t-33 -75t-66.5 -57.5t-103.5 -21.5h-34v94h29q45 0 72.5 39t27.5 101q0 48 -21 87.5t-68 39.5h-22v92h21q37 0 53.5 28t16.5 57q0 35 -22.5 64.5t-64.5 29.5q-48 0 -70.5 -30t-22.5 -71v-530h-113v527q0 93 56.5 146.5t149.5 53.5
q94 0 144.5 -53.5t50.5 -124.5q0 -38 -20.5 -79t-54.5 -57v-1q55 -16 80 -66.5t25 -109.5z" />
    <glyph glyph-name="agrave" unicode="&#xe0;" horiz-adv-x="499" 
d="M245 500q205 0 205 -164v-336h-113v44q-1 1 -2 1q-37 -50 -129 -50q-80 0 -125.5 39t-45.5 110q0 63 44.5 106t123.5 43h134v36q0 71 -98 71q-75 0 -118 -41l-60 76q65 65 184 65zM142 152q0 -26 21 -43.5t67 -17.5q98 0 106 69q1 8 1 47h-115q-80 0 -80 -55zM314 573
l-67 -29l-123 179l108 36z" />
    <glyph glyph-name="aacute" unicode="&#xe1;" horiz-adv-x="499" 
d="M245 500q205 0 205 -164v-336h-113v44q-1 1 -2 1q-37 -50 -129 -50q-80 0 -125.5 39t-45.5 110q0 63 44.5 106t123.5 43h134v36q0 71 -98 71q-75 0 -118 -41l-60 76q65 65 184 65zM142 152q0 -26 21 -43.5t67 -17.5q98 0 106 69q1 8 1 47h-115q-80 0 -80 -55zM281 544
l-68 25l79 190l107 -34z" />
    <glyph glyph-name="acircumflex" unicode="&#xe2;" horiz-adv-x="499" 
d="M245 500q205 0 205 -164v-336h-113v44q-1 1 -2 1q-37 -50 -129 -50q-80 0 -125.5 39t-45.5 110q0 63 44.5 106t123.5 43h134v36q0 71 -98 71q-75 0 -118 -41l-60 76q65 65 184 65zM387 537l-139 105q-10 -7 -68 -51.5t-72 -53.5l-46 43l149 154h78l146 -153zM142 152
q0 -26 21 -43.5t67 -17.5q98 0 106 69q1 8 1 47h-115q-80 0 -80 -55z" />
    <glyph glyph-name="atilde" unicode="&#xe3;" horiz-adv-x="499" 
d="M245 500q205 0 205 -164v-336h-113v44q-1 1 -2 1q-37 -50 -129 -50q-80 0 -125.5 39t-45.5 110q0 63 44.5 106t123.5 43h134v36q0 71 -98 71q-75 0 -118 -41l-60 76q65 65 184 65zM187 705q27 0 73 -24t60 -24q31 0 64 47l60 -35q-46 -99 -114 -99q-27 0 -74 23t-64 23
q-33 0 -69 -45l-57 33q49 101 121 101zM142 152q0 -26 21 -43.5t67 -17.5q98 0 106 69q1 8 1 47h-115q-80 0 -80 -55z" />
    <glyph glyph-name="adieresis" unicode="&#xe4;" horiz-adv-x="499" 
d="M245 500q205 0 205 -164v-336h-113v44q-1 1 -2 1q-37 -50 -129 -50q-80 0 -125.5 39t-45.5 110q0 63 44.5 106t123.5 43h134v36q0 71 -98 71q-75 0 -118 -41l-60 76q65 65 184 65zM142 152q0 -26 21 -43.5t67 -17.5q98 0 106 69q1 8 1 47h-115q-80 0 -80 -55zM212 583
h-119v109h119v-109zM411 583h-118v109h118v-109z" />
    <glyph glyph-name="aring" unicode="&#xe5;" horiz-adv-x="499" 
d="M245 500q205 0 205 -164v-336h-113v44q-1 1 -2 1q-37 -50 -129 -50q-80 0 -125.5 39t-45.5 110q0 63 44.5 106t123.5 43h134v36q0 71 -98 71q-75 0 -118 -41l-60 76q65 65 184 65zM149 643q0 45 32.5 76.5t79.5 31.5q46 0 78.5 -31.5t32.5 -76.5q0 -44 -32.5 -75.5
t-78.5 -31.5t-79 31.5t-33 75.5zM142 152q0 -26 21 -43.5t67 -17.5q98 0 106 69q1 8 1 47h-115q-80 0 -80 -55zM308 643q0 19 -13.5 32.5t-33.5 13.5t-34 -13.5t-14 -32.5t14 -32.5t34 -13.5q19 0 33 13.5t14 32.5z" />
    <glyph glyph-name="ae" unicode="&#xe6;" horiz-adv-x="816" 
d="M774 215h-315q1 -38 17 -68q30 -50 97 -50q58 0 107 45l70 -78q-73 -69 -180 -69q-117 0 -175 71q-58 -71 -179 -71q-80 0 -128 39t-48 110q0 63 44.5 106t123.5 43h134v36q0 74 -100 74q-80 0 -120 -43l-58 73q59 67 179 67q126 0 173 -57q53 57 141 57q105 0 161 -70
t56 -181v-34zM147 152q0 -26 21 -43.5t67 -17.5q107 0 107 94v23h-115q-41 0 -60.5 -15.5t-19.5 -40.5zM657 295q-3 49 -30 76t-67 27q-41 0 -68 -27t-31 -76h196z" />
    <glyph glyph-name="ccedilla" unicode="&#xe7;" horiz-adv-x="447" 
d="M430 67q-75 -72 -172 -73l-9 -31q50 -4 74 -29.5t24 -57.5q0 -35 -30 -62t-84 -27q-56 0 -100 24l21 52q35 -16 72 -16q44 0 44 33q0 32 -43 32q-7 0 -17 -2l-30 20l22 69q-78 15 -126 77.5t-48 170.5q0 126 67 189.5t164 63.5q99 0 169 -70l-73 -79q-44 46 -94 46
q-117 0 -117 -150q0 -149 116 -149q49 0 96 47z" />
    <glyph glyph-name="egrave" unicode="&#xe8;" horiz-adv-x="507" 
d="M466 215h-312q0 -50 26.5 -84.5t78.5 -34.5q25 0 58.5 12t58.5 35q12 -14 33 -39.5t33 -39.5q-75 -70 -187 -70q-34 0 -63.5 6.5t-58.5 24t-49.5 45t-33.5 73t-13 103.5q0 68 19 119.5t51 80t68.5 42t77.5 13.5q99 0 156 -64t57 -173v-49zM252 398q-39 0 -65.5 -27.5
t-30.5 -75.5h190q-3 49 -29 76t-65 27zM316 573l-67 -29l-123 179l108 36z" />
    <glyph glyph-name="eacute" unicode="&#xe9;" horiz-adv-x="507" 
d="M466 215h-312q0 -50 26.5 -84.5t78.5 -34.5q25 0 58.5 12t58.5 35q12 -14 33 -39.5t33 -39.5q-75 -70 -187 -70q-34 0 -63.5 6.5t-58.5 24t-49.5 45t-33.5 73t-13 103.5q0 68 19 119.5t51 80t68.5 42t77.5 13.5q99 0 156 -64t57 -173v-49zM252 398q-39 0 -65.5 -27.5
t-30.5 -75.5h190q-3 49 -29 76t-65 27zM266 544l-68 25l79 190l107 -34z" />
    <glyph glyph-name="ecircumflex" unicode="&#xea;" horiz-adv-x="507" 
d="M466 215h-312q0 -50 26.5 -84.5t78.5 -34.5q25 0 58.5 12t58.5 35q12 -14 33 -39.5t33 -39.5q-75 -70 -187 -70q-34 0 -63.5 6.5t-58.5 24t-49.5 45t-33.5 73t-13 103.5q0 68 19 119.5t51 80t68.5 42t77.5 13.5q99 0 156 -64t57 -173v-49zM252 398q-39 0 -65.5 -27.5
t-30.5 -75.5h190q-3 49 -29 76t-65 27zM397 537l-139 105q-10 -7 -68 -51.5t-72 -53.5l-46 43l149 154h78l146 -153z" />
    <glyph glyph-name="edieresis" unicode="&#xeb;" horiz-adv-x="507" 
d="M466 215h-312q0 -50 26.5 -84.5t78.5 -34.5q25 0 58.5 12t58.5 35q12 -14 33 -39.5t33 -39.5q-75 -70 -187 -70q-34 0 -63.5 6.5t-58.5 24t-49.5 45t-33.5 73t-13 103.5q0 68 19 119.5t51 80t68.5 42t77.5 13.5q99 0 156 -64t57 -173v-49zM252 398q-39 0 -65.5 -27.5
t-30.5 -75.5h190q-3 49 -29 76t-65 27zM415 583h-118v109h118v-109zM216 583h-119v109h119v-109z" />
    <glyph glyph-name="igrave" unicode="&#xec;" horiz-adv-x="235" 
d="M175 0h-115v495h115v-495zM159 573l-67 -29l-123 179l108 36z" />
    <glyph glyph-name="iacute" unicode="&#xed;" horiz-adv-x="235" 
d="M175 0h-115v495h115v-495zM140 544l-68 25l79 190l107 -34z" />
    <glyph glyph-name="icircumflex" unicode="&#xee;" horiz-adv-x="333" 
d="M222 0h-115v495h115v-495zM305 537l-139 105q-10 -7 -68 -51.5t-72 -53.5l-46 43l149 154h78l146 -153z" />
    <glyph glyph-name="idieresis" unicode="&#xef;" horiz-adv-x="278" 
d="M197 0h-115v495h115v-495zM298 583h-118v109h118v-109zM99 583h-119v109h119v-109z" />
    <glyph glyph-name="eth" unicode="&#xf0;" horiz-adv-x="514" 
d="M246 476q34 -1 70.5 -18t53.5 -45l4 1q-2 99 -37 142q-51 -40 -55 -43l-33 44l51 40q-45 40 -132 53l17 89q129 -11 197 -79l69 55l35 -41l-65 -54q38 -53 50 -126t12 -183q0 -162 -70 -245q-63 -73 -174 -73q-55 0 -99 22t-69 59q-36 55 -38 145q-5 89 29 153
q54 104 184 104zM248 373q-57 0 -84 -51q-15 -30 -16 -101q0 -42 13 -71q25 -54 85 -54q54 0 81 44q21 30 21 102q0 38 -10 66q-21 65 -90 65z" />
    <glyph glyph-name="ntilde" unicode="&#xf1;" horiz-adv-x="529" 
d="M470 0h-113v294q0 100 -91 100q-42 0 -68.5 -27t-26.5 -73v-294h-113v496h113v-52h2q23 26 58.5 41t70.5 15q78 0 123 -45t45 -130v-325zM183 705q27 0 73 -24t60 -24q31 0 64 47l60 -35q-46 -99 -114 -99q-27 0 -74 23t-64 23q-33 0 -69 -45l-57 33q49 101 121 101z" />
    <glyph glyph-name="ograve" unicode="&#xf2;" horiz-adv-x="515" 
d="M264 501q116 0 172 -83q38 -59 36 -163q0 -109 -34 -168q-28 -46 -77 -70t-109 -24q-118 0 -171 78q-41 61 -39 176q0 89 25 140q25 54 77 84t120 30zM260 399q-61 0 -87 -56q-15 -33 -17 -97q0 -65 15 -95q24 -55 84 -55q71 0 93 71q9 29 9 88q0 58 -13 87
q-22 57 -84 57zM322 573l-67 -29l-123 179l108 36z" />
    <glyph glyph-name="oacute" unicode="&#xf3;" horiz-adv-x="515" 
d="M264 501q116 0 172 -83q38 -59 36 -163q0 -109 -34 -168q-28 -46 -77 -70t-109 -24q-118 0 -171 78q-41 61 -39 176q0 89 25 140q25 54 77 84t120 30zM260 399q-61 0 -87 -56q-15 -33 -17 -97q0 -65 15 -95q24 -55 84 -55q71 0 93 71q9 29 9 88q0 58 -13 87
q-22 57 -84 57zM285 544l-68 25l79 190l107 -34z" />
    <glyph glyph-name="ocircumflex" unicode="&#xf4;" horiz-adv-x="515" 
d="M264 501q116 0 172 -83q38 -59 36 -163q0 -109 -34 -168q-28 -46 -77 -70t-109 -24q-118 0 -171 78q-41 61 -39 176q0 89 25 140q25 54 77 84t120 30zM260 399q-61 0 -87 -56q-15 -33 -17 -97q0 -65 15 -95q24 -55 84 -55q71 0 93 71q9 29 9 88q0 58 -13 87
q-22 57 -84 57zM397 537l-139 105q-10 -7 -68 -51.5t-72 -53.5l-46 43l149 154h78l146 -153z" />
    <glyph glyph-name="otilde" unicode="&#xf5;" horiz-adv-x="515" 
d="M264 501q116 0 172 -83q38 -59 36 -163q0 -109 -34 -168q-28 -46 -77 -70t-109 -24q-118 0 -171 78q-41 61 -39 176q0 89 25 140q25 54 77 84t120 30zM260 399q-61 0 -87 -56q-15 -33 -17 -97q0 -65 15 -95q24 -55 84 -55q71 0 93 71q9 29 9 88q0 58 -13 87
q-22 57 -84 57zM194 705q27 0 73 -24t60 -24q31 0 64 47l60 -35q-46 -99 -114 -99q-27 0 -74 23t-64 23q-33 0 -69 -45l-57 33q49 101 121 101z" />
    <glyph glyph-name="odieresis" unicode="&#xf6;" horiz-adv-x="515" 
d="M264 501q116 0 172 -83q38 -59 36 -163q0 -109 -34 -168q-28 -46 -77 -70t-109 -24q-118 0 -171 78q-41 61 -39 176q0 89 25 140q25 54 77 84t120 30zM260 399q-61 0 -87 -56q-15 -33 -17 -97q0 -65 15 -95q24 -55 84 -55q71 0 93 71q9 29 9 88q0 58 -13 87
q-22 57 -84 57zM415 583h-118v109h118v-109zM216 583h-119v109h119v-109z" />
    <glyph glyph-name="divide" unicode="&#xf7;" horiz-adv-x="525" 
d="M338 489q0 -29 -21.5 -49.5t-51.5 -20.5q-31 0 -52.5 20.5t-21.5 49.5t21.5 50t52.5 21q30 0 51.5 -21t21.5 -50zM506 251h-483v90h483v-90zM338 98q0 -29 -21.5 -49.5t-51.5 -20.5q-31 0 -52.5 20.5t-21.5 49.5t21.5 49.5t52.5 20.5q30 0 51.5 -20.5t21.5 -49.5z" />
    <glyph glyph-name="oslash" unicode="&#xf8;" horiz-adv-x="515" 
d="M264 501q79 0 133 -42l42 54l36 -28l-46 -58q3 -3 7 -9q38 -59 36 -163q0 -109 -34 -168q-28 -46 -77 -70t-109 -24q-83 0 -135 40l-39 -49l-34 27l42 53q-4 4 -5 7q-41 61 -39 176q0 89 25 140q25 54 77 84t120 30zM260 399q-61 0 -87 -56q-15 -33 -17 -97q0 -56 9 -81
l162 206q-25 28 -67 28zM357 255q0 42 -8 72l-161 -204q27 -27 67 -27q71 0 93 71q9 29 9 88z" />
    <glyph glyph-name="ugrave" unicode="&#xf9;" horiz-adv-x="533" 
d="M59 495h112v-295q0 -52 21.5 -76.5t70.5 -24.5q41 0 68 27.5t27 73.5v295h113v-495h-113v49h-3q-45 -55 -126 -55q-80 0 -125 44t-45 132v325zM322 573l-67 -29l-123 179l108 36z" />
    <glyph glyph-name="uacute" unicode="&#xfa;" horiz-adv-x="533" 
d="M59 495h112v-295q0 -52 21.5 -76.5t70.5 -24.5q41 0 68 27.5t27 73.5v295h113v-495h-113v49h-3q-45 -55 -126 -55q-80 0 -125 44t-45 132v325zM283 544l-68 25l79 190l107 -34z" />
    <glyph glyph-name="ucircumflex" unicode="&#xfb;" horiz-adv-x="533" 
d="M59 495h112v-295q0 -52 21.5 -76.5t70.5 -24.5q41 0 68 27.5t27 73.5v295h113v-495h-113v49h-3q-45 -55 -126 -55q-80 0 -125 44t-45 132v325zM402 537l-139 105q-10 -7 -68 -51.5t-72 -53.5l-46 43l149 154h78l146 -153z" />
    <glyph glyph-name="udieresis" unicode="&#xfc;" horiz-adv-x="533" 
d="M59 495h112v-295q0 -52 21.5 -76.5t70.5 -24.5q41 0 68 27.5t27 73.5v295h113v-495h-113v49h-3q-45 -55 -126 -55q-80 0 -125 44t-45 132v325zM416 583h-118v109h118v-109zM217 583h-119v109h119v-109z" />
    <glyph glyph-name="yacute" unicode="&#xfd;" horiz-adv-x="470" 
d="M470 495l-218 -595q-37 -100 -144 -100h-42v95h31q41 0 60 52l25 78l-182 470h122l64 -182l49 -156h4l49 154l63 184h119zM264 544l-68 25l79 190l107 -34z" />
    <glyph glyph-name="thorn" unicode="&#xfe;" horiz-adv-x="524" 
d="M60 712h112v-261l3 -1q45 50 116 50q184 0 184 -256q0 -48 -8.5 -88.5t-28.5 -79t-60 -60.5t-97 -22q-60 0 -107 47h-2v-241h-112v912zM172 246q0 -146 93 -146q24 0 41.5 9t27.5 23t15.5 34.5t7 38.5t1.5 41t-1.5 40.5t-7 39t-15 35.5t-27 23.5t-42.5 9.5
q-93 0 -93 -148z" />
    <glyph glyph-name="ydieresis" unicode="&#xff;" horiz-adv-x="470" 
d="M470 495l-218 -595q-37 -100 -144 -100h-42v95h31q41 0 60 52l25 78l-182 470h122l64 -182l49 -156h4l49 154l63 184h119zM395 583h-118v109h118v-109zM196 583h-119v109h119v-109z" />
    <glyph glyph-name="Amacron" unicode="&#x100;" horiz-adv-x="629" 
d="M626 0h-128l-55 154h-258l-56 -154h-127l263 696h98zM407 257l-46 141l-46 143h-3l-45 -140l-47 -144h187zM465 769h-301v97h301v-97z" />
    <glyph glyph-name="amacron" unicode="&#x101;" horiz-adv-x="499" 
d="M245 500q205 0 205 -164v-336h-113v44q-1 1 -2 1q-37 -50 -129 -50q-80 0 -125.5 39t-45.5 110q0 63 44.5 106t123.5 43h134v36q0 71 -98 71q-75 0 -118 -41l-60 76q65 65 184 65zM405 589h-301v97h301v-97zM142 152q0 -26 21 -43.5t67 -17.5q98 0 106 69q1 8 1 47h-115
q-80 0 -80 -55z" />
    <glyph glyph-name="Abreve" unicode="&#x102;" horiz-adv-x="629" 
d="M626 0h-128l-55 154h-258l-56 -154h-127l263 696h98zM407 257l-46 141l-46 143h-3l-45 -140l-47 -144h187zM314 731q-75 0 -110.5 45t-39.5 100h87q1 -23 18 -44t45 -21q30 0 47 21t17 44h86q-3 -24 -11 -47t-24 -46.5t-45.5 -37.5t-69.5 -14z" />
    <glyph glyph-name="abreve" unicode="&#x103;" horiz-adv-x="499" 
d="M245 500q205 0 205 -164v-336h-113v44q-1 1 -2 1q-37 -50 -129 -50q-80 0 -125.5 39t-45.5 110q0 63 44.5 106t123.5 43h134v36q0 71 -98 71q-75 0 -118 -41l-60 76q65 65 184 65zM263 564q-75 0 -110.5 45.5t-39.5 100.5h87q1 -23 18 -44.5t45 -21.5q30 0 47 21t17 45
h86q-2 -19 -7 -37t-16 -38.5t-27 -35.5t-42 -25t-58 -10zM142 152q0 -26 21 -43.5t67 -17.5q98 0 106 69q1 8 1 47h-115q-80 0 -80 -55z" />
    <glyph glyph-name="Aogonek" unicode="&#x104;" horiz-adv-x="629" 
d="M457 -98q0 42 40 99l-54 153h-258l-56 -154h-127l263 696h98l263 -696h-52q-38 -52 -38 -83q0 -35 40 -35q27 0 61 14l23 -60q-46 -27 -97 -27q-46 0 -76 27t-30 66zM407 257l-46 141l-46 143h-3l-45 -140l-47 -144h187z" />
    <glyph glyph-name="aogonek" unicode="&#x105;" horiz-adv-x="499" 
d="M297 -98q0 42 40 98v44q-1 1 -2 1q-37 -50 -129 -50q-80 0 -125.5 39t-45.5 110q0 63 44.5 106t123.5 43h134v36q0 71 -98 71q-75 0 -118 -41l-60 76q65 65 184 65q205 0 205 -164v-336h-36q-38 -52 -38 -83q0 -35 40 -35q27 0 61 14l23 -60q-46 -27 -97 -27
q-46 0 -76 27t-30 66zM142 152q0 -26 21 -43.5t67 -17.5q98 0 106 69q1 8 1 47h-115q-80 0 -80 -55z" />
    <glyph glyph-name="Cacute" unicode="&#x106;" horiz-adv-x="572" 
d="M436 204l115 -48q-26 -76 -90 -119t-154 -43q-126 0 -192.5 74t-66.5 191v178q0 112 67.5 188t191.5 76q89 0 152.5 -43.5t90.5 -118.5l-114 -45q-13 42 -46.5 67t-82.5 25q-66 0 -101.5 -42.5t-35.5 -101.5v-185q0 -62 35.5 -105.5t101.5 -43.5q48 0 82 26t47 70z
M253 735l-47 56l165 125l74 -84z" />
    <glyph glyph-name="cacute" unicode="&#x107;" horiz-adv-x="447" 
d="M430 67q-76 -73 -175 -73q-97 0 -162 63.5t-65 189.5t67 189.5t164 63.5q99 0 169 -70l-73 -79q-44 46 -94 46q-117 0 -117 -150q0 -149 116 -149q49 0 96 47zM256 544l-68 25l79 190l107 -34z" />
    <glyph glyph-name="Ccircumflex" unicode="&#x108;" horiz-adv-x="572" 
d="M436 204l115 -48q-26 -76 -90 -119t-154 -43q-126 0 -192.5 74t-66.5 191v178q0 112 67.5 188t191.5 76q89 0 152.5 -43.5t90.5 -118.5l-114 -45q-13 42 -46.5 67t-82.5 25q-66 0 -101.5 -42.5t-35.5 -101.5v-185q0 -62 35.5 -105.5t101.5 -43.5q48 0 82 26t47 70z
M451 733l-147 82l-147 -82l-38 48l149 124h76l147 -123z" />
    <glyph glyph-name="ccircumflex" unicode="&#x109;" horiz-adv-x="447" 
d="M430 67q-76 -73 -175 -73q-97 0 -162 63.5t-65 189.5t67 189.5t164 63.5q99 0 169 -70l-73 -79q-44 46 -94 46q-117 0 -117 -150q0 -149 116 -149q49 0 96 47zM387 537l-139 105q-10 -7 -68 -51.5t-72 -53.5l-46 43l149 154h78l146 -153z" />
    <glyph glyph-name="Cdotaccent" unicode="&#x10a;" horiz-adv-x="572" 
d="M436 204l115 -48q-26 -76 -90 -119t-154 -43q-126 0 -192.5 74t-66.5 191v178q0 112 67.5 188t191.5 76q89 0 152.5 -43.5t90.5 -118.5l-114 -45q-13 42 -46.5 67t-82.5 25q-66 0 -101.5 -42.5t-35.5 -101.5v-185q0 -62 35.5 -105.5t101.5 -43.5q48 0 82 26t47 70z
M366 758h-118v109h118v-109z" />
    <glyph glyph-name="cdotaccent" unicode="&#x10b;" horiz-adv-x="447" 
d="M430 67q-76 -73 -175 -73q-97 0 -162 63.5t-65 189.5t67 189.5t164 63.5q99 0 169 -70l-73 -79q-44 46 -94 46q-117 0 -117 -150q0 -149 116 -149q49 0 96 47zM310 583h-118v109h118v-109z" />
    <glyph glyph-name="Ccaron" unicode="&#x10c;" horiz-adv-x="572" 
d="M436 204l115 -48q-26 -76 -90 -119t-154 -43q-126 0 -192.5 74t-66.5 191v178q0 112 67.5 188t191.5 76q89 0 152.5 -43.5t90.5 -118.5l-114 -45q-13 42 -46.5 67t-82.5 25q-66 0 -101.5 -42.5t-35.5 -101.5v-185q0 -62 35.5 -105.5t101.5 -43.5q48 0 82 26t47 70z
M303 826l146 82l41 -49l-147 -124h-76l-150 125l39 48z" />
    <glyph glyph-name="ccaron" unicode="&#x10d;" horiz-adv-x="447" 
d="M430 67q-76 -73 -175 -73q-97 0 -162 63.5t-65 189.5t67 189.5t164 63.5q99 0 169 -70l-73 -79q-44 46 -94 46q-117 0 -117 -150q0 -149 116 -149q49 0 96 47zM248 629l139 105l48 -44l-146 -153h-78l-149 154l46 43q14 -9 72 -53.5t68 -51.5z" />
    <glyph glyph-name="Dcaron" unicode="&#x10e;" horiz-adv-x="638" 
d="M194 586v-476h119q84 0 120 44.5t36 128.5v130q0 91 -39.5 132t-118.5 41h-117zM73 696h253q175 0 237 -129q27 -55 27 -207q0 -163 -25 -222q-60 -138 -256 -138h-236v696zM272 826l146 82l41 -49l-147 -124h-76l-150 125l39 48z" />
    <glyph glyph-name="dcaron" unicode="&#x10f;" horiz-adv-x="645" 
d="M579 497h-59l37 98h-34v131h129v-126zM463 0h-113v46l-2 2q-47 -53 -124 -53q-45 0 -78.5 15.5t-51.5 39t-29 59.5t-14 68t-3 74q0 47 8.5 87.5t28 79t58.5 61t93 22.5q74 0 112 -48l2 1v272h113v-726zM350 248q0 28 -3 49.5t-11.5 45.5t-28 37t-48.5 13
q-31 0 -51.5 -13.5t-29 -38.5t-11.5 -47t-3 -53q0 -28 3 -49t11.5 -43.5t28.5 -35t50 -12.5q93 0 93 147z" />
    <glyph glyph-name="Dcroat" unicode="&#x110;" horiz-adv-x="638" 
d="M6 306v85h67v305h253q175 0 237 -129q27 -55 27 -207q0 -163 -25 -222q-60 -138 -256 -138h-236v306h-67zM194 586v-195h97v-85h-97v-196h119q84 0 120 44.5t36 128.5v130q0 91 -39.5 132t-118.5 41h-117z" />
    <glyph glyph-name="dcroat" unicode="&#x111;" horiz-adv-x="515" 
d="M227 555v73h123v98h113v-98h52v-73h-52v-555h-113v46l-2 2q-47 -53 -124 -53q-45 0 -78.5 15.5t-51.5 39t-29 59.5t-14 68t-3 74q0 47 8.5 87.5t28 79t58.5 61t93 22.5q74 0 112 -48l2 1v101h-123zM350 248q0 28 -3 49.5t-11.5 45.5t-28 37t-48.5 13q-31 0 -51.5 -13.5
t-29 -38.5t-11.5 -47t-3 -53q0 -28 3 -49t11.5 -43.5t28.5 -35t50 -12.5q93 0 93 147z" />
    <glyph glyph-name="Emacron" unicode="&#x112;" horiz-adv-x="564" 
d="M539 0h-466v696h466v-110h-345v-182h294v-106h-294v-188h345v-110zM455 769h-301v97h301v-97z" />
    <glyph glyph-name="emacron" unicode="&#x113;" horiz-adv-x="507" 
d="M466 215h-312q0 -50 26.5 -84.5t78.5 -34.5q25 0 58.5 12t58.5 35q12 -14 33 -39.5t33 -39.5q-75 -70 -187 -70q-34 0 -63.5 6.5t-58.5 24t-49.5 45t-33.5 73t-13 103.5q0 68 19 119.5t51 80t68.5 42t77.5 13.5q99 0 156 -64t57 -173v-49zM252 398q-39 0 -65.5 -27.5
t-30.5 -75.5h190q-3 49 -29 76t-65 27zM415 589h-301v97h301v-97z" />
    <glyph glyph-name="Ebreve" unicode="&#x114;" horiz-adv-x="564" 
d="M539 0h-466v696h466v-110h-345v-182h294v-106h-294v-188h345v-110zM309 731q-75 0 -110.5 45t-39.5 100h87q1 -23 18 -44t45 -21q30 0 47 21t17 44h86q-3 -24 -11 -47t-24 -46.5t-45.5 -37.5t-69.5 -14z" />
    <glyph glyph-name="ebreve" unicode="&#x115;" horiz-adv-x="507" 
d="M466 215h-312q0 -50 26.5 -84.5t78.5 -34.5q25 0 58.5 12t58.5 35q12 -14 33 -39.5t33 -39.5q-75 -70 -187 -70q-34 0 -63.5 6.5t-58.5 24t-49.5 45t-33.5 73t-13 103.5q0 68 19 119.5t51 80t68.5 42t77.5 13.5q99 0 156 -64t57 -173v-49zM252 398q-39 0 -65.5 -27.5
t-30.5 -75.5h190q-3 49 -29 76t-65 27zM258 564q-75 0 -110.5 45.5t-39.5 100.5h87q1 -23 18 -44.5t45 -21.5q30 0 47 21t17 45h86q-2 -19 -7 -37t-16 -38.5t-27 -35.5t-42 -25t-58 -10z" />
    <glyph glyph-name="Edotaccent" unicode="&#x116;" horiz-adv-x="564" 
d="M539 0h-466v696h466v-110h-345v-182h294v-106h-294v-188h345v-110zM363 758h-118v109h118v-109z" />
    <glyph glyph-name="edotaccent" unicode="&#x117;" horiz-adv-x="507" 
d="M466 215h-312q0 -50 26.5 -84.5t78.5 -34.5q25 0 58.5 12t58.5 35q12 -14 33 -39.5t33 -39.5q-75 -70 -187 -70q-34 0 -63.5 6.5t-58.5 24t-49.5 45t-33.5 73t-13 103.5q0 68 19 119.5t51 80t68.5 42t77.5 13.5q99 0 156 -64t57 -173v-49zM252 398q-39 0 -65.5 -27.5
t-30.5 -75.5h190q-3 49 -29 76t-65 27zM318 583h-118v109h118v-109z" />
    <glyph glyph-name="Eogonek" unicode="&#x118;" horiz-adv-x="564" 
d="M422 -98q0 42 40 98h-389v696h466v-110h-345v-182h294v-106h-294v-188h345v-110q-38 -52 -38 -83q0 -35 40 -35q27 0 61 14l23 -60q-46 -27 -97 -27q-46 0 -76 27t-30 66z" />
    <glyph glyph-name="eogonek" unicode="&#x119;" horiz-adv-x="507" 
d="M277 -68q0 31 19 65q-21 -3 -41 -3q-34 0 -63.5 6.5t-58.5 24t-49.5 45t-33.5 73t-13 103.5q0 68 19 119.5t51 80t68.5 42t77.5 13.5q99 0 156 -64t57 -173v-49h-312q0 -50 26.5 -84.5t78.5 -34.5q25 0 58.5 12t58.5 35q12 -14 33 -39.5t33 -39.5q-21 -19 -49 -36
q-37 -50 -37 -81q0 -35 40 -35q27 0 61 14l23 -60q-46 -27 -97 -27q-46 0 -76 27t-30 66zM252 398q-39 0 -65.5 -27.5t-30.5 -75.5h190q-3 49 -29 76t-65 27z" />
    <glyph glyph-name="Ecaron" unicode="&#x11a;" horiz-adv-x="564" 
d="M539 0h-466v696h466v-110h-345v-182h294v-106h-294v-188h345v-110zM301 826l146 82l41 -49l-147 -124h-76l-150 125l39 48z" />
    <glyph glyph-name="ecaron" unicode="&#x11b;" horiz-adv-x="507" 
d="M466 215h-312q0 -50 26.5 -84.5t78.5 -34.5q25 0 58.5 12t58.5 35q12 -14 33 -39.5t33 -39.5q-75 -70 -187 -70q-34 0 -63.5 6.5t-58.5 24t-49.5 45t-33.5 73t-13 103.5q0 68 19 119.5t51 80t68.5 42t77.5 13.5q99 0 156 -64t57 -173v-49zM252 398q-39 0 -65.5 -27.5
t-30.5 -75.5h190q-3 49 -29 76t-65 27zM257 629l139 105l48 -44l-146 -153h-78l-149 154l46 43q14 -9 72 -53.5t68 -51.5z" />
    <glyph glyph-name="Gcircumflex" unicode="&#x11c;" horiz-adv-x="618" 
d="M308 104q58 0 99 42.5t41 99.5v30h-145v104h265v-137q0 -108 -74.5 -178.5t-185.5 -70.5q-126 0 -192 73.5t-66 191.5v178q0 112 66 188t189 76q90 0 153.5 -43.5t90.5 -118.5l-114 -45q-13 42 -47.5 67t-83.5 25q-65 0 -99 -42t-34 -102v-188q0 -61 36 -105.5t101 -44.5
zM451 733l-147 82l-147 -82l-38 48l149 124h76l147 -123z" />
    <glyph glyph-name="gcircumflex" unicode="&#x11d;" horiz-adv-x="522" 
d="M345 495h111v-475q0 -223 -221 -223q-105 0 -172 60l59 83q55 -40 122 -40q47 0 74.5 26.5t27.5 75.5v46h-2q-46 -53 -119 -53q-182 0 -182 241q0 264 185 264q75 0 115 -50h2v45zM158 247q0 -32 3 -54t11.5 -45t28.5 -35t51 -12q93 0 93 146q0 28 -2.5 48t-10.5 45.5
t-28 39.5t-51 14t-51.5 -13t-29 -37t-11.5 -45.5t-3 -51.5zM397 537l-139 105q-10 -7 -68 -51.5t-72 -53.5l-46 43l149 154h78l146 -153z" />
    <glyph glyph-name="Gbreve" unicode="&#x11e;" horiz-adv-x="618" 
d="M308 104q58 0 99 42.5t41 99.5v30h-145v104h265v-137q0 -108 -74.5 -178.5t-185.5 -70.5q-126 0 -192 73.5t-66 191.5v178q0 112 66 188t189 76q90 0 153.5 -43.5t90.5 -118.5l-114 -45q-13 42 -47.5 67t-83.5 25q-65 0 -99 -42t-34 -102v-188q0 -61 36 -105.5t101 -44.5
zM308 731q-75 0 -110.5 45t-39.5 100h87q1 -23 18 -44t45 -21q30 0 47 21t17 44h86q-3 -24 -11 -47t-24 -46.5t-45.5 -37.5t-69.5 -14z" />
    <glyph glyph-name="gbreve" unicode="&#x11f;" horiz-adv-x="522" 
d="M345 495h111v-475q0 -223 -221 -223q-105 0 -172 60l59 83q55 -40 122 -40q47 0 74.5 26.5t27.5 75.5v46h-2q-46 -53 -119 -53q-182 0 -182 241q0 264 185 264q75 0 115 -50h2v45zM158 247q0 -32 3 -54t11.5 -45t28.5 -35t51 -12q93 0 93 146q0 28 -2.5 48t-10.5 45.5
t-28 39.5t-51 14t-51.5 -13t-29 -37t-11.5 -45.5t-3 -51.5zM268 564q-75 0 -110.5 45.5t-39.5 100.5h87q1 -23 18 -44.5t45 -21.5q30 0 47 21t17 45h86q-2 -19 -7 -37t-16 -38.5t-27 -35.5t-42 -25t-58 -10z" />
    <glyph glyph-name="Gdotaccent" unicode="&#x120;" horiz-adv-x="618" 
d="M308 104q58 0 99 42.5t41 99.5v30h-145v104h265v-137q0 -108 -74.5 -178.5t-185.5 -70.5q-126 0 -192 73.5t-66 191.5v178q0 112 66 188t189 76q90 0 153.5 -43.5t90.5 -118.5l-114 -45q-13 42 -47.5 67t-83.5 25q-65 0 -99 -42t-34 -102v-188q0 -61 36 -105.5t101 -44.5
zM368 758h-118v109h118v-109z" />
    <glyph glyph-name="gdotaccent" unicode="&#x121;" horiz-adv-x="522" 
d="M345 495h111v-475q0 -223 -221 -223q-105 0 -172 60l59 83q55 -40 122 -40q47 0 74.5 26.5t27.5 75.5v46h-2q-46 -53 -119 -53q-182 0 -182 241q0 264 185 264q75 0 115 -50h2v45zM158 247q0 -32 3 -54t11.5 -45t28.5 -35t51 -12q93 0 93 146q0 28 -2.5 48t-10.5 45.5
t-28 39.5t-51 14t-51.5 -13t-29 -37t-11.5 -45.5t-3 -51.5zM331 583h-118v109h118v-109z" />
    <glyph glyph-name="Gcommaaccent" unicode="&#x122;" horiz-adv-x="618" 
d="M308 104q58 0 99 42.5t41 99.5v30h-145v104h265v-137q0 -108 -74.5 -178.5t-185.5 -70.5q-126 0 -192 73.5t-66 191.5v178q0 112 66 188t189 76q90 0 153.5 -43.5t90.5 -118.5l-114 -45q-13 42 -47.5 67t-83.5 25q-65 0 -99 -42t-34 -102v-188q0 -61 36 -105.5t101 -44.5
zM293 -285h-59l37 98h-34v131h129v-126z" />
    <glyph glyph-name="gcommaaccent" unicode="&#x123;" horiz-adv-x="522" 
d="M206 701q8 11 33.5 47t39.5 56h59q-13 -32 -37 -98h34v-131h-129v126zM345 495h111v-475q0 -223 -221 -223q-105 0 -172 60l59 83q55 -40 122 -40q47 0 74.5 26.5t27.5 75.5v46h-2q-46 -53 -119 -53q-182 0 -182 241q0 264 185 264q75 0 115 -50h2v45zM158 247
q0 -32 3 -54t11.5 -45t28.5 -35t51 -12q93 0 93 146q0 28 -2.5 48t-10.5 45.5t-28 39.5t-51 14t-51.5 -13t-29 -37t-11.5 -45.5t-3 -51.5z" />
    <glyph glyph-name="Hcircumflex" unicode="&#x124;" horiz-adv-x="655" 
d="M582 0h-120v298h-268v-298h-121v696h121v-292h268v292h120v-696zM471 733l-147 82l-147 -82l-38 48l149 124h76l147 -123z" />
    <glyph glyph-name="hcircumflex" unicode="&#x125;" horiz-adv-x="529" 
d="M470 0h-113v294q0 100 -89 100q-42 0 -69.5 -27t-27.5 -73v-294h-113v726h113v-279h3q23 24 58 38.5t69 14.5q74 0 121.5 -45.5t47.5 -129.5v-325zM258 733l-147 82l-147 -82l-38 48l149 124h76l147 -123z" />
    <glyph glyph-name="Hbar" unicode="&#x126;" horiz-adv-x="655" 
d="M582 0h-120v298h-268v-298h-121v518h-50v77h50v101h121v-101h268v101h120v-101h51v-77h-51v-518zM194 404h268v114h-268v-114z" />
    <glyph glyph-name="hbar" unicode="&#x127;" horiz-adv-x="551" 
d="M494 0h-113v284q0 99 -89 99q-42 0 -69.5 -28.5t-27.5 -75.5v-279h-113v561h-68v80h68v85h113v-85h199v-80h-199v-124l3 -1q23 25 59.5 39.5t73.5 14.5q73 0 118 -45.5t45 -129.5v-315z" />
    <glyph glyph-name="Itilde" unicode="&#x128;" horiz-adv-x="268" 
d="M196 0h-122v696h122v-696zM63 875q27 0 73 -24t60 -24q31 0 64 47l60 -35q-46 -99 -114 -99q-27 0 -74 23t-64 23q-33 0 -69 -45l-57 33q49 101 121 101z" />
    <glyph glyph-name="itilde" unicode="&#x129;" horiz-adv-x="338" 
d="M224 0h-115v495h115v-495zM101 705q27 0 73 -24t60 -24q31 0 64 47l60 -35q-46 -99 -114 -99q-27 0 -74 23t-64 23q-33 0 -69 -45l-57 33q49 101 121 101z" />
    <glyph glyph-name="Imacron" unicode="&#x12a;" horiz-adv-x="268" 
d="M196 0h-122v696h122v-696zM285 769h-301v97h301v-97z" />
    <glyph glyph-name="imacron" unicode="&#x12b;" horiz-adv-x="269" 
d="M193 0h-115v495h115v-495zM284 589h-301v97h301v-97z" />
    <glyph glyph-name="Ibreve" unicode="&#x12c;" horiz-adv-x="268" 
d="M136 731q-75 0 -110.5 45t-39.5 100h87q1 -23 18 -44t45 -21q30 0 47 21t17 44h86q-3 -24 -11 -47t-24 -46.5t-45.5 -37.5t-69.5 -14zM196 0h-122v696h122v-696z" />
    <glyph glyph-name="ibreve" unicode="&#x12d;" horiz-adv-x="272" 
d="M196 0h-115v495h115v-495zM139 570q-75 0 -110.5 45.5t-39.5 100.5h87q1 -23 18 -44.5t45 -21.5q30 0 47 21t17 45h86q-2 -19 -7 -37t-16 -38.5t-27 -35.5t-42 -25t-58 -10z" />
    <glyph glyph-name="Iogonek" unicode="&#x12e;" horiz-adv-x="268" 
d="M49 -98q0 42 40 98h-15v696h122v-696h-30q-38 -52 -38 -83q0 -35 40 -35q27 0 61 14l23 -60q-46 -27 -97 -27q-46 0 -76 27t-30 66z" />
    <glyph glyph-name="iogonek" unicode="&#x12f;" horiz-adv-x="247" 
d="M40 -97q0 41 39 97h-12v495h113v-495h-24q-37 -49 -37 -82q0 -35 40 -35q27 0 61 14l23 -60q-46 -27 -97 -27q-46 0 -76 27t-30 66zM180 592h-113v104h113v-104z" />
    <glyph glyph-name="Idotaccent" unicode="&#x130;" horiz-adv-x="268" 
d="M196 0h-122v696h122v-696zM193 758h-118v109h118v-109z" />
    <glyph glyph-name="dotlessi" unicode="&#x131;" horiz-adv-x="235" 
d="M175 0h-115v495h115v-495z" />
    <glyph glyph-name="IJ" unicode="&#x132;" horiz-adv-x="732" 
d="M196 0h-122v696h122v-696zM667 224q0 -121 -64 -175t-165 -54q-113 0 -190 86l86 79q51 -54 101 -54q111 0 111 122v468h121v-472z" />
    <glyph glyph-name="ij" unicode="&#x133;" horiz-adv-x="486" 
d="M180 592h-113v104h113v-104zM180 0h-113v495h113v-495zM411 592h-114v104h114v-104zM411 496v-555q0 -65 -37.5 -103.5t-108.5 -38.5h-52v100h28q56 0 56 59v538h114z" />
    <glyph glyph-name="Jcircumflex" unicode="&#x134;" horiz-adv-x="489" 
d="M424 225q0 -121 -64 -175t-165 -54q-113 0 -190 86l86 79q51 -54 101 -54q111 0 111 122v468h121v-472zM509 735l-147 82l-147 -82l-38 48l149 124h76l147 -123z" />
    <glyph glyph-name="jcircumflex" unicode="&#x135;" horiz-adv-x="325" 
d="M220 -59q0 -63 -43 -102.5t-110 -39.5h-45v100h32q26 1 39.5 19.5t13.5 43.5v534h113v-555zM299 537l-138 105q-14 -9 -72 -53.5t-68 -51.5l-46 43l148 154h79l145 -153z" />
    <glyph glyph-name="Kcommaaccent" unicode="&#x136;" horiz-adv-x="638" 
d="M645 0h-143l-195 324l-113 -131v-193h-121v696h122v-337l2 -1l117 143l164 195h144l-235 -278zM324 -265h-59l37 98h-34v131h129v-126z" />
    <glyph glyph-name="kcommaaccent" unicode="&#x137;" horiz-adv-x="520" 
d="M523 0h-132q-25 37 -73 111l-72 111q-1 -2 -28.5 -31t-41.5 -45v-146h-112v726h112v-435h3l96 110l86 94h138l-179 -193q17 -25 90 -134.5t113 -167.5zM267 -285h-59l37 98h-34v131h129v-126z" />
    <glyph glyph-name="kgreenlandic" unicode="&#x138;" horiz-adv-x="520" 
d="M523 0h-134q-25 37 -72 111t-71 111q-1 -2 -28.5 -31t-41.5 -45v-146h-112v495h112v-204h3l96 108l87 96h137l-179 -193q17 -25 90 -134.5t113 -167.5z" />
    <glyph glyph-name="Lacute" unicode="&#x139;" horiz-adv-x="564" 
d="M539 0h-466v696h121v-586h345v-110zM131 735l-47 56l165 125l74 -84z" />
    <glyph glyph-name="lacute" unicode="&#x13a;" horiz-adv-x="265" 
d="M245 0h-43q-138 0 -138 131v595h113v-578q0 -26 12 -37t36 -11h20v-100zM113 744l-47 56l165 125l74 -84z" />
    <glyph glyph-name="Lcommaaccent" unicode="&#x13b;" horiz-adv-x="564" 
d="M539 0h-466v696h121v-586h345v-110zM305 -285h-59l37 98h-34v131h129v-126z" />
    <glyph glyph-name="lcommaaccent" unicode="&#x13c;" horiz-adv-x="265" 
d="M245 0h-43q-138 0 -138 131v595h113v-578q0 -26 12 -37t36 -11h20v-100zM145 -283h-59l37 98h-34v131h129v-126z" />
    <glyph glyph-name="Lcaron" unicode="&#x13d;" horiz-adv-x="564" 
d="M539 0h-466v696h121v-586h345v-110zM384 467h-59l37 98h-34v131h129v-126z" />
    <glyph glyph-name="lcaron" unicode="&#x13e;" horiz-adv-x="374" 
d="M304 496h-59l37 98h-34v131h129v-126zM245 0h-43q-138 0 -138 131v595h113v-578q0 -26 12 -37t36 -11h20v-100z" />
    <glyph glyph-name="Ldot" unicode="&#x13f;" horiz-adv-x="564" 
d="M539 0h-466v696h121v-586h345v-110zM440 307h-118v109h118v-109z" />
    <glyph glyph-name="ldot" unicode="&#x140;" horiz-adv-x="371" 
d="M370 324h-118v109h118v-109zM245 0h-43q-138 0 -138 131v595h113v-578q0 -26 12 -37t36 -11h20v-100z" />
    <glyph glyph-name="Lslash" unicode="&#x141;" horiz-adv-x="596" 
d="M570 0h-466v224l-66 -38l-42 73l108 63v374h121v-304l108 63l42 -73l-150 -87v-185h345v-110z" />
    <glyph glyph-name="lslash" unicode="&#x142;" horiz-adv-x="343" 
d="M291 0h-43q-138 0 -138 131v143l-68 -39l-42 73l110 63v355h113v-290l79 46l41 -73l-120 -70v-191q0 -26 12 -37t36 -11h20v-100z" />
    <glyph glyph-name="Nacute" unicode="&#x143;" horiz-adv-x="692" 
d="M621 0h-112l-215 324l-97 159l-3 -1v-482h-121v696h112l195 -296l118 -188l2 2v482h121v-696zM303 735l-47 56l165 125l74 -84z" />
    <glyph glyph-name="nacute" unicode="&#x144;" horiz-adv-x="529" 
d="M470 0h-113v294q0 100 -91 100q-42 0 -68.5 -27t-26.5 -73v-294h-113v496h113v-52h2q23 26 58.5 41t70.5 15q78 0 123 -45t45 -130v-325zM256 544l-68 25l79 190l107 -34z" />
    <glyph glyph-name="Ncommaaccent" unicode="&#x145;" horiz-adv-x="692" 
d="M621 0h-112l-215 324l-97 159l-3 -1v-482h-121v696h112l195 -296l118 -188l2 2v482h121v-696zM338 -265h-59l37 98h-34v131h129v-126z" />
    <glyph glyph-name="ncommaaccent" unicode="&#x146;" horiz-adv-x="529" 
d="M470 0h-113v294q0 100 -91 100q-42 0 -68.5 -27t-26.5 -73v-294h-113v496h113v-52h2q23 26 58.5 41t70.5 15q78 0 123 -45t45 -130v-325zM255 -285h-59l37 98h-34v131h129v-126z" />
    <glyph glyph-name="Ncaron" unicode="&#x147;" horiz-adv-x="692" 
d="M621 0h-112l-215 324l-97 159l-3 -1v-482h-121v696h112l195 -296l118 -188l2 2v482h121v-696zM344 826l146 82l41 -49l-147 -124h-76l-150 125l39 48z" />
    <glyph glyph-name="ncaron" unicode="&#x148;" horiz-adv-x="529" 
d="M470 0h-113v294q0 100 -91 100q-42 0 -68.5 -27t-26.5 -73v-294h-113v496h113v-52h2q23 26 58.5 41t70.5 15q78 0 123 -45t45 -130v-325zM257 629l139 105l48 -44l-146 -153h-78l-149 154l46 43q14 -9 72 -53.5t68 -51.5z" />
    <glyph glyph-name="napostrophe" unicode="&#x149;" horiz-adv-x="624" 
d="M565 0h-113v294q0 100 -91 100q-42 0 -68.5 -27t-26.5 -73v-294h-113v496h113v-52h2q23 26 58.5 41t70.5 15q78 0 123 -45t45 -130v-325zM53 442h-59l37 98h-34v131h129v-126z" />
    <glyph glyph-name="Eng" unicode="&#x14a;" horiz-adv-x="692" 
d="M621 696v-765q0 -54 -32 -84.5t-87 -30.5q-51 0 -98 23l27 78q29 -8 44 -8q34 0 34 40v52l-215 323l-97 159l-3 -1v-482h-121v696h112l195 -296l118 -188l2 2v482h121z" />
    <glyph glyph-name="eng" unicode="&#x14b;" horiz-adv-x="529" 
d="M470 -69q0 -54 -32 -84.5t-87 -30.5q-51 0 -98 23l26 78q29 -8 45 -8q33 0 33 40v345q0 48 -23.5 73.5t-68.5 25.5q-41 0 -67.5 -26.5t-26.5 -72.5v-294h-113v495h113v-50h3q49 55 125 55t123.5 -45.5t47.5 -128.5v-395z" />
    <glyph glyph-name="Omacron" unicode="&#x14c;" horiz-adv-x="610" 
d="M304 701q118 0 189 -74t71 -190v-178q0 -121 -70.5 -193t-189.5 -72q-124 0 -191.5 76t-67.5 189v178q0 112 67.5 188t191.5 76zM304 587q-66 0 -101.5 -42.5t-35.5 -101.5v-187q0 -62 35.5 -105.5t101.5 -43.5q62 0 99.5 42t37.5 107v187q0 61 -37 102.5t-100 41.5z
M460 769h-301v97h301v-97z" />
    <glyph glyph-name="omacron" unicode="&#x14d;" horiz-adv-x="515" 
d="M264 501q116 0 172 -83q38 -59 36 -163q0 -109 -34 -168q-28 -46 -77 -70t-109 -24q-118 0 -171 78q-41 61 -39 176q0 89 25 140q25 54 77 84t120 30zM260 399q-61 0 -87 -56q-15 -33 -17 -97q0 -65 15 -95q24 -55 84 -55q71 0 93 71q9 29 9 88q0 58 -13 87
q-22 57 -84 57zM411 589h-301v97h301v-97z" />
    <glyph glyph-name="Obreve" unicode="&#x14e;" horiz-adv-x="610" 
d="M304 701q118 0 189 -74t71 -190v-178q0 -121 -70.5 -193t-189.5 -72q-124 0 -191.5 76t-67.5 189v178q0 112 67.5 188t191.5 76zM304 587q-66 0 -101.5 -42.5t-35.5 -101.5v-187q0 -62 35.5 -105.5t101.5 -43.5q62 0 99.5 42t37.5 107v187q0 61 -37 102.5t-100 41.5z
M306 731q-75 0 -110.5 45t-39.5 100h87q1 -23 18 -44t45 -21q30 0 47 21t17 44h86q-3 -24 -11 -47t-24 -46.5t-45.5 -37.5t-69.5 -14z" />
    <glyph glyph-name="obreve" unicode="&#x14f;" horiz-adv-x="515" 
d="M264 501q116 0 172 -83q38 -59 36 -163q0 -109 -34 -168q-28 -46 -77 -70t-109 -24q-118 0 -171 78q-41 61 -39 176q0 89 25 140q25 54 77 84t120 30zM260 399q-61 0 -87 -56q-15 -33 -17 -97q0 -65 15 -95q24 -55 84 -55q71 0 93 71q9 29 9 88q0 58 -13 87
q-22 57 -84 57zM260 564q-75 0 -110.5 45.5t-39.5 100.5h87q1 -23 18 -44.5t45 -21.5q30 0 47 21t17 45h86q-2 -19 -7 -37t-16 -38.5t-27 -35.5t-42 -25t-58 -10z" />
    <glyph glyph-name="Ohungarumlaut" unicode="&#x150;" horiz-adv-x="610" 
d="M304 701q118 0 189 -74t71 -190v-178q0 -121 -70.5 -193t-189.5 -72q-124 0 -191.5 76t-67.5 189v178q0 112 67.5 188t191.5 76zM304 587q-66 0 -101.5 -42.5t-35.5 -101.5v-187q0 -62 35.5 -105.5t101.5 -43.5q62 0 99.5 42t37.5 107v187q0 61 -37 102.5t-100 41.5z
M192 730l-51 52l154 137l82 -78zM379 730l-51 52l154 137l82 -78z" />
    <glyph glyph-name="ohungarumlaut" unicode="&#x151;" horiz-adv-x="515" 
d="M264 501q116 0 172 -83q38 -59 36 -163q0 -109 -34 -168q-28 -46 -77 -70t-109 -24q-118 0 -171 78q-41 61 -39 176q0 89 25 140q25 54 77 84t120 30zM260 399q-61 0 -87 -56q-15 -33 -17 -97q0 -65 15 -95q24 -55 84 -55q71 0 93 71q9 29 9 88q0 58 -13 87
q-22 57 -84 57zM202 544l-68 25l79 190l107 -34zM361 544l-68 25l78 190l107 -34z" />
    <glyph glyph-name="OE" unicode="&#x152;" horiz-adv-x="847" 
d="M821 0h-459q-30 -6 -63 -6q-258 0 -258 250v193q0 112 67 188t191 76q26 0 56 -5h466v-110h-345v-183h294v-105h-294v-189h345v-109zM299 107q31 0 56 11v458q-27 11 -56 11q-50 0 -82.5 -26t-43.5 -61.5t-11 -80.5v-163q0 -149 137 -149z" />
    <glyph glyph-name="oe" unicode="&#x153;" horiz-adv-x="835" 
d="M258 500q110 0 158 -76v-1q50 77 156 77q99 0 157.5 -64t58.5 -172v-49h-316q2 -58 30.5 -88.5t79.5 -30.5q62 0 112 46l70 -78q-74 -70 -183 -70q-112 0 -168 79q-53 -79 -163 -79q-118 0 -170 77q-41 59 -41 168q0 94 24 147q25 54 76 84t119 30zM255 399
q-62 0 -88 -56q-15 -33 -15 -98q0 -64 15 -95q25 -54 86 -54q72 0 94 71q8 25 8 80q0 62 -14 95q-23 57 -86 57zM669 295q-3 50 -29.5 77t-66.5 27t-67 -28t-31 -76h194z" />
    <glyph glyph-name="Racute" unicode="&#x154;" horiz-adv-x="625" 
d="M580 0h-136l-121 287h-129v-287h-121v696h296q91 0 152 -54.5t61 -145.5q0 -66 -36.5 -116.5t-102.5 -74.5zM458 496q0 47 -29 70t-79 23h-156v-194h152q50 0 81 26.5t31 74.5zM253 735l-47 56l165 125l74 -84z" />
    <glyph glyph-name="racute" unicode="&#x155;" horiz-adv-x="388" 
d="M270 395q-42 0 -67.5 -25.5t-25.5 -72.5v-298h-113v496h111v-59h4q45 64 120 64q57 0 94 -26l-42 -102q-38 23 -81 23zM208 544l-68 25l79 190l107 -34z" />
    <glyph glyph-name="Rcommaaccent" unicode="&#x156;" horiz-adv-x="625" 
d="M580 0h-136l-121 287h-129v-287h-121v696h296q91 0 152 -54.5t61 -145.5q0 -66 -36.5 -116.5t-102.5 -74.5zM458 496q0 47 -29 70t-79 23h-156v-194h152q50 0 81 26.5t31 74.5zM308 -265h-59l37 98h-34v131h129v-126z" />
    <glyph glyph-name="rcommaaccent" unicode="&#x157;" horiz-adv-x="388" 
d="M270 395q-42 0 -67.5 -25.5t-25.5 -72.5v-298h-113v496h111v-59h4q45 64 120 64q57 0 94 -26l-42 -102q-38 23 -81 23zM114 -285h-59l37 98h-34v131h129v-126z" />
    <glyph glyph-name="Rcaron" unicode="&#x158;" horiz-adv-x="625" 
d="M580 0h-136l-121 287h-129v-287h-121v696h296q91 0 152 -54.5t61 -145.5q0 -66 -36.5 -116.5t-102.5 -74.5zM458 496q0 47 -29 70t-79 23h-156v-194h152q50 0 81 26.5t31 74.5zM278 826l146 82l41 -49l-147 -124h-76l-150 125l39 48z" />
    <glyph glyph-name="rcaron" unicode="&#x159;" horiz-adv-x="388" 
d="M270 395q-42 0 -67.5 -25.5t-25.5 -72.5v-298h-113v496h111v-59h4q45 64 120 64q57 0 94 -26l-42 -102q-38 23 -81 23zM196 629l139 105l48 -44l-146 -153h-78l-149 154l46 43q14 -9 72 -53.5t68 -51.5z" />
    <glyph glyph-name="Sacute" unicode="&#x15a;" horiz-adv-x="569" 
d="M518 637l-60 -100q-79 52 -172 52q-60 0 -89 -24t-29 -64q0 -41 36.5 -59.5t133.5 -35.5q44 -8 76 -19.5t63.5 -33t48.5 -58.5t17 -89q0 -98 -75.5 -155t-186.5 -57q-168 0 -276 96l73 94q84 -77 209 -77q59 0 94 24.5t35 70.5q0 41 -30.5 63t-96.5 32q-43 6 -72.5 12.5
t-64 21t-55.5 34.5t-35 53.5t-14 78.5q0 98 69.5 151.5t166.5 53.5q143 0 234 -65zM260 735l-47 56l165 125l74 -84z" />
    <glyph glyph-name="sacute" unicode="&#x15b;" horiz-adv-x="463" 
d="M433 151q0 -72 -58 -114.5t-144 -42.5q-130 0 -215 75l61 81q64 -59 159 -59q37 0 61.5 15.5t24.5 41.5q0 25 -21 38t-67 18q-33 4 -54 7.5t-49.5 13.5t-44.5 23.5t-28 38.5t-12 58q0 73 53 114t132 41q116 0 190 -56l-54 -86q-65 43 -134 43q-38 0 -59 -15t-21 -38
q0 -24 27 -35.5t91 -18.5q162 -18 162 -143zM256 544l-68 25l79 190l107 -34z" />
    <glyph glyph-name="Scircumflex" unicode="&#x15c;" horiz-adv-x="569" 
d="M518 637l-60 -100q-79 52 -172 52q-60 0 -89 -24t-29 -64q0 -41 36.5 -59.5t133.5 -35.5q44 -8 76 -19.5t63.5 -33t48.5 -58.5t17 -89q0 -98 -75.5 -155t-186.5 -57q-168 0 -276 96l73 94q84 -77 209 -77q59 0 94 24.5t35 70.5q0 41 -30.5 63t-96.5 32q-43 6 -72.5 12.5
t-64 21t-55.5 34.5t-35 53.5t-14 78.5q0 98 69.5 151.5t166.5 53.5q143 0 234 -65zM440 733l-147 82l-147 -82l-38 48l149 124h76l147 -123z" />
    <glyph glyph-name="scircumflex" unicode="&#x15d;" horiz-adv-x="463" 
d="M433 151q0 -72 -58 -114.5t-144 -42.5q-130 0 -215 75l61 81q64 -59 159 -59q37 0 61.5 15.5t24.5 41.5q0 25 -21 38t-67 18q-33 4 -54 7.5t-49.5 13.5t-44.5 23.5t-28 38.5t-12 58q0 73 53 114t132 41q116 0 190 -56l-54 -86q-65 43 -134 43q-38 0 -59 -15t-21 -38
q0 -24 27 -35.5t91 -18.5q162 -18 162 -143zM382 537l-139 105q-10 -7 -68 -51.5t-72 -53.5l-46 43l149 154h78l146 -153z" />
    <glyph glyph-name="Scedilla" unicode="&#x15e;" horiz-adv-x="569" 
d="M518 637l-60 -100q-79 52 -172 52q-60 0 -89 -24t-29 -64q0 -41 36.5 -59.5t133.5 -35.5q44 -8 76 -19.5t63.5 -33t48.5 -58.5t17 -89q0 -92 -67 -148t-169 -63q-4 -10 -10 -32q50 -4 74 -29.5t24 -57.5q0 -35 -30 -62t-84 -27q-56 0 -100 24l21 52q35 -16 72 -16
q44 0 44 33q0 32 -43 32q-7 0 -17 -2l-30 20l20 65q-148 9 -243 95l73 94q84 -77 209 -77q59 0 94 24.5t35 70.5q0 41 -30.5 63t-96.5 32q-43 6 -72.5 12.5t-64 21t-55.5 34.5t-35 53.5t-14 78.5q0 98 69.5 151.5t166.5 53.5q143 0 234 -65z" />
    <glyph glyph-name="scedilla" unicode="&#x15f;" horiz-adv-x="463" 
d="M433 151q0 -66 -47.5 -107t-122.5 -48q-4 -11 -10 -33q50 -4 74 -29.5t24 -57.5q0 -35 -30 -62t-84 -27q-56 0 -100 24l21 52q35 -16 72 -16q44 0 44 33q0 32 -43 32q-7 0 -17 -2l-30 20l20 65q-110 5 -188 74l61 81q64 -59 159 -59q37 0 61.5 15.5t24.5 41.5
q0 25 -21 38t-67 18q-33 4 -54 7.5t-49.5 13.5t-44.5 23.5t-28 38.5t-12 58q0 73 53 114t132 41q116 0 190 -56l-54 -86q-65 43 -134 43q-38 0 -59 -15t-21 -38q0 -24 27 -35.5t91 -18.5q162 -18 162 -143z" />
    <glyph glyph-name="Scaron" unicode="&#x160;" horiz-adv-x="569" 
d="M518 637l-60 -100q-79 52 -172 52q-60 0 -89 -24t-29 -64q0 -41 36.5 -59.5t133.5 -35.5q44 -8 76 -19.5t63.5 -33t48.5 -58.5t17 -89q0 -98 -75.5 -155t-186.5 -57q-168 0 -276 96l73 94q84 -77 209 -77q59 0 94 24.5t35 70.5q0 41 -30.5 63t-96.5 32q-43 6 -72.5 12.5
t-64 21t-55.5 34.5t-35 53.5t-14 78.5q0 98 69.5 151.5t166.5 53.5q143 0 234 -65zM295 826l146 82l41 -49l-147 -124h-76l-150 125l39 48z" />
    <glyph glyph-name="scaron" unicode="&#x161;" horiz-adv-x="463" 
d="M433 151q0 -72 -58 -114.5t-144 -42.5q-130 0 -215 75l61 81q64 -59 159 -59q37 0 61.5 15.5t24.5 41.5q0 25 -21 38t-67 18q-33 4 -54 7.5t-49.5 13.5t-44.5 23.5t-28 38.5t-12 58q0 73 53 114t132 41q116 0 190 -56l-54 -86q-65 43 -134 43q-38 0 -59 -15t-21 -38
q0 -24 27 -35.5t91 -18.5q162 -18 162 -143zM238 629l139 105l48 -44l-146 -153h-78l-149 154l46 43q14 -9 72 -53.5t68 -51.5z" />
    <glyph glyph-name="Tcommaaccent" unicode="&#x162;" horiz-adv-x="521" 
d="M513 588h-194v-588h-121v588h-193v108h508v-108zM252 -285h-59l37 98h-34v131h129v-126z" />
    <glyph glyph-name="tcommaaccent" unicode="&#x163;" horiz-adv-x="316" 
d="M285 0h-68q-56 0 -91.5 33t-35.5 91v280h-57v92h58v129h110v-129h76v-92h-75v-249q0 -56 46 -56h37v-99zM154 -285h-59l37 98h-34v131h129v-126z" />
    <glyph glyph-name="Tcaron" unicode="&#x164;" horiz-adv-x="521" 
d="M513 588h-194v-588h-121v588h-193v108h508v-108zM258 826l146 82l41 -49l-147 -124h-76l-150 125l39 48z" />
    <glyph glyph-name="tcaron" unicode="&#x165;" horiz-adv-x="385" 
d="M323 554h-59l37 98h-34v131h129v-126zM285 0h-68q-56 0 -91.5 33t-35.5 91v280h-57v92h58v129h110v-129h76v-92h-75v-249q0 -56 46 -56h37v-99z" />
    <glyph glyph-name="Tbar" unicode="&#x166;" horiz-adv-x="521" 
d="M513 588h-194v-185h153v-85h-153v-318h-121v318h-153v85h153v185h-193v108h508v-108z" />
    <glyph glyph-name="tbar" unicode="&#x167;" horiz-adv-x="316" 
d="M285 0h-68q-56 0 -91.5 33t-35.5 91v107h-55v80h55v93h-57v92h58v129h110v-129h76v-92h-75v-93h76v-80h-76v-76q0 -56 46 -56h37v-99z" />
    <glyph glyph-name="Utilde" unicode="&#x168;" horiz-adv-x="638" 
d="M579 247q0 -113 -73 -182.5t-187 -69.5q-117 0 -188 72.5t-71 184.5v444h120v-435q0 -66 38 -109.5t102 -43.5q63 0 100 38.5t37 109.5v440h122v-449zM251 875q27 0 73 -24t60 -24q31 0 64 47l60 -35q-46 -99 -114 -99q-27 0 -74 23t-64 23q-33 0 -69 -45l-57 33
q49 101 121 101z" />
    <glyph glyph-name="utilde" unicode="&#x169;" horiz-adv-x="533" 
d="M59 495h112v-295q0 -52 21.5 -76.5t70.5 -24.5q41 0 68 27.5t27 73.5v295h113v-495h-113v49h-3q-45 -55 -126 -55q-80 0 -125 44t-45 132v325zM190 705q27 0 73 -24t60 -24q31 0 64 47l60 -35q-46 -99 -114 -99q-27 0 -74 23t-64 23q-33 0 -69 -45l-57 33q49 101 121 101
z" />
    <glyph glyph-name="Umacron" unicode="&#x16a;" horiz-adv-x="638" 
d="M579 247q0 -113 -73 -182.5t-187 -69.5q-117 0 -188 72.5t-71 184.5v444h120v-435q0 -66 38 -109.5t102 -43.5q63 0 100 38.5t37 109.5v440h122v-449zM466 769h-301v97h301v-97z" />
    <glyph glyph-name="umacron" unicode="&#x16b;" horiz-adv-x="533" 
d="M59 495h112v-295q0 -52 21.5 -76.5t70.5 -24.5q41 0 68 27.5t27 73.5v295h113v-495h-113v49h-3q-45 -55 -126 -55q-80 0 -125 44t-45 132v325zM420 589h-301v97h301v-97z" />
    <glyph glyph-name="Ubreve" unicode="&#x16c;" horiz-adv-x="638" 
d="M579 247q0 -113 -73 -182.5t-187 -69.5q-117 0 -188 72.5t-71 184.5v444h120v-435q0 -66 38 -109.5t102 -43.5q63 0 100 38.5t37 109.5v440h122v-449zM322 714q-75 0 -110.5 45.5t-39.5 100.5h87q1 -23 18 -44.5t45 -21.5q30 0 47 21t17 45h86q-2 -19 -7 -37t-16 -38.5
t-27 -35.5t-42 -25t-58 -10z" />
    <glyph glyph-name="ubreve" unicode="&#x16d;" horiz-adv-x="533" 
d="M59 495h112v-295q0 -52 21.5 -76.5t70.5 -24.5q41 0 68 27.5t27 73.5v295h113v-495h-113v49h-3q-45 -55 -126 -55q-80 0 -125 44t-45 132v325zM267 564q-75 0 -110.5 45.5t-39.5 100.5h87q1 -23 18 -44.5t45 -21.5q30 0 47 21t17 45h86q-2 -19 -7 -37t-16 -38.5
t-27 -35.5t-42 -25t-58 -10z" />
    <glyph glyph-name="Uring" unicode="&#x16e;" horiz-adv-x="638" 
d="M579 247q0 -113 -73 -182.5t-187 -69.5q-117 0 -188 72.5t-71 184.5v444h120v-435q0 -66 38 -109.5t102 -43.5q63 0 100 38.5t37 109.5v440h122v-449zM368 809q0 19 -13.5 32.5t-33.5 13.5t-34 -13.5t-14 -32.5t14 -32.5t34 -13.5q19 0 33 13.5t14 32.5zM209 809
q0 45 32.5 76.5t79.5 31.5q46 0 78.5 -31.5t32.5 -76.5q0 -44 -32.5 -75.5t-78.5 -31.5t-79 31.5t-33 75.5z" />
    <glyph glyph-name="uring" unicode="&#x16f;" horiz-adv-x="533" 
d="M59 495h112v-295q0 -52 21.5 -76.5t70.5 -24.5q41 0 68 27.5t27 73.5v295h113v-495h-113v49h-3q-45 -55 -126 -55q-80 0 -125 44t-45 132v325zM314 643q0 19 -13.5 32.5t-33.5 13.5t-34 -13.5t-14 -32.5t14 -32.5t34 -13.5q19 0 33 13.5t14 32.5zM155 643q0 45 32.5 76.5
t79.5 31.5q46 0 78.5 -31.5t32.5 -76.5q0 -44 -32.5 -75.5t-78.5 -31.5t-79 31.5t-33 75.5z" />
    <glyph glyph-name="Uhungarumlaut" unicode="&#x170;" horiz-adv-x="638" 
d="M579 247q0 -113 -73 -182.5t-187 -69.5q-117 0 -188 72.5t-71 184.5v444h120v-435q0 -66 38 -109.5t102 -43.5q63 0 100 38.5t37 109.5v440h122v-449zM182 730l-51 52l154 137l82 -78zM369 730l-51 52l154 137l82 -78z" />
    <glyph glyph-name="uhungarumlaut" unicode="&#x171;" horiz-adv-x="533" 
d="M59 495h112v-295q0 -52 21.5 -76.5t70.5 -24.5q41 0 68 27.5t27 73.5v295h113v-495h-113v49h-3q-45 -55 -126 -55q-80 0 -125 44t-45 132v325zM204 544l-68 25l79 190l107 -34zM363 544l-68 25l78 190l107 -34z" />
    <glyph glyph-name="Uogonek" unicode="&#x172;" horiz-adv-x="638" 
d="M248 -96q0 41 36 93q-102 11 -163 81.5t-61 173.5v444h120v-435q0 -66 38 -109.5t102 -43.5q63 0 100 38.5t37 109.5v440h122v-449q0 -102 -60 -169t-157 -80q-35 -49 -35 -79q0 -35 40 -35q27 0 61 14l23 -60q-46 -27 -97 -27q-46 0 -76 27t-30 66z" />
    <glyph glyph-name="uogonek" unicode="&#x173;" horiz-adv-x="533" 
d="M319 -96q0 41 39 96v49h-3q-45 -55 -126 -55q-80 0 -125 44t-45 132v325h112v-295q0 -52 21.5 -76.5t70.5 -24.5q41 0 68 27.5t27 73.5v295h113v-495h-37q-36 -50 -36 -81q0 -35 40 -35q27 0 61 14l23 -60q-46 -27 -97 -27q-46 0 -76 27t-30 66z" />
    <glyph glyph-name="Wcircumflex" unicode="&#x174;" horiz-adv-x="839" 
d="M419 473q-1 0 -3 -1q-11 -43 -33.5 -127t-33.5 -127q-3 -13 -30 -107.5t-31 -111.5h-101l-181 696h129q46 -196 78 -340l28 -127h4l32 126q69 250 95 341h92q60 -208 96 -344l33 -124h4q5 23 14.5 70.5l10.5 52.5q54 244 79 345h128q-120 -464 -181 -696h-100
q-59 214 -70 251q-24 94 -59 223zM566 733l-147 82l-147 -82l-38 48l149 124h76l147 -123z" />
    <glyph glyph-name="wcircumflex" unicode="&#x175;" horiz-adv-x="736" 
d="M514 168h6q4 12 7.5 26.5t8 32t6.5 26.5q5 15 11.5 40t21 78.5t34.5 123.5h121q-54 -165 -164 -495h-99q-18 59 -70 231l-29 94h-2l-31 -106q-32 -110 -67 -219h-99l-164 495h121q14 -46 40 -140q8 -26 24.5 -88.5t26.5 -95.5h4q7 21 42 139l58 185h95q39 -123 74 -243z
M504 537l-139 105q-10 -7 -68 -51.5t-72 -53.5l-46 43l149 154h78l146 -153z" />
    <glyph glyph-name="Ycircumflex" unicode="&#x176;" horiz-adv-x="557" 
d="M553 696q-144 -274 -217 -410v-286h-115v286q-40 74 -113 213t-104 197h129l84 -172q21 -44 61 -134h2l62 137l83 169h128zM425 733l-147 82l-147 -82l-38 48l149 124h76l147 -123z" />
    <glyph glyph-name="ycircumflex" unicode="&#x177;" horiz-adv-x="470" 
d="M470 495l-218 -595q-37 -100 -144 -100h-42v95h31q41 0 60 52l25 78l-182 470h122l64 -182l49 -156h4l49 154l63 184h119zM375 537l-139 105q-10 -7 -68 -51.5t-72 -53.5l-46 43l149 154h78l146 -153z" />
    <glyph glyph-name="Ydieresis" unicode="&#x178;" horiz-adv-x="557" 
d="M553 696q-144 -274 -217 -410v-286h-115v286q-40 74 -113 213t-104 197h129l84 -172q21 -44 61 -134h2l62 137l83 169h128zM242 757h-121v111h121v-111zM439 757h-120v111h120v-111z" />
    <glyph glyph-name="Zacute" unicode="&#x179;" horiz-adv-x="527" 
d="M497 0h-467v104l323 485h-310v107h454v-99l-323 -486h323v-111zM224 735l-47 56l165 125l74 -84z" />
    <glyph glyph-name="zacute" unicode="&#x17a;" horiz-adv-x="449" 
d="M417 0h-386v94l249 304h-235v97h372v-92l-248 -301h248v-102zM251 544l-68 25l79 190l107 -34z" />
    <glyph glyph-name="Zdotaccent" unicode="&#x17b;" horiz-adv-x="527" 
d="M497 0h-467v104l323 485h-310v107h454v-99l-323 -486h323v-111zM330 758h-118v109h118v-109z" />
    <glyph glyph-name="zdotaccent" unicode="&#x17c;" horiz-adv-x="449" 
d="M417 0h-386v94l249 304h-235v97h372v-92l-248 -301h248v-102zM292 583h-118v109h118v-109z" />
    <glyph glyph-name="Zcaron" unicode="&#x17d;" horiz-adv-x="527" 
d="M497 0h-467v104l323 485h-310v107h454v-99l-323 -486h323v-111zM270 826l146 82l41 -49l-147 -124h-76l-150 125l39 48z" />
    <glyph glyph-name="zcaron" unicode="&#x17e;" horiz-adv-x="449" 
d="M417 0h-386v94l249 304h-235v97h372v-92l-248 -301h248v-102zM223 629l139 105l48 -44l-146 -153h-78l-149 154l46 43q14 -9 72 -53.5t68 -51.5z" />
    <glyph glyph-name="florin" unicode="&#x192;" horiz-adv-x="525" 
d="M126 328l-1 98h95l8 63q29 211 193 211q50 -2 95 -19l-24 -94q-30 10 -72 10q-62 0 -76 -108l-9 -63h99l1 -98h-112l-28 -208q-30 -217 -176 -217q-53 0 -112 26l28 91q36 -14 69 -14q59 0 75 121q2 21 27 201h-80z" />
    <glyph glyph-name="Ohorn" unicode="&#x1a0;" horiz-adv-x="615" 
d="M304 701q91 0 157 -47q29 5 41 28.5t12 72.5v38h94v-59q0 -114 -81 -152q37 -63 37 -145v-178q0 -121 -70.5 -193t-189.5 -72q-124 0 -191.5 76t-67.5 189v178q0 112 67.5 188t191.5 76zM304 587q-66 0 -101.5 -42.5t-35.5 -101.5v-187q0 -62 35.5 -105.5t101.5 -43.5
q62 0 99.5 42t37.5 107v187q0 61 -37 102.5t-100 41.5z" />
    <glyph glyph-name="ohorn" unicode="&#x1a1;" horiz-adv-x="548" 
d="M264 501q85 0 143 -50q28 6 39.5 29t11.5 72v38h95v-59q0 -124 -96 -158q15 -46 15 -118q0 -109 -34 -168q-28 -46 -77 -70t-109 -24q-118 0 -171 78q-41 61 -39 176q0 89 25 140q25 54 77 84t120 30zM260 399q-61 0 -87 -56q-15 -33 -17 -97q0 -65 15 -95q24 -55 84 -55
q71 0 93 71q9 29 9 88q0 58 -13 87q-22 57 -84 57z" />
    <glyph glyph-name="Uhorn" unicode="&#x1af;" horiz-adv-x="699" 
d="M579 247q0 -113 -73 -182.5t-187 -69.5q-117 0 -188 72.5t-71 184.5v444h120v-435q0 -66 38 -109.5t102 -43.5q63 0 100 38.5t37 109.5v440h122v-40q29 5 41.5 28.5t12.5 72.5v36h94v-59q0 -76 -38 -120t-110 -48v-319z" />
    <glyph glyph-name="uhorn" unicode="&#x1b0;" horiz-adv-x="606" 
d="M59 495h112v-295q0 -52 21.5 -76.5t70.5 -24.5q41 0 68 27.5t27 73.5v295h113v-44q28 5 40 28.5t12 72.5v38h94v-59q0 -76 -37.5 -119.5t-108.5 -48.5v-363h-113v49h-3q-45 -55 -126 -55q-80 0 -125 44t-45 132v325z" />
    <glyph glyph-name="AEacute" unicode="&#x1fc;" horiz-adv-x="1034" 
d="M983 0h-466v176h-247q-14 -23 -107 -176h-137l433 696h524v-110h-345v-183h294v-105h-294v-189h345v-109zM515 585q-31 -51 -92.5 -152t-91.5 -152h186v304h-2zM622 735l-47 56l165 125l74 -84z" />
    <glyph glyph-name="aeacute" unicode="&#x1fd;" horiz-adv-x="816" 
d="M774 215h-315q1 -38 17 -68q30 -50 97 -50q58 0 107 45l70 -78q-73 -69 -180 -69q-117 0 -175 71q-58 -71 -179 -71q-80 0 -128 39t-48 110q0 63 44.5 106t123.5 43h134v36q0 74 -100 74q-80 0 -120 -43l-58 73q59 67 179 67q126 0 173 -57q53 57 141 57q105 0 161 -70
t56 -181v-34zM147 152q0 -26 21 -43.5t67 -17.5q107 0 107 94v23h-115q-41 0 -60.5 -15.5t-19.5 -40.5zM446 544l-68 25l79 190l107 -34zM657 295q-3 49 -30 76t-67 27q-41 0 -68 -27t-31 -76h196z" />
    <glyph glyph-name="Oslashacute" unicode="&#x1fe;" horiz-adv-x="610" 
d="M304 701q100 0 169 -56l41 57l47 -34l-47 -66q50 -70 50 -165v-178q0 -121 -70.5 -193t-189.5 -72q-110 0 -178 62l-42 -60l-45 33l50 71q-44 66 -44 159v178q0 112 67.5 188t191.5 76zM441 443q0 26 -7 47l-236 -334q37 -49 106 -49q62 0 99.5 42t37.5 107v187zM304 587
q-66 0 -101.5 -42.5t-35.5 -101.5v-187q0 -23 4 -40l232 330q-38 41 -99 41zM282 735l-47 56l165 125l74 -84z" />
    <glyph glyph-name="oslashacute" unicode="&#x1ff;" horiz-adv-x="515" 
d="M264 501q79 0 133 -42l42 54l36 -28l-46 -58q3 -3 7 -9q38 -59 36 -163q0 -109 -34 -168q-28 -46 -77 -70t-109 -24q-83 0 -135 40l-39 -49l-34 27l42 53q-4 4 -5 7q-41 61 -39 176q0 89 25 140q25 54 77 84t120 30zM260 399q-61 0 -87 -56q-15 -33 -17 -97q0 -56 9 -81
l162 206q-25 28 -67 28zM357 255q0 42 -8 72l-161 -204q27 -27 67 -27q71 0 93 71q9 29 9 88zM271 544l-68 25l79 190l107 -34z" />
    <glyph glyph-name="Scommaaccent" unicode="&#x218;" horiz-adv-x="569" 
d="M518 637l-60 -100q-79 52 -172 52q-60 0 -89 -24t-29 -64q0 -41 36.5 -59.5t133.5 -35.5q44 -8 76 -19.5t63.5 -33t48.5 -58.5t17 -89q0 -98 -75.5 -155t-186.5 -57q-168 0 -276 96l73 94q84 -77 209 -77q59 0 94 24.5t35 70.5q0 41 -30.5 63t-96.5 32q-43 6 -72.5 12.5
t-64 21t-55.5 34.5t-35 53.5t-14 78.5q0 98 69.5 151.5t166.5 53.5q143 0 234 -65zM282 -285h-59l37 98h-34v131h129v-126z" />
    <glyph glyph-name="scommaaccent" unicode="&#x219;" horiz-adv-x="463" 
d="M433 151q0 -72 -58 -114.5t-144 -42.5q-130 0 -215 75l61 81q64 -59 159 -59q37 0 61.5 15.5t24.5 41.5q0 25 -21 38t-67 18q-33 4 -54 7.5t-49.5 13.5t-44.5 23.5t-28 38.5t-12 58q0 73 53 114t132 41q116 0 190 -56l-54 -86q-65 43 -134 43q-38 0 -59 -15t-21 -38
q0 -24 27 -35.5t91 -18.5q162 -18 162 -143zM225 -285h-59l37 98h-34v131h129v-126z" />
    <glyph glyph-name="schwa" unicode="&#x259;" horiz-adv-x="507" 
d="M37 280h313q2 53 -27 85.5t-79 32.5q-60 0 -112 -46l-70 78q75 71 186 71q43 0 79 -11.5t69 -38t52 -78.5t19 -124q0 -132 -64 -193.5t-153 -61.5q-99 0 -156 64t-57 172v50zM252 96q39 0 65 27.5t30 75.5h-190q4 -49 29.5 -76t65.5 -27z" />
    <glyph glyph-name="primemod" unicode="&#x2b9;" horiz-adv-x="276" 
d="M153 723l122 -39l-145 -289l-83 27z" />
    <glyph glyph-name="circumflex" unicode="&#x2c6;" horiz-adv-x="504" 
d="M392 537l-139 105q-10 -7 -68 -51.5t-72 -53.5l-46 43l149 154h78l146 -153z" />
    <glyph glyph-name="caron" unicode="&#x2c7;" horiz-adv-x="504" 
d="M253 629l139 105l48 -44l-146 -153h-78l-149 154l46 43q14 -9 72 -53.5t68 -51.5z" />
    <glyph glyph-name="breve" unicode="&#x2d8;" horiz-adv-x="522" 
d="M268 564q-75 0 -110.5 45.5t-39.5 100.5h87q1 -23 18 -44.5t45 -21.5q30 0 47 21t17 45h86q-2 -19 -7 -37t-16 -38.5t-27 -35.5t-42 -25t-58 -10z" />
    <glyph glyph-name="dotaccent" unicode="&#x2d9;" horiz-adv-x="414" 
d="M268 583h-118v109h118v-109z" />
    <glyph glyph-name="ring" unicode="&#x2da;" horiz-adv-x="504" 
d="M323 643q0 19 -13.5 32.5t-33.5 13.5t-34 -13.5t-14 -32.5t14 -32.5t34 -13.5q19 0 33 13.5t14 32.5zM164 643q0 45 32.5 76.5t79.5 31.5q46 0 78.5 -31.5t32.5 -76.5q0 -44 -32.5 -75.5t-78.5 -31.5t-79 31.5t-33 75.5z" />
    <glyph glyph-name="ogonek" unicode="&#x2db;" horiz-adv-x="288" 
d="M57 -98q0 41 42 101h73l2 -3q-38 -52 -38 -83q0 -35 40 -35q27 0 61 14l23 -60q-46 -27 -97 -27q-46 0 -76 27t-30 66z" />
    <glyph glyph-name="tilde" unicode="&#x2dc;" horiz-adv-x="504" 
d="M189 705q27 0 73 -24t60 -24q31 0 64 47l60 -35q-46 -99 -114 -99q-27 0 -74 23t-64 23q-33 0 -69 -45l-57 33q49 101 121 101z" />
    <glyph glyph-name="hungarumlaut" unicode="&#x2dd;" horiz-adv-x="570" 
d="M219 544l-68 25l79 190l107 -34zM378 544l-68 25l78 190l107 -34z" />
    <glyph glyph-name="tonos" unicode="&#x384;" horiz-adv-x="504" 
d="M256 544l-68 25l79 190l107 -34z" />
    <glyph glyph-name="dieresistonos" unicode="&#x385;" horiz-adv-x="502" 
d="M458 579h-118v110h118v-110zM155 579h-117v110h117v-110zM233 544l-68 25l79 190l107 -34z" />
    <glyph glyph-name="Alphatonos" unicode="&#x386;" horiz-adv-x="629" 
d="M626 0h-128l-55 154h-258l-56 -154h-127l263 696h98zM407 257l-46 141l-46 143h-3l-45 -140l-47 -144h187zM15 519l-68 25l79 190l107 -34z" />
    <glyph glyph-name="anoteleia" unicode="&#x387;" horiz-adv-x="271" 
d="M202 276h-136v139h136v-139z" />
    <glyph glyph-name="Epsilontonos" unicode="&#x388;" horiz-adv-x="564" 
d="M539 0h-466v696h466v-110h-345v-182h294v-106h-294v-188h345v-110zM-89 519l-68 25l79 190l107 -34z" />
    <glyph glyph-name="Etatonos" unicode="&#x389;" horiz-adv-x="655" 
d="M582 0h-120v298h-268v-298h-121v696h121v-292h268v292h120v-696zM-82 519l-68 25l79 190l107 -34z" />
    <glyph glyph-name="Iotatonos" unicode="&#x38a;" horiz-adv-x="268" 
d="M196 0h-122v696h122v-696zM-84 519l-68 25l79 190l107 -34z" />
    <glyph glyph-name="Omicrontonos" unicode="&#x38c;" horiz-adv-x="610" 
d="M304 701q118 0 189 -74t71 -190v-178q0 -121 -70.5 -193t-189.5 -72q-124 0 -191.5 76t-67.5 189v178q0 112 67.5 188t191.5 76zM304 587q-66 0 -101.5 -42.5t-35.5 -101.5v-187q0 -62 35.5 -105.5t101.5 -43.5q62 0 99.5 42t37.5 107v187q0 61 -37 102.5t-100 41.5z
M-66 519l-68 25l79 190l107 -34z" />
    <glyph glyph-name="Upsilontonos" unicode="&#x38e;" horiz-adv-x="557" 
d="M553 696q-144 -274 -217 -410v-286h-115v286q-40 74 -113 213t-104 197h129l84 -172q21 -44 61 -134h2l62 137l83 169h128zM-139 519l-68 25l79 190l107 -34z" />
    <glyph glyph-name="Omegatonos" unicode="&#x38f;" horiz-adv-x="604" 
d="M345 120q92 22 92 167v156q0 62 -37 104t-101 42q-67 0 -102 -43t-35 -103v-156q0 -140 94 -168v-119h-230v109h74v1l1 2q-60 45 -60 171v154q0 112 67 188t191 76q118 0 189 -74t71 -190v-154q0 -117 -61 -173q1 0 1 -1h76v-109h-230v120zM-64 519l-68 25l79 190
l107 -34z" />
    <glyph glyph-name="iotadieresistonos" unicode="&#x390;" horiz-adv-x="263" 
d="M229 89l-2 -93q-12 -1 -35 -1q-76 0 -101.5 34.5t-25.5 98.5v367h112v-360q0 -27 10 -36.5t42 -9.5zM345 579h-118v110h118v-110zM42 579h-117v110h117v-110zM120 544l-68 25l79 190l107 -34z" />
    <glyph glyph-name="Alpha" unicode="&#x391;" horiz-adv-x="629" 
d="M626 0h-128l-55 154h-258l-56 -154h-127l263 696h98zM407 257l-46 141l-46 143h-3l-45 -140l-47 -144h187z" />
    <glyph glyph-name="Beta" unicode="&#x392;" horiz-adv-x="618" 
d="M582 200q0 -88 -59.5 -144t-144.5 -56h-305v696h278q104 0 161 -52t57 -138q0 -100 -96 -143v-4q51 -15 80 -61.5t29 -97.5zM443 499q0 40 -27.5 64.5t-80.5 24.5h-141v-181h141q53 0 80.5 26t27.5 66zM459 207q0 41 -28 69.5t-82 28.5h-155v-195h155q54 0 82 28t28 69z
" />
    <glyph glyph-name="Gamma" unicode="&#x393;" horiz-adv-x="545" 
d="M539 586h-345v-586h-121v696h466v-110z" />
    <glyph glyph-name="Delta" unicode="&#x394;" horiz-adv-x="630" 
d="M625 0h-623l262 696h99zM460 105q-11 33 -97 293l-47 150h-5q-33 -108 -39 -127q-46 -147 -106 -316h294z" />
    <glyph glyph-name="Delta" unicode="&#x2206;" horiz-adv-x="630" 
d="M625 0h-623l262 696h99zM460 105q-11 33 -97 293l-47 150h-5q-33 -108 -39 -127q-46 -147 -106 -316h294z" />
    <glyph glyph-name="Epsilon" unicode="&#x395;" horiz-adv-x="564" 
d="M539 0h-466v696h466v-110h-345v-182h294v-106h-294v-188h345v-110z" />
    <glyph glyph-name="Zeta" unicode="&#x396;" horiz-adv-x="527" 
d="M497 0h-467v104l323 485h-310v107h454v-99l-323 -486h323v-111z" />
    <glyph glyph-name="Eta" unicode="&#x397;" horiz-adv-x="655" 
d="M582 0h-120v298h-268v-298h-121v696h121v-292h268v292h120v-696z" />
    <glyph glyph-name="Theta" unicode="&#x398;" horiz-adv-x="602" 
d="M300 701q118 0 189 -74t71 -190v-178q0 -121 -70.5 -193t-189.5 -72q-124 0 -191.5 76t-67.5 189v178q0 112 67.5 188t191.5 76zM300 586q-66 0 -101.5 -42.5t-35.5 -101.5v-185q0 -62 35.5 -105.5t101.5 -43.5q62 0 99.5 42t37.5 107v185q0 61 -37 102.5t-100 41.5z
M407 401v-100h-213v100h213z" />
    <glyph glyph-name="Iota" unicode="&#x399;" horiz-adv-x="268" 
d="M196 0h-122v696h122v-696z" />
    <glyph glyph-name="Kappa" unicode="&#x39a;" horiz-adv-x="638" 
d="M645 0h-143l-195 324l-113 -131v-193h-121v696h122v-337l2 -1l117 143l164 195h144l-235 -278z" />
    <glyph glyph-name="Lambda" unicode="&#x39b;" horiz-adv-x="618" 
d="M621 0h-128q-9 26 -37.5 107t-32.5 94q-23 61 -113 322h-3q-25 -73 -68.5 -196.5t-43.5 -124.5q-9 -26 -71 -202h-127l262 696h99z" />
    <glyph glyph-name="Mu" unicode="&#x39c;" horiz-adv-x="765" 
d="M702 0h-121v413h-3l-37 -89l-51 -112l-54 -114h-97l-40 85l-66 146l-36 85l-3 -3v-411h-121v696h113l91 -199q29 -63 109 -250h4l56 133l51 117l89 199h116v-696z" />
    <glyph glyph-name="Nu" unicode="&#x39d;" horiz-adv-x="692" 
d="M621 0h-112l-215 324l-97 159l-3 -1v-482h-121v696h112l195 -296l118 -188l2 2v482h121v-696z" />
    <glyph glyph-name="Xi" unicode="&#x39e;" horiz-adv-x="589" 
d="M530 586h-475v110h475v-110zM478 298h-371v106h371v-106zM533 0h-480v110h480v-110z" />
    <glyph glyph-name="Omicron" unicode="&#x39f;" horiz-adv-x="610" 
d="M304 701q118 0 189 -74t71 -190v-178q0 -121 -70.5 -193t-189.5 -72q-124 0 -191.5 76t-67.5 189v178q0 112 67.5 188t191.5 76zM304 587q-66 0 -101.5 -42.5t-35.5 -101.5v-187q0 -62 35.5 -105.5t101.5 -43.5q62 0 99.5 42t37.5 107v187q0 61 -37 102.5t-100 41.5z" />
    <glyph glyph-name="Pi" unicode="&#x3a0;" horiz-adv-x="655" 
d="M582 0h-120v588h-268v-588h-121v696h509v-696z" />
    <glyph glyph-name="Rho" unicode="&#x3a1;" horiz-adv-x="591" 
d="M581 478q0 -86 -64.5 -148.5t-163.5 -62.5h-159v-267h-121v696h271q103 0 170 -57t67 -161zM457 481q0 52 -31 78.5t-85 26.5h-147v-209h151q51 0 81.5 30t30.5 74z" />
    <glyph glyph-name="Sigma" unicode="&#x3a3;" horiz-adv-x="527" 
d="M497 0h-467v110l161 247l-161 235v104h454v-108h-309l159 -230l-159 -246h322v-112z" />
    <glyph glyph-name="Tau" unicode="&#x3a4;" horiz-adv-x="521" 
d="M513 588h-194v-588h-121v588h-193v108h508v-108z" />
    <glyph glyph-name="Upsilon" unicode="&#x3a5;" horiz-adv-x="557" 
d="M553 696q-144 -274 -217 -410v-286h-115v286q-40 74 -113 213t-104 197h129l84 -172q21 -44 61 -134h2l62 137l83 169h128z" />
    <glyph glyph-name="Phi" unicode="&#x3a6;" horiz-adv-x="758" 
d="M717 354q0 -126 -74.5 -208t-206.5 -86v-60h-116v60q-135 10 -206.5 89t-71.5 205q0 127 72.5 211.5t205.5 90.5v40h116v-40q143 -9 212.5 -89t68.5 -213zM436 559v-402q164 7 164 198q0 86 -39 143.5t-125 60.5zM320 559q-82 -7 -122 -63t-39 -141q0 -86 40 -138
t121 -60v402z" />
    <glyph glyph-name="Chi" unicode="&#x3a7;" horiz-adv-x="576" 
d="M575 0h-136l-152 257l-151 -257h-136l225 356l-212 340h137l137 -240l138 240h136l-211 -340z" />
    <glyph glyph-name="Psi" unicode="&#x3a8;" horiz-adv-x="750" 
d="M689 384q0 -104 -71.5 -169.5t-182.5 -73.5v-141h-121v141q-112 7 -183.5 75t-71.5 177v303h119v-295q0 -63 38 -103.5t98 -45.5v444h121v-444q60 4 98 40.5t38 98.5v305h118v-312z" />
    <glyph glyph-name="Omega" unicode="&#x3a9;" horiz-adv-x="604" 
d="M345 120q92 22 92 167v156q0 62 -37 104t-101 42q-67 0 -102 -43t-35 -103v-156q0 -140 94 -168v-119h-230v109h74v1l1 2q-60 45 -60 171v154q0 112 67 188t191 76q118 0 189 -74t71 -190v-154q0 -117 -61 -173q1 0 1 -1h76v-109h-230v120z" />
    <glyph glyph-name="Iotadieresis" unicode="&#x3aa;" horiz-adv-x="268" 
d="M196 0h-122v696h122v-696zM291 757h-120v111h120v-111zM94 757h-121v111h121v-111z" />
    <glyph glyph-name="Upsilondieresis" unicode="&#x3ab;" horiz-adv-x="557" 
d="M553 696q-144 -274 -217 -410v-286h-115v286q-40 74 -113 213t-104 197h129l84 -172q21 -44 61 -134h2l62 137l83 169h128zM239 757h-121v111h121v-111zM436 757h-120v111h120v-111z" />
    <glyph glyph-name="alphatonos" unicode="&#x3ac;" horiz-adv-x="519" 
d="M45 240q0 259 189 259q71 0 111 -49l2 1v44h113v-495h-113v47l-2 1q-49 -54 -116 -54q-184 0 -184 246zM161 246q0 -30 3 -51.5t11.5 -45t28.5 -36t51 -12.5q92 0 92 145q0 148 -92 148q-31 0 -51 -13t-29 -37.5t-11.5 -46t-2.5 -51.5zM260 544l-68 25l79 190l107 -34z
" />
    <glyph glyph-name="epsilontonos" unicode="&#x3ad;" horiz-adv-x="458" 
d="M441 69q-78 -74 -198 -74q-90 0 -144 40t-54 111q0 29 18.5 62t54.5 48v2q-34 11 -50 38t-16 57q0 63 51 105t142 42q118 0 187 -69l-69 -80q-44 44 -113 44q-34 0 -58.5 -14.5t-24.5 -38.5q0 -45 68 -45h72v-88h-74q-35 0 -54.5 -15t-19.5 -39q0 -23 24 -39.5t69 -16.5
q74 0 116 48zM254 544l-68 25l79 190l107 -34z" />
    <glyph glyph-name="etatonos" unicode="&#x3ae;" horiz-adv-x="538" 
d="M474 0h-112v294q0 100 -91 100q-42 0 -69 -27t-27 -73v-294h-113v496h113v-52h3q23 26 58.5 41t70.5 15q78 0 122.5 -45t44.5 -130v-325zM256 544l-68 25l79 190l107 -34z" />
    <glyph glyph-name="iotatonos" unicode="&#x3af;" horiz-adv-x="263" 
d="M229 89l-2 -93q-12 -1 -35 -1q-76 0 -101.5 34.5t-25.5 98.5v367h112v-360q0 -27 10 -36.5t42 -9.5zM138 544l-68 25l79 190l107 -34z" />
    <glyph glyph-name="upsilondieresistonos" unicode="&#x3b0;" horiz-adv-x="540" 
d="M477 178q0 -82 -58 -132.5t-149 -50.5q-89 0 -147.5 51t-58.5 132v317h113v-294q0 -46 26.5 -73t67.5 -27t67 27t26 73v294h113v-317zM481 579h-118v110h118v-110zM178 579h-117v110h117v-110zM256 544l-68 25l79 190l107 -34z" />
    <glyph glyph-name="alpha" unicode="&#x3b1;" horiz-adv-x="519" 
d="M45 240q0 259 189 259q71 0 111 -49l2 1v44h113v-495h-113v47l-2 1q-49 -54 -116 -54q-184 0 -184 246zM161 246q0 -30 3 -51.5t11.5 -45t28.5 -36t51 -12.5q92 0 92 145q0 148 -92 148q-31 0 -51 -13t-29 -37.5t-11.5 -46t-2.5 -51.5z" />
    <glyph glyph-name="beta" unicode="&#x3b2;" horiz-adv-x="530" 
d="M484 230q0 -49 -10 -89.5t-31 -74.5t-58 -52.5t-88 -18.5q-77 0 -122 51h-2v-198h-112v640q0 237 196 237q97 0 145.5 -53.5t48.5 -118.5q0 -40 -17 -78.5t-53 -58.5v-1q103 -26 103 -185zM365 248q-2 112 -88 112h-58v91h46q38 0 56 27.5t18 61.5q0 36 -21.5 63
t-60.5 27q-45 0 -64.5 -29.5t-19.5 -71.5v-287q0 -29 3 -51t12 -46t29 -37t51 -13q97 0 97 153z" />
    <glyph glyph-name="gamma" unicode="&#x3b3;" horiz-adv-x="481" 
d="M354 495h123q-115 -292 -177 -477v-218h-112v196q-56 194 -119 355q-13 33 -21 41t-30 8h-7l-8 92q38 11 65 11q41 0 62 -23.5t41 -77.5q32 -90 72 -218h5q71 219 106 311z" />
    <glyph glyph-name="delta" unicode="&#x3b4;" horiz-adv-x="504" 
d="M264 726q94 0 172 -42l-44 -92q-60 34 -120 34q-67 0 -67 -44q0 -36 85 -78q36 -19 54 -29.5t43.5 -31t39.5 -41.5q37 -56 37 -162q0 -92 -35 -151q-57 -95 -183 -95q-118 0 -169 76q-40 57 -40 160q0 92 25 139q13 28 37.5 53.5t54.5 37.5q-32 20 -50 51t-18 64
q0 70 50.5 110.5t127.5 40.5zM251 405q-65 -10 -87 -67q-13 -30 -15 -97q0 -60 15 -93q24 -52 85 -52q72 0 93 71q8 28 8 86q0 50 -13 81q-23 56 -86 71z" />
    <glyph glyph-name="epsilon" unicode="&#x3b5;" horiz-adv-x="458" 
d="M441 69q-78 -74 -198 -74q-90 0 -144 40t-54 111q0 29 18.5 62t54.5 48v2q-34 11 -50 38t-16 57q0 63 51 105t142 42q118 0 187 -69l-69 -80q-44 44 -113 44q-34 0 -58.5 -14.5t-24.5 -38.5q0 -45 68 -45h72v-88h-74q-35 0 -54.5 -15t-19.5 -39q0 -23 24 -39.5t69 -16.5
q74 0 116 48z" />
    <glyph glyph-name="zeta" unicode="&#x3b6;" horiz-adv-x="418" 
d="M156 218q0 -45 25.5 -68.5t83.5 -48.5q103 -38 136.5 -62.5t33.5 -68.5q0 -24 -17 -58t-32.5 -55.5t-42.5 -55.5l-81 45q14 19 32 50.5t18 45.5q0 21 -46 39q-34 13 -52 20t-46.5 20.5t-44 24.5t-34.5 28.5t-28.5 36.5t-16.5 44.5t-7 55.5q0 88 78 203t194 198h-235v99
h391v-88q-134 -99 -221.5 -211t-87.5 -194z" />
    <glyph glyph-name="eta" unicode="&#x3b7;" horiz-adv-x="538" 
d="M474 0h-112v294q0 100 -91 100q-42 0 -69 -27t-27 -73v-294h-113v496h113v-52h3q23 26 58.5 41t70.5 15q78 0 122.5 -45t44.5 -130v-325z" />
    <glyph glyph-name="theta" unicode="&#x3b8;" horiz-adv-x="519" 
d="M267 729q113 0 165 -85q45 -71 45 -275q0 -202 -43 -279q-25 -46 -72.5 -71.5t-105.5 -25.5q-115 0 -168 80q-46 69 -45 290q0 177 36 251q52 115 188 115zM350 165q19 79 17 167h-215q-3 -122 21 -184q22 -56 86 -56q71 0 91 73zM263 632q-59 0 -86 -57
q-22 -43 -25 -154h215q0 89 -21 152q-9 28 -31.5 43.5t-51.5 15.5z" />
    <glyph glyph-name="iota" unicode="&#x3b9;" horiz-adv-x="263" 
d="M229 89l-2 -93q-12 -1 -35 -1q-76 0 -101.5 34.5t-25.5 98.5v367h112v-360q0 -27 10 -36.5t42 -9.5z" />
    <glyph glyph-name="kappa" unicode="&#x3ba;" horiz-adv-x="520" 
d="M523 0h-134q-25 37 -72 111t-71 111q-1 -2 -28.5 -31t-41.5 -45v-146h-112v495h112v-204h3l96 108l87 96h137l-179 -193q17 -25 90 -134.5t113 -167.5z" />
    <glyph glyph-name="lambda" unicode="&#x3bb;" horiz-adv-x="479" 
d="M480 83l3 -84q-25 -6 -55 -6q-71 0 -94 60q-8 17 -15 42q-17 57 -41 130q-22 74 -34 111h-4l-43 -128q-47 -139 -73 -208h-118l183 487l-27 91q-9 30 -22.5 41.5t-44.5 11.5q-14 0 -22 -1l-6 93q36 9 64 9q48 0 77.5 -22t47.5 -67q3 -7 15 -43q27 -79 78.5 -238.5
t77.5 -239.5q8 -24 17.5 -31.5t35.5 -7.5z" />
    <glyph glyph-name="nu" unicode="&#x3bd;" horiz-adv-x="477" 
d="M473 495l-189 -495h-90l-190 495h121l58 -169l55 -169h2l54 168l58 170h121z" />
    <glyph glyph-name="xi" unicode="&#x3be;" horiz-adv-x="426" 
d="M402 586q-60 39 -126 39q-51 0 -79 -28.5t-28 -66.5q0 -43 34.5 -70.5t86.5 -27.5h92v-93h-118q-50 0 -82 -36t-32 -85q0 -42 25 -67t71 -42q126 -45 158.5 -66.5t32.5 -70.5q0 -61 -89 -171q-27 16 -81 46q2 4 15 25t22.5 40t9.5 28q0 25 -45 41q-10 4 -40 14t-42.5 15
t-39 17t-39 21.5t-30.5 27t-27 35.5t-15.5 44t-6.5 56q0 45 27.5 96.5t85.5 80.5q-33 13 -54.5 41t-29 53t-7.5 49q0 86 63 141t155 55q111 0 186 -53q-36 -58 -53 -88z" />
    <glyph glyph-name="omicron" unicode="&#x3bf;" horiz-adv-x="515" 
d="M264 501q116 0 172 -83q38 -59 36 -163q0 -109 -34 -168q-28 -46 -77 -70t-109 -24q-118 0 -171 78q-41 61 -39 176q0 89 25 140q25 54 77 84t120 30zM260 399q-61 0 -87 -56q-15 -33 -17 -97q0 -65 15 -95q24 -55 84 -55q71 0 93 71q9 29 9 88q0 58 -13 87
q-22 57 -84 57z" />
    <glyph glyph-name="pi" unicode="&#x3c0;" horiz-adv-x="536" 
d="M473 0h-113v398h-187v-398h-113v495h413v-495z" />
    <glyph glyph-name="rho" unicode="&#x3c1;" horiz-adv-x="521" 
d="M277 -5q-67 0 -108 44l-3 -2v-237h-113v447q2 94 22 139q25 55 76 85t118 30q115 0 172 -84q38 -57 38 -172q0 -97 -36 -157q-56 -93 -166 -93zM266 399q-58 0 -85 -56q-14 -31 -16 -97q0 -64 14 -95q26 -55 82 -55q71 0 93 71q9 29 9 80q1 61 -13 95q-22 57 -84 57z" />
    <glyph glyph-name="sigma1" unicode="&#x3c2;" horiz-adv-x="456" 
d="M395 350q-47 44 -104 44q-59 0 -92.5 -38t-33.5 -111q0 -50 19 -82t66 -51q40 -16 57 -23t44 -20t38 -21t24 -20.5t17.5 -25.5t4.5 -29q0 -61 -84 -161l-81 45q12 16 27 44.5t15 40.5q0 26 -46 42q-120 42 -167.5 95t-47.5 160q0 127 67 194.5t164 67.5q108 0 183 -69
q-12 -13 -35 -41t-35 -41z" />
    <glyph glyph-name="sigma" unicode="&#x3c3;" horiz-adv-x="520" 
d="M410 404q31 -33 44 -67.5t13 -92.5q0 -74 -23 -132q-25 -58 -76.5 -88t-118.5 -30q-114 0 -165 74q-45 64 -45 178q2 70 20 117q24 63 74.5 97.5t123.5 34.5h241v-91h-88zM254 393q-51 0 -78 -46q-21 -36 -23 -101q0 -71 25 -110t74 -39q71 0 91 75q9 32 9 73
q0 69 -22 104q-26 44 -76 44z" />
    <glyph glyph-name="tau" unicode="&#x3c4;" horiz-adv-x="372" 
d="M354 404h-119v-248q0 -55 46 -55h41v-101h-72q-57 0 -92.5 33t-35.5 92v279h-107v91h339v-91z" />
    <glyph glyph-name="upsilon" unicode="&#x3c5;" horiz-adv-x="540" 
d="M477 178q0 -82 -58 -132.5t-149 -50.5q-89 0 -147.5 51t-58.5 132v317h113v-294q0 -46 26.5 -73t67.5 -27t67 27t26 73v294h113v-317z" />
    <glyph glyph-name="phi" unicode="&#x3c6;" horiz-adv-x="643" 
d="M264 -199v194q-130 5 -183 79q-41 56 -41 173q0 71 16 121.5t61 86.5q31 24 63 34l37 -99q-38 -15 -52 -49q-12 -28 -12 -95q0 -49 11 -82q12 -32 38 -50.5t62 -18.5v405h115q55 0 107 -20.5t81 -67.5q35 -56 35 -165q0 -111 -37 -164q-55 -80 -188 -88v-194h-113z
M377 398v-302q37 0 65 19t39 53q8 26 8 80q0 69 -13 98q-25 52 -99 52z" />
    <glyph glyph-name="chi" unicode="&#x3c7;" horiz-adv-x="501" 
d="M490 0h-136l-104 167l-103 -167h-136l180 253l-172 242h135l96 -160l97 160h135l-172 -243z" />
    <glyph glyph-name="psi" unicode="&#x3c8;" horiz-adv-x="669" 
d="M609 193q0 -91 -65 -142t-154 -56v-196h-112v197q-88 4 -152 55.5t-64 139.5v304h113v-284q0 -53 29.5 -81t73.5 -31v416h112v-416q46 3 76 30.5t30 81.5v284h113v-302z" />
    <glyph glyph-name="omega" unicode="&#x3c9;" horiz-adv-x="755" 
d="M513 394l15 106q189 -9 189 -252q0 -252 -196 -252q-92 0 -139 74h-2q-53 -75 -136 -75q-202 0 -202 252q0 240 190 253l15 -106q-50 -7 -71 -44t-21 -106q0 -59 26.5 -99t74.5 -40q30 0 48 26.5t18 66.5v157h110v-157q0 -42 23.5 -70.5t63.5 -28.5q84 0 84 146
q0 70 -20 107t-70 42z" />
    <glyph glyph-name="iotadieresis" unicode="&#x3ca;" horiz-adv-x="263" 
d="M229 89l-2 -93q-12 -1 -35 -1q-76 0 -101.5 34.5t-25.5 98.5v367h112v-360q0 -27 10 -36.5t42 -9.5zM274 583h-118v109h118v-109zM75 583h-119v109h119v-109z" />
    <glyph glyph-name="upsilondieresis" unicode="&#x3cb;" horiz-adv-x="540" 
d="M477 178q0 -82 -58 -132.5t-149 -50.5q-89 0 -147.5 51t-58.5 132v317h113v-294q0 -46 26.5 -73t67.5 -27t67 27t26 73v294h113v-317zM425 583h-118v109h118v-109zM226 583h-119v109h119v-109z" />
    <glyph glyph-name="omicrontonos" unicode="&#x3cc;" horiz-adv-x="515" 
d="M264 501q116 0 172 -83q38 -59 36 -163q0 -109 -34 -168q-28 -46 -77 -70t-109 -24q-118 0 -171 78q-41 61 -39 176q0 89 25 140q25 54 77 84t120 30zM260 399q-61 0 -87 -56q-15 -33 -17 -97q0 -65 15 -95q24 -55 84 -55q71 0 93 71q9 29 9 88q0 58 -13 87
q-22 57 -84 57zM264 544l-68 25l79 190l107 -34z" />
    <glyph glyph-name="upsilontonos" unicode="&#x3cd;" horiz-adv-x="540" 
d="M477 178q0 -82 -58 -132.5t-149 -50.5q-89 0 -147.5 51t-58.5 132v317h113v-294q0 -46 26.5 -73t67.5 -27t67 27t26 73v294h113v-317zM276 544l-68 25l79 190l107 -34z" />
    <glyph glyph-name="omegatonos" unicode="&#x3ce;" horiz-adv-x="755" 
d="M513 394l15 106q189 -9 189 -252q0 -252 -196 -252q-92 0 -139 74h-2q-53 -75 -136 -75q-202 0 -202 252q0 240 190 253l15 -106q-50 -7 -71 -44t-21 -106q0 -59 26.5 -99t74.5 -40q30 0 48 26.5t18 66.5v157h110v-157q0 -42 23.5 -70.5t63.5 -28.5q84 0 84 146
q0 70 -20 107t-70 42zM386 544l-68 25l79 190l107 -34z" />
    <glyph glyph-name="afii10023" unicode="&#x401;" horiz-adv-x="564" 
d="M539 0h-466v696h466v-110h-345v-182h294v-106h-294v-188h345v-110zM465 757h-120v111h120v-111zM268 757h-121v111h121v-111z" />
    <glyph glyph-name="afii10051" unicode="&#x402;" horiz-adv-x="743" 
d="M316 414h3q28 26 72 41.5t86 15.5q95 0 158 -60t63 -176q0 -117 -62.5 -187.5t-190.5 -70.5q-19 0 -30 1v97q75 -1 117.5 38t42.5 117q0 62 -34.5 98t-90.5 36q-76 0 -134 -61v-303h-121v591h-191v105h565v-105h-253v-177z" />
    <glyph glyph-name="afii10052" unicode="&#x403;" horiz-adv-x="545" 
d="M539 586h-345v-586h-121v696h466v-110zM251 735l-47 56l165 125l74 -84z" />
    <glyph glyph-name="afii10053" unicode="&#x404;" horiz-adv-x="572" 
d="M436 204l115 -48q-26 -76 -90 -119t-154 -43q-126 0 -192.5 74t-66.5 191v178q0 112 67.5 188t191.5 76q89 0 152.5 -43.5t90.5 -118.5l-114 -45q-13 42 -46.5 67t-82.5 25q-66 0 -101.5 -42.5t-35.5 -101.5v-38h215v-106h-215v-41q0 -62 35.5 -105.5t101.5 -43.5
q48 0 82 26t47 70z" />
    <glyph glyph-name="afii10054" unicode="&#x405;" horiz-adv-x="569" 
d="M518 637l-60 -100q-79 52 -172 52q-60 0 -89 -24t-29 -64q0 -41 36.5 -59.5t133.5 -35.5q44 -8 76 -19.5t63.5 -33t48.5 -58.5t17 -89q0 -98 -75.5 -155t-186.5 -57q-168 0 -276 96l73 94q84 -77 209 -77q59 0 94 24.5t35 70.5q0 41 -30.5 63t-96.5 32q-43 6 -72.5 12.5
t-64 21t-55.5 34.5t-35 53.5t-14 78.5q0 98 69.5 151.5t166.5 53.5q143 0 234 -65z" />
    <glyph glyph-name="afii10055" unicode="&#x406;" horiz-adv-x="268" 
d="M196 0h-122v696h122v-696z" />
    <glyph glyph-name="afii10056" unicode="&#x407;" horiz-adv-x="268" 
d="M196 0h-122v696h122v-696zM287 762h-118v109h118v-109zM88 762h-119v109h119v-109z" />
    <glyph glyph-name="afii10057" unicode="&#x408;" horiz-adv-x="489" 
d="M424 224q0 -121 -64 -175t-165 -54q-113 0 -190 86l86 79q51 -54 101 -54q111 0 111 122v468h121v-472z" />
    <glyph glyph-name="afii10058" unicode="&#x409;" horiz-adv-x="949" 
d="M142 338v358h397v-284h162q106 0 167 -58.5t61 -140.5q0 -100 -66.5 -156.5t-170.5 -56.5h-274v588h-161v-248q0 -169 -51.5 -256t-172.5 -97l-22 100q75 21 103 72.5t28 178.5zM805 209q0 39 -28.5 67t-82.5 28h-155v-194h153q52 0 82.5 27.5t30.5 71.5z" />
    <glyph glyph-name="afii10059" unicode="&#x40a;" horiz-adv-x="941" 
d="M687 0h-275v302h-222v-302h-121v696h121v-284h222v284h121v-284h156q108 0 171 -57t63 -143q0 -102 -65.5 -157t-170.5 -55zM799 208q0 39 -29.5 66.5t-84.5 27.5h-152v-192h152q54 0 84 26t30 72z" />
    <glyph glyph-name="afii10060" unicode="&#x40b;" horiz-adv-x="749" 
d="M689 0h-121v250q0 56 -25 86t-89 30q-72 0 -138 -60v-306h-121v591h-190v105h565v-105h-254v-176h3q73 58 168 58q92 0 147 -48.5t55 -136.5v-288z" />
    <glyph glyph-name="afii10061" unicode="&#x40c;" horiz-adv-x="615" 
d="M192 0h-121v696h121v-291h91q96 0 127 102l60 187h118l-63 -203q-32 -108 -99 -131q41 -13 66 -47t41 -90l67 -223h-126l-57 193q-19 63 -51 85.5t-78 22.5h-96v-301zM254 735l-47 56l165 125l74 -84z" />
    <glyph glyph-name="afii10062" unicode="&#x40e;" horiz-adv-x="569" 
d="M109 -14v104h47q45 0 67 46l7 18l-211 542h132l75 -220l64 -180h5l58 178l74 222h128l-202 -542q-35 -95 -74 -131.5t-105 -36.5h-65zM293 701q-75 0 -110.5 45.5t-39.5 100.5h87q1 -23 18 -44.5t45 -21.5q30 0 47 21t17 45h86q-2 -19 -7 -37t-16 -38.5t-27 -35.5
t-42 -25t-58 -10z" />
    <glyph glyph-name="afii10145" unicode="&#x40f;" horiz-adv-x="655" 
d="M462 696h120v-696h-195v-171h-117v171h-197v696h121v-586h268v586z" />
    <glyph glyph-name="afii10017" unicode="&#x410;" horiz-adv-x="629" 
d="M626 0h-128l-55 154h-258l-56 -154h-127l263 696h98zM407 257l-46 141l-46 143h-3l-45 -140l-47 -144h187z" />
    <glyph glyph-name="afii10018" unicode="&#x411;" horiz-adv-x="603" 
d="M340 0h-276v696h441v-110h-320v-174h156q110 0 172.5 -57t62.5 -143q0 -101 -66 -156.5t-170 -55.5zM452 207q0 40 -29 67.5t-85 27.5h-153v-193h153q54 0 84 26.5t30 71.5z" />
    <glyph glyph-name="afii10019" unicode="&#x412;" horiz-adv-x="618" 
d="M582 200q0 -88 -59.5 -144t-144.5 -56h-305v696h278q104 0 161 -52t57 -138q0 -100 -96 -143v-4q51 -15 80 -61.5t29 -97.5zM443 499q0 40 -27.5 64.5t-80.5 24.5h-141v-181h141q53 0 80.5 26t27.5 66zM459 207q0 41 -28 69.5t-82 28.5h-155v-195h155q54 0 82 28t28 69z
" />
    <glyph glyph-name="afii10020" unicode="&#x413;" horiz-adv-x="545" 
d="M539 586h-345v-586h-121v696h466v-110z" />
    <glyph glyph-name="afii10021" unicode="&#x414;" horiz-adv-x="732" 
d="M20 97q21 4 65 14q45 35 59.5 91t20.5 202l12 292h459q0 -98 0.5 -294.5t0.5 -294.5h67v-262h-107v155h-469v-155h-108v252zM516 588h-233q-2 -57 -8 -187q-3 -81 -6 -121t-14.5 -92t-31.5 -81h293v481z" />
    <glyph glyph-name="afii10022" unicode="&#x415;" horiz-adv-x="564" 
d="M539 0h-466v696h466v-110h-345v-182h294v-106h-294v-188h345v-110z" />
    <glyph glyph-name="afii10024" unicode="&#x416;" horiz-adv-x="953" 
d="M416 0v301h-84q-46 0 -77.5 -22t-51.5 -86l-57 -193h-126l67 223q16 56 41 90t66 47q-69 24 -99 131l-63 203h118l60 -187q13 -43 36 -67t43.5 -29.5t47.5 -5.5h79v292h121v-292h79q27 0 47.5 5.5t43.5 29.5t36 67l60 187h118l-63 -203q-30 -107 -99 -131q41 -13 66 -47
t41 -90l67 -223h-126l-57 193q-20 64 -51.5 86t-77.5 22h-84v-301h-121z" />
    <glyph glyph-name="afii10025" unicode="&#x417;" horiz-adv-x="576" 
d="M275 -5q-93 0 -162 41.5t-97 114.5l112 50q15 -40 57 -67.5t91 -27.5q59 0 96.5 28.5t37.5 77.5q0 47 -30.5 74.5t-83.5 27.5h-81v103h83q47 0 76.5 24.5t29.5 63.5q0 40 -32 61.5t-81 21.5t-88.5 -24t-58.5 -64l-106 53q31 69 96 109t157 40q109 0 172 -49t63 -135
q0 -43 -24 -85t-77 -63q0 -1 0.5 -2.5t0.5 -2.5q58 -18 83 -64t25 -95q0 -97 -73.5 -154t-185.5 -57z" />
    <glyph glyph-name="afii10026" unicode="&#x418;" horiz-adv-x="692" 
d="M184 0h-111v696h120v-492q1 -1 3 -1l162 249l162 244h101v-696h-121v472h-3l-138 -213q-156 -231 -175 -259z" />
    <glyph glyph-name="afii10027" unicode="&#x419;" horiz-adv-x="692" 
d="M184 0h-111v696h120v-492q1 -1 3 -1l162 249l162 244h101v-696h-121v472h-3l-138 -213q-156 -231 -175 -259zM340 715q-75 0 -110.5 45.5t-39.5 100.5h87q1 -23 18 -44.5t45 -21.5q30 0 47 21t17 45h86q-2 -19 -7 -37t-16 -38.5t-27 -35.5t-42 -25t-58 -10z" />
    <glyph glyph-name="afii10028" unicode="&#x41a;" horiz-adv-x="615" 
d="M192 0h-121v696h121v-291h91q96 0 127 102l60 187h118l-63 -203q-32 -108 -99 -131q41 -13 66 -47t41 -90l67 -223h-126l-57 193q-19 63 -51 85.5t-78 22.5h-96v-301z" />
    <glyph glyph-name="afii10029" unicode="&#x41b;" horiz-adv-x="668" 
d="M468 0v588h-210v-194q0 -210 -46.5 -302.5t-177.5 -104.5q-14 66 -22 99q75 21 103.5 73.5t28.5 177.5v359h444v-696h-120z" />
    <glyph glyph-name="afii10030" unicode="&#x41c;" horiz-adv-x="765" 
d="M702 0h-121v413h-3l-37 -89l-51 -112l-54 -114h-97l-40 85l-66 146l-36 85l-3 -3v-411h-121v696h113l91 -199q29 -63 109 -250h4l56 133l51 117l89 199h116v-696z" />
    <glyph glyph-name="afii10031" unicode="&#x41d;" horiz-adv-x="655" 
d="M582 0h-120v298h-268v-298h-121v696h121v-292h268v292h120v-696z" />
    <glyph glyph-name="afii10032" unicode="&#x41e;" horiz-adv-x="610" 
d="M304 701q118 0 189 -74t71 -190v-178q0 -121 -70.5 -193t-189.5 -72q-124 0 -191.5 76t-67.5 189v178q0 112 67.5 188t191.5 76zM304 587q-66 0 -101.5 -42.5t-35.5 -101.5v-187q0 -62 35.5 -105.5t101.5 -43.5q62 0 99.5 42t37.5 107v187q0 61 -37 102.5t-100 41.5z" />
    <glyph glyph-name="afii10033" unicode="&#x41f;" horiz-adv-x="655" 
d="M582 0h-120v588h-268v-588h-121v696h509v-696z" />
    <glyph glyph-name="afii10034" unicode="&#x420;" horiz-adv-x="591" 
d="M581 478q0 -86 -64.5 -148.5t-163.5 -62.5h-159v-267h-121v696h271q103 0 170 -57t67 -161zM457 481q0 52 -31 78.5t-85 26.5h-147v-209h151q51 0 81.5 30t30.5 74z" />
    <glyph glyph-name="afii10035" unicode="&#x421;" horiz-adv-x="572" 
d="M436 204l115 -48q-26 -76 -90 -119t-154 -43q-126 0 -192.5 74t-66.5 191v178q0 112 67.5 188t191.5 76q89 0 152.5 -43.5t90.5 -118.5l-114 -45q-13 42 -46.5 67t-82.5 25q-66 0 -101.5 -42.5t-35.5 -101.5v-185q0 -62 35.5 -105.5t101.5 -43.5q48 0 82 26t47 70z" />
    <glyph glyph-name="afii10036" unicode="&#x422;" horiz-adv-x="521" 
d="M513 588h-194v-588h-121v588h-193v108h508v-108z" />
    <glyph glyph-name="afii10037" unicode="&#x423;" horiz-adv-x="569" 
d="M109 -14v104h47q45 0 67 46l7 18l-211 542h132l75 -220l64 -180h5l58 178l74 222h128l-202 -542q-35 -95 -74 -131.5t-105 -36.5h-65z" />
    <glyph glyph-name="afii10038" unicode="&#x424;" horiz-adv-x="758" 
d="M717 354q0 -126 -74.5 -208t-206.5 -86v-60h-116v60q-135 10 -206.5 89t-71.5 205q0 127 72.5 211.5t205.5 90.5v40h116v-40q143 -9 212.5 -89t68.5 -213zM436 559v-402q164 7 164 198q0 86 -39 143.5t-125 60.5zM320 559q-82 -7 -122 -63t-39 -141q0 -86 40 -138
t121 -60v402z" />
    <glyph glyph-name="afii10039" unicode="&#x425;" horiz-adv-x="576" 
d="M575 0h-136l-152 257l-151 -257h-136l225 356l-212 340h137l137 -240l138 240h136l-211 -340z" />
    <glyph glyph-name="afii10040" unicode="&#x426;" horiz-adv-x="688" 
d="M558 -155v155h-485v696h121v-586h268v586h120v-588h83v-263h-107z" />
    <glyph glyph-name="afii10041" unicode="&#x427;" horiz-adv-x="629" 
d="M55 696h118v-205q0 -64 33 -96.5t93 -32.5q80 0 137 42v292h119v-696h-120v303h-1q-66 -41 -166 -41q-95 0 -154 55.5t-59 159.5v219z" />
    <glyph glyph-name="afii10042" unicode="&#x428;" horiz-adv-x="928" 
d="M738 696h120v-696h-788v696h121v-586h212v586h122v-586h213v586z" />
    <glyph glyph-name="afii10043" unicode="&#x429;" horiz-adv-x="963" 
d="M833 -155v155h-764v696h121v-586h212v586h122v-586h213v586h121v-588h82v-263h-107z" />
    <glyph glyph-name="afii10044" unicode="&#x42a;" horiz-adv-x="741" 
d="M493 0h-276v586h-207v110h329v-284h156q108 0 171 -57t63 -143q0 -101 -66 -156.5t-170 -55.5zM604 208q0 39 -29 66.5t-84 27.5h-153v-192h153q54 0 83.5 26t29.5 72z" />
    <glyph glyph-name="afii10045" unicode="&#x42b;" horiz-adv-x="841" 
d="M352 0h-275v696h121v-284h157q108 0 170.5 -57t62.5 -143q0 -102 -65.5 -157t-170.5 -55zM772 0h-121v696h121v-696zM464 208q0 39 -29.5 66.5t-83.5 27.5h-153v-192h153q53 0 83 26t30 72z" />
    <glyph glyph-name="afii10046" unicode="&#x42c;" horiz-adv-x="597" 
d="M584 212q0 -102 -65.5 -157t-170.5 -55h-275v696h121v-284h156q108 0 171 -57t63 -143zM460 208q0 39 -29 66.5t-84 27.5h-153v-192h153q53 0 83 26t30 72z" />
    <glyph glyph-name="afii10047" unicode="&#x42d;" horiz-adv-x="591" 
d="M28 157l114 48q32 -96 129 -96q69 0 103.5 43t34.5 106v47h-215v106h215v32q0 62 -30.5 103t-100.5 41q-47 0 -83.5 -25.5t-49.5 -66.5l-114 45q27 74 93.5 118t156.5 44q67 0 116.5 -21t77.5 -58.5t41.5 -83.5t13.5 -101v-178q0 -117 -67 -191t-192 -74q-90 0 -153.5 43
t-89.5 119z" />
    <glyph glyph-name="afii10048" unicode="&#x42e;" horiz-adv-x="814" 
d="M521 701q123 0 185 -71.5t62 -191.5v-180q0 -121 -66.5 -192.5t-181.5 -71.5q-124 0 -185 75t-61 190v39h-84v-298h-121v696h121v-292h84v32q0 113 63 189t184 76zM521 587q-66 0 -96 -43t-30 -102v-186q0 -65 29.5 -107t95.5 -42q64 0 94.5 41t30.5 108v186
q0 62 -30 103.5t-94 41.5z" />
    <glyph glyph-name="afii10049" unicode="&#x42f;" horiz-adv-x="632" 
d="M278 696h282v-696h-122v294h-96q-95 0 -130 -116l-52 -178h-128l55 197q13 48 34 77.5t59 42.5q-61 16 -90 64.5t-29 107.5q0 92 60.5 149.5t156.5 57.5zM185 487q0 -89 119 -89h134v191h-141q-52 0 -82 -27t-30 -75z" />
    <glyph glyph-name="afii10065" unicode="&#x430;" horiz-adv-x="499" 
d="M245 500q205 0 205 -164v-336h-113v44q-1 1 -2 1q-37 -50 -129 -50q-80 0 -125.5 39t-45.5 110q0 63 44.5 106t123.5 43h134v36q0 71 -98 71q-75 0 -118 -41l-60 76q65 65 184 65zM142 152q0 -26 21 -43.5t67 -17.5q98 0 106 69q1 8 1 47h-115q-80 0 -80 -55z" />
    <glyph glyph-name="afii10066" unicode="&#x431;" horiz-adv-x="515" 
d="M259 379q-54 0 -80 -43q-22 -37 -22 -99q0 -64 20 -96q24 -45 81 -45q65 0 88 60q12 28 12 82q0 61 -15 89q-24 52 -84 52zM283 480q99 0 149 -72q41 -59 41 -163q0 -102 -40 -164q-55 -88 -179 -88q-113 0 -163 66q-50 63 -50 232q2 111 13 164q16 82 62.5 136.5
t130.5 86.5q18 7 73 25.5t93 32.5l34 -86q-28 -12 -52.5 -21t-44 -16t-24.5 -9q-92 -35 -125.5 -69t-40.5 -106q1 0 2 -1q46 52 121 52z" />
    <glyph glyph-name="afii10067" unicode="&#x432;" horiz-adv-x="500" 
d="M475 150q0 -66 -48 -108t-121 -42h-250v495h233q85 0 130 -38.5t45 -100.5q0 -71 -67 -100q37 -12 57.5 -42.5t20.5 -63.5zM360 155q0 24 -18 40t-55 16h-117v-111h117q37 0 55 15.5t18 39.5zM349 346q0 52 -72 52h-107v-105h107q72 0 72 53z" />
    <glyph glyph-name="afii10068" unicode="&#x433;" horiz-adv-x="438" 
d="M436 398h-267v-398h-113v495h380v-97z" />
    <glyph glyph-name="afii10069" unicode="&#x434;" horiz-adv-x="589" 
d="M400 399h-155l-7 -113q-3 -50 -6 -78t-10.5 -59.5t-20.5 -50.5h199v301zM17 90l57 11q33 25 45 60t17 119l14 215h362v-396h57v-237h-102v138h-347v-138h-103v228z" />
    <glyph glyph-name="afii10070" unicode="&#x435;" horiz-adv-x="507" 
d="M466 215h-312q0 -50 26.5 -84.5t78.5 -34.5q25 0 58.5 12t58.5 35q12 -14 33 -39.5t33 -39.5q-75 -70 -187 -70q-34 0 -63.5 6.5t-58.5 24t-49.5 45t-33.5 73t-13 103.5q0 68 19 119.5t51 80t68.5 42t77.5 13.5q99 0 156 -64t57 -173v-49zM252 398q-39 0 -65.5 -27.5
t-30.5 -75.5h190q-3 49 -29 76t-65 27z" />
    <glyph glyph-name="afii10072" unicode="&#x436;" horiz-adv-x="763" 
d="M326 204h-74q-55 0 -80 -77q-7 -24 -19.5 -67t-17.5 -60h-115q7 22 23.5 76t25.5 84q24 85 80 98q-52 14 -75 93l-45 144h111l40 -130q21 -72 93 -72h53v202h113v-202h51q70 0 97 86l36 116h111l-45 -144q-23 -79 -75 -93q56 -13 80 -98q9 -30 25.5 -84t23.5 -76h-115
q-5 17 -17.5 60t-19.5 67q-15 45 -37 61t-56 16h-59v-204h-113v204z" />
    <glyph glyph-name="afii10073" unicode="&#x437;" horiz-adv-x="457" 
d="M297 349q0 24 -21.5 37.5t-58.5 13.5q-79 0 -122 -39l-57 78q71 63 183 63q93 0 140.5 -37t47.5 -102q0 -28 -18 -58.5t-54 -46.5v-2q81 -29 81 -107q0 -69 -55 -111.5t-146 -42.5q-134 0 -202 67l66 76q17 -19 54.5 -31.5t74.5 -12.5q43 0 69 17.5t26 45.5t-24 42
t-58 14h-74v83h79q32 0 50.5 15t18.5 38z" />
    <glyph glyph-name="afii10074" unicode="&#x438;" horiz-adv-x="550" 
d="M158 0h-101v495h111v-329h2q12 17 42 59t46 66l144 204h92v-495h-112v313h-2q-19 -29 -55.5 -79t-49.5 -69z" />
    <glyph glyph-name="afii10075" unicode="&#x439;" horiz-adv-x="550" 
d="M286 564q-75 0 -110.5 45.5t-39.5 100.5h87q1 -23 18 -44.5t45 -21.5q30 0 47 21t17 45h86q-2 -19 -7 -37t-16 -38.5t-27 -35.5t-42 -25t-58 -10zM158 0h-101v495h111v-329h2q12 17 42 59t46 66l144 204h92v-495h-112v313h-2q-19 -29 -55.5 -79t-49.5 -69z" />
    <glyph glyph-name="afii10076" unicode="&#x43a;" horiz-adv-x="506" 
d="M167 0h-113v494h113v-201h64q71 0 92 72l40 130h112l-45 -144q-23 -79 -75 -93q56 -13 80 -98l49 -160h-116l-36 127q-15 45 -37.5 60.5t-56.5 15.5h-71v-203z" />
    <glyph glyph-name="afii10077" unicode="&#x43b;" horiz-adv-x="538" 
d="M363 397h-144v-127q0 -139 -42.5 -206t-143.5 -74q-14 56 -20 84q63 18 83.5 55t20.5 142v224h359v-495h-113v397z" />
    <glyph glyph-name="afii10078" unicode="&#x43c;" horiz-adv-x="623" 
d="M567 0h-111v270h-1q-15 -30 -68 -135l-35 -67h-81l-44 84q-29 55 -60 119h-1v-271h-111v495h102q40 -75 64 -120.5t33 -63t10 -19.5l48 -91l21.5 43t24.5 48q18 38 54.5 106.5t50.5 96.5h104v-495z" />
    <glyph glyph-name="afii10079" unicode="&#x43d;" horiz-adv-x="532" 
d="M476 0h-111v205h-197v-205h-112v495h112v-201h197v201h111v-495z" />
    <glyph glyph-name="afii10080" unicode="&#x43e;" horiz-adv-x="515" 
d="M264 501q116 0 172 -83q38 -59 36 -163q0 -109 -34 -168q-28 -46 -77 -70t-109 -24q-118 0 -171 78q-41 61 -39 176q0 89 25 140q25 54 77 84t120 30zM260 399q-61 0 -87 -56q-15 -33 -17 -97q0 -65 15 -95q24 -55 84 -55q71 0 93 71q9 29 9 88q0 58 -13 87
q-22 57 -84 57z" />
    <glyph glyph-name="afii10081" unicode="&#x43f;" horiz-adv-x="536" 
d="M473 0h-113v398h-187v-398h-113v495h413v-495z" />
    <glyph glyph-name="afii10082" unicode="&#x440;" horiz-adv-x="516" 
d="M60 495h112v-44l3 -1q45 50 121 50q56 0 93.5 -22.5t55 -62.5t24 -79.5t6.5 -89.5q0 -48 -8 -88.5t-27.5 -79.5t-59 -61.5t-96.5 -22.5q-73 0 -110 47h-2v-241h-112v695zM172 246q0 -146 92 -146q30 0 50 13t29 36t12 45.5t3 51.5q0 24 -1 40.5t-6.5 38.5t-14.5 35.5
t-27 23.5t-43 10q-94 0 -94 -148z" />
    <glyph glyph-name="afii10083" unicode="&#x441;" horiz-adv-x="447" 
d="M430 67q-76 -73 -175 -73q-97 0 -162 63.5t-65 189.5t67 189.5t164 63.5q99 0 169 -70l-73 -79q-44 46 -94 46q-117 0 -117 -150q0 -149 116 -149q49 0 96 47z" />
    <glyph glyph-name="afii10084" unicode="&#x442;" horiz-adv-x="431" 
d="M421 398h-151v-398h-113v398h-150v97h414v-97z" />
    <glyph glyph-name="afii10085" unicode="&#x443;" horiz-adv-x="470" 
d="M470 495l-218 -595q-37 -100 -144 -100h-42v95h31q41 0 60 52l25 78l-182 470h122l64 -182l49 -156h4l49 154l63 184h119z" />
    <glyph glyph-name="afii10086" unicode="&#x444;" horiz-adv-x="649" 
d="M379 727v-226q57 0 108 -23.5t77 -62.5q41 -62 41 -170q0 -98 -37 -156q-28 -45 -79 -70t-110 -27v-188h-111v188q-57 1 -106.5 22t-76.5 58q-42 57 -42 175q2 86 26 139q24 50 79.5 82t118.5 33v226h112zM267 93v305q-30 0 -56 -15t-38 -40q-14 -31 -16 -97
q0 -63 16 -95q12 -25 38.5 -41.5t55.5 -16.5zM379 398v-305q34 0 63 20.5t39 54.5q9 27 9 79q0 61 -14 94q-11 27 -37.5 41.5t-59.5 15.5z" />
    <glyph glyph-name="afii10087" unicode="&#x445;" horiz-adv-x="501" 
d="M490 0h-136l-104 167l-103 -167h-136l180 253l-172 242h135l96 -160l97 160h135l-172 -243z" />
    <glyph glyph-name="afii10088" unicode="&#x446;" horiz-adv-x="571" 
d="M478 495v-394h73v-239h-102v138h-389v495h112v-394h195v394h111z" />
    <glyph glyph-name="afii10089" unicode="&#x447;" horiz-adv-x="497" 
d="M37 496h113v-142q0 -45 19 -64.5t63 -19.5q57 0 104 28v198h110v-496h-110v204h-1q-59 -31 -125 -31q-77 0 -125 39.5t-48 122.5v161z" />
    <glyph glyph-name="afii10090" unicode="&#x448;" horiz-adv-x="789" 
d="M619 495h110v-495h-669v495h110v-393h169v393h110v-393h170v393z" />
    <glyph glyph-name="afii10091" unicode="&#x449;" horiz-adv-x="822" 
d="M699 -138v138h-639v495h110v-393h169v393h111v-393h169v393h110v-394h73v-239h-103z" />
    <glyph glyph-name="afii10092" unicode="&#x44a;" horiz-adv-x="596" 
d="M583 167q0 -73 -46 -120t-134 -47h-231v398h-160v97h272v-172h120q90 0 134.5 -45t44.5 -111zM468 162q0 25 -17.5 43t-55.5 18l-112 1v-123h112q36 0 54.5 16.5t18.5 44.5z" />
    <glyph glyph-name="afii10093" unicode="&#x44b;" horiz-adv-x="683" 
d="M464 167q0 -73 -46 -120t-134 -47h-230v495h111v-172h120q90 0 134.5 -45t44.5 -111zM626 0h-111v495h111v-495zM349 162q0 25 -17.5 43t-55.5 18l-112 1v-123h112q36 0 54.5 16.5t18.5 44.5z" />
    <glyph glyph-name="afii10094" unicode="&#x44c;" horiz-adv-x="480" 
d="M464 167q0 -73 -46.5 -120t-133.5 -47h-231v495h112v-172h119q90 0 135 -45.5t45 -110.5zM349 162q0 25 -18 43t-56 18l-111 1v-123h111q36 0 55 16.5t19 44.5z" />
    <glyph glyph-name="afii10095" unicode="&#x44d;" horiz-adv-x="464" 
d="M19 58l63 83q48 -43 100 -43q55 0 87 28.5t36 83.5h-156v82h157q-3 50 -31.5 77t-78.5 27q-58 0 -102 -42l-63 80q68 66 173 66q100 0 160 -59t60 -184q0 -131 -67.5 -196.5t-168.5 -65.5q-100 0 -169 63z" />
    <glyph glyph-name="afii10096" unicode="&#x44e;" horiz-adv-x="685" 
d="M438 502q115 0 167 -82q37 -58 37 -175q0 -98 -34 -157q-27 -47 -74 -71t-103 -24q-112 0 -164 79q-33 49 -38 134h-61v-206h-113v495h113v-202h61q5 57 22 94q25 55 74 85t113 30zM436 400q-56 0 -81 -57q-15 -33 -15 -97q0 -62 14 -95q25 -54 80 -54q67 0 87 70
q8 30 8 81q0 66 -13 96q-22 56 -80 56z" />
    <glyph glyph-name="afii10097" unicode="&#x44f;" horiz-adv-x="513" 
d="M342 192h-80q-68 -2 -85 -71l-31 -121h-118l36 128q18 70 65 86q-83 26 -85 120q0 72 46 116.5t122 44.5h243v-495h-113v192zM156 334q0 -56 73 -56h113v121h-116q-30 0 -50 -17t-20 -48z" />
    <glyph glyph-name="afii10071" unicode="&#x451;" horiz-adv-x="507" 
d="M466 215h-312q0 -50 26.5 -84.5t78.5 -34.5q25 0 58.5 12t58.5 35q12 -14 33 -39.5t33 -39.5q-75 -70 -187 -70q-34 0 -63.5 6.5t-58.5 24t-49.5 45t-33.5 73t-13 103.5q0 68 19 119.5t51 80t68.5 42t77.5 13.5q99 0 156 -64t57 -173v-49zM252 398q-39 0 -65.5 -27.5
t-30.5 -75.5h190q-3 49 -29 76t-65 27zM412 590h-118v109h118v-109zM213 590h-119v109h119v-109z" />
    <glyph glyph-name="afii10099" unicode="&#x452;" horiz-adv-x="580" 
d="M191 442l4 -1q55 54 129 54q206 0 206 -249q0 -115 -57.5 -187t-175.5 -72q-6 0 -28 2v99q7 -1 22 -1q124 0 124 156q0 150 -119 150q-42 0 -73.5 -33t-31.5 -97q0 -44 -0.5 -132t-0.5 -131h-112v565h-69v79h69v82h112v-82h208v-79h-207v-123z" />
    <glyph glyph-name="afii10100" unicode="&#x453;" horiz-adv-x="438" 
d="M245 544l-68 25l79 190l107 -34zM436 398h-267v-398h-113v495h380v-97z" />
    <glyph glyph-name="afii10101" unicode="&#x454;" horiz-adv-x="447" 
d="M363 141l64 -83q-70 -63 -168 -63q-46 0 -86.5 14t-74 42.5t-53.5 77.5t-20 113q0 128 68 193t166 65q95 0 166 -65l-64 -80q-42 42 -98 42q-50 0 -80.5 -27.5t-37.5 -79.5h157v-82h-158q4 -54 35.5 -82t83.5 -28t100 43z" />
    <glyph glyph-name="afii10102" unicode="&#x455;" horiz-adv-x="463" 
d="M433 151q0 -72 -58 -114.5t-144 -42.5q-130 0 -215 75l61 81q64 -59 159 -59q37 0 61.5 15.5t24.5 41.5q0 25 -21 38t-67 18q-33 4 -54 7.5t-49.5 13.5t-44.5 23.5t-28 38.5t-12 58q0 73 53 114t132 41q116 0 190 -56l-54 -86q-65 43 -134 43q-38 0 -59 -15t-21 -38
q0 -24 27 -35.5t91 -18.5q162 -18 162 -143z" />
    <glyph glyph-name="afii10103" unicode="&#x456;" horiz-adv-x="247" 
d="M180 592h-113v104h113v-104zM180 0h-113v495h113v-495z" />
    <glyph glyph-name="afii10104" unicode="&#x457;" horiz-adv-x="235" 
d="M271 583h-118v109h118v-109zM72 583h-119v109h119v-109zM175 0h-115v495h115v-495z" />
    <glyph glyph-name="afii10105" unicode="&#x458;" horiz-adv-x="265" 
d="M190 592h-114v104h114v-104zM190 496v-555q0 -65 -37.5 -103.5t-108.5 -38.5h-52v100h28q56 0 56 59v538h114z" />
    <glyph glyph-name="afii10106" unicode="&#x459;" horiz-adv-x="757" 
d="M330 0v397h-107v-126q0 -139 -43 -206t-144 -75l-20 85q63 17 83.5 56t20.5 140v224h322v-172h119q90 0 134.5 -45t44.5 -111q0 -73 -46 -120t-134 -47h-230zM626 162q0 25 -17.5 43.5t-55.5 18.5h-112v-123h112q36 0 54.5 16.5t18.5 44.5z" />
    <glyph glyph-name="afii10107" unicode="&#x45a;" horiz-adv-x="754" 
d="M734 164q0 -72 -46 -118t-134 -46h-231v218h-158v-218h-113v495h113v-178h158v178h113v-177h119q90 0 134.5 -44.5t44.5 -109.5zM620 159q0 25 -17 42t-55 17l-113 1v-120h113q72 0 72 60z" />
    <glyph glyph-name="afii10108" unicode="&#x45b;" horiz-adv-x="551" 
d="M494 0h-113v284q0 99 -89 99q-42 0 -69.5 -28.5t-27.5 -75.5v-279h-113v561h-68v80h68v85h113v-85h199v-80h-199v-124l3 -1q23 25 59.5 39.5t73.5 14.5q73 0 118 -45.5t45 -129.5v-315z" />
    <glyph glyph-name="afii10109" unicode="&#x45c;" horiz-adv-x="506" 
d="M255 544l-68 25l79 190l107 -34zM167 0h-113v494h113v-201h64q71 0 92 72l40 130h112l-45 -144q-23 -79 -75 -93q56 -13 80 -98l49 -160h-116l-36 127q-15 45 -37.5 60.5t-56.5 15.5h-71v-203z" />
    <glyph glyph-name="afii10110" unicode="&#x45e;" horiz-adv-x="470" 
d="M470 495l-218 -595q-37 -100 -144 -100h-42v95h31q41 0 60 52l25 78l-182 470h122l64 -182l49 -156h4l49 154l63 184h119zM240 564q-75 0 -110.5 45.5t-39.5 100.5h87q1 -23 18 -44.5t45 -21.5q30 0 47 21t17 45h86q-2 -19 -7 -37t-16 -38.5t-27 -35.5t-42 -25t-58 -10z
" />
    <glyph glyph-name="afii10193" unicode="&#x45f;" horiz-adv-x="526" 
d="M362 495h108v-495h-153v-149h-108v149h-153v495h109v-393h197v393z" />
    <glyph glyph-name="afii10050" unicode="&#x490;" horiz-adv-x="545" 
d="M539 586h-345v-586h-121v696h362v122h104v-232z" />
    <glyph glyph-name="afii10098" unicode="&#x491;" horiz-adv-x="438" 
d="M436 598v-200h-268v-398h-112v495h284v103h96z" />
    <glyph glyph-name="schwacyrillic" unicode="&#x4d9;" horiz-adv-x="507" 
d="M37 280h313q2 53 -27 85.5t-79 32.5q-60 0 -112 -46l-70 78q75 71 186 71q43 0 79 -11.5t69 -38t52 -78.5t19 -124q0 -132 -64 -193.5t-153 -61.5q-99 0 -156 64t-57 172v50zM252 96q39 0 65 27.5t30 75.5h-190q4 -49 29.5 -76t65.5 -27z" />
    <glyph glyph-name="Wgrave" unicode="&#x1e80;" horiz-adv-x="839" 
d="M419 473q-1 0 -3 -1q-11 -43 -33.5 -127t-33.5 -127q-3 -13 -30 -107.5t-31 -111.5h-101l-181 696h129q46 -196 78 -340l28 -127h4l32 126q69 250 95 341h92q60 -208 96 -344l33 -124h4q5 23 14.5 70.5l10.5 52.5q54 244 79 345h128q-120 -464 -181 -696h-100
q-59 214 -70 251q-24 94 -59 223zM486 791l-47 -56l-192 97l74 84z" />
    <glyph glyph-name="wgrave" unicode="&#x1e81;" horiz-adv-x="736" 
d="M514 168h6q4 12 7.5 26.5t8 32t6.5 26.5q5 15 11.5 40t21 78.5t34.5 123.5h121q-54 -165 -164 -495h-99q-18 59 -70 231l-29 94h-2l-31 -106q-32 -110 -67 -219h-99l-164 495h121q14 -46 40 -140q8 -26 24.5 -88.5t26.5 -95.5h4q7 21 42 139l58 185h95q39 -123 74 -243z
M418 573l-67 -29l-123 179l108 36z" />
    <glyph glyph-name="Wacute" unicode="&#x1e82;" horiz-adv-x="839" 
d="M419 473q-1 0 -3 -1q-11 -43 -33.5 -127t-33.5 -127q-3 -13 -30 -107.5t-31 -111.5h-101l-181 696h129q46 -196 78 -340l28 -127h4l32 126q69 250 95 341h92q60 -208 96 -344l33 -124h4q5 23 14.5 70.5l10.5 52.5q54 244 79 345h128q-120 -464 -181 -696h-100
q-59 214 -70 251q-24 94 -59 223zM404 735l-47 56l165 125l74 -84z" />
    <glyph glyph-name="wacute" unicode="&#x1e83;" horiz-adv-x="736" 
d="M514 168h6q4 12 7.5 26.5t8 32t6.5 26.5q5 15 11.5 40t21 78.5t34.5 123.5h121q-54 -165 -164 -495h-99q-18 59 -70 231l-29 94h-2l-31 -106q-32 -110 -67 -219h-99l-164 495h121q14 -46 40 -140q8 -26 24.5 -88.5t26.5 -95.5h4q7 21 42 139l58 185h95q39 -123 74 -243z
M405 544l-68 25l79 190l107 -34z" />
    <glyph glyph-name="Wdieresis" unicode="&#x1e84;" horiz-adv-x="839" 
d="M419 473q-1 0 -3 -1q-11 -43 -33.5 -127t-33.5 -127q-3 -13 -30 -107.5t-31 -111.5h-101l-181 696h129q46 -196 78 -340l28 -127h4l32 126q69 250 95 341h92q60 -208 96 -344l33 -124h4q5 23 14.5 70.5l10.5 52.5q54 244 79 345h128q-120 -464 -181 -696h-100
q-59 214 -70 251q-24 94 -59 223zM380 757h-121v111h121v-111zM577 757h-120v111h120v-111z" />
    <glyph glyph-name="wdieresis" unicode="&#x1e85;" horiz-adv-x="736" 
d="M514 168h6q4 12 7.5 26.5t8 32t6.5 26.5q5 15 11.5 40t21 78.5t34.5 123.5h121q-54 -165 -164 -495h-99q-18 59 -70 231l-29 94h-2l-31 -106q-32 -110 -67 -219h-99l-164 495h121q14 -46 40 -140q8 -26 24.5 -88.5t26.5 -95.5h4q7 21 42 139l58 185h95q39 -123 74 -243z
M325 583h-119v109h119v-109zM524 583h-118v109h118v-109z" />
    <glyph glyph-name="Ygrave" unicode="&#x1ef2;" horiz-adv-x="557" 
d="M553 696q-144 -274 -217 -410v-286h-115v286q-40 74 -113 213t-104 197h129l84 -172q21 -44 61 -134h2l62 137l83 169h128zM366 791l-47 -56l-192 97l74 84z" />
    <glyph glyph-name="ygrave" unicode="&#x1ef3;" horiz-adv-x="470" 
d="M470 495l-218 -595q-37 -100 -144 -100h-42v95h31q41 0 60 52l25 78l-182 470h122l64 -182l49 -156h4l49 154l63 184h119zM291 573l-67 -29l-123 179l108 36z" />
    <glyph glyph-name="uni1F00" unicode="&#x1f00;" horiz-adv-x="519" 
d="M45 240q0 259 189 259q71 0 111 -49l2 1v44h113v-495h-113v47l-2 1q-49 -54 -116 -54q-184 0 -184 246zM161 246q0 -30 3 -51.5t11.5 -45t28.5 -36t51 -12.5q92 0 92 145q0 148 -92 148q-31 0 -51 -13t-29 -37.5t-11.5 -46t-2.5 -51.5zM285 538l-57 25q30 42 30 71
q0 39 -66 51l34 96q128 -25 128 -114q0 -26 -17.5 -62t-51.5 -67z" />
    <glyph glyph-name="uni1F01" unicode="&#x1f01;" horiz-adv-x="519" 
d="M45 240q0 259 189 259q71 0 111 -49l2 1v44h113v-495h-113v47l-2 1q-49 -54 -116 -54q-184 0 -184 246zM161 246q0 -30 3 -51.5t11.5 -45t28.5 -36t51 -12.5q92 0 92 145q0 148 -92 148q-31 0 -51 -13t-29 -37.5t-11.5 -46t-2.5 -51.5zM293 563l-56 -25q-35 31 -52.5 67
t-17.5 62q0 89 128 114l34 -96q-65 -12 -65 -51q0 -31 29 -71z" />
    <glyph glyph-name="uni1F02" unicode="&#x1f02;" horiz-adv-x="519" 
d="M45 240q0 259 189 259q71 0 111 -49l2 1v44h113v-495h-113v47l-2 1q-49 -54 -116 -54q-184 0 -184 246zM161 246q0 -30 3 -51.5t11.5 -45t28.5 -36t51 -12.5q92 0 92 145q0 148 -92 148q-31 0 -51 -13t-29 -37.5t-11.5 -46t-2.5 -51.5zM166 545l-56 25q30 43 30 72
q0 39 -66 50l34 96q59 -11 93 -39.5t34 -74.5q0 -27 -17 -62.5t-52 -66.5zM443 568l-61 -23l-148 224l117 22z" />
    <glyph glyph-name="uni1F03" unicode="&#x1f03;" horiz-adv-x="519" 
d="M45 240q0 259 189 259q71 0 111 -49l2 1v44h113v-495h-113v47l-2 1q-49 -54 -116 -54q-184 0 -184 246zM161 246q0 -30 3 -51.5t11.5 -45t28.5 -36t51 -12.5q92 0 92 145q0 148 -92 148q-31 0 -51 -13t-29 -37.5t-11.5 -46t-2.5 -51.5zM197 569l-55 -25
q-35 32 -52.5 67.5t-17.5 61.5q0 46 34 74.5t93 39.5l34 -96q-65 -11 -65 -50q0 -30 29 -72zM447 568l-62 -23l-147 224l116 22z" />
    <glyph glyph-name="uni1F04" unicode="&#x1f04;" horiz-adv-x="519" 
d="M45 240q0 259 189 259q71 0 111 -49l2 1v44h113v-495h-113v47l-2 1q-49 -54 -116 -54q-184 0 -184 246zM161 246q0 -30 3 -51.5t11.5 -45t28.5 -36t51 -12.5q92 0 92 145q0 148 -92 148q-31 0 -51 -13t-29 -37.5t-11.5 -46t-2.5 -51.5zM190 547l-56 26q30 39 30 72
q0 38 -66 50l34 95q127 -23 127 -113q0 -26 -17 -62t-52 -68zM329 545l-62 23l95 223l114 -22z" />
    <glyph glyph-name="uni1F05" unicode="&#x1f05;" horiz-adv-x="519" 
d="M45 240q0 259 189 259q71 0 111 -49l2 1v44h113v-495h-113v47l-2 1q-49 -54 -116 -54q-184 0 -184 246zM161 246q0 -30 3 -51.5t11.5 -45t28.5 -36t51 -12.5q92 0 92 145q0 148 -92 148q-31 0 -51 -13t-29 -37.5t-11.5 -46t-2.5 -51.5zM234 573l-56 -26q-35 31 -52.5 67
t-17.5 62q0 46 34 74.5t93 39.5l34 -96q-65 -12 -65 -50q0 -33 30 -71zM332 545l-61 23l94 223l114 -22z" />
    <glyph glyph-name="uni1F06" unicode="&#x1f06;" horiz-adv-x="519" 
d="M45 240q0 259 189 259q71 0 111 -49l2 1v44h113v-495h-113v47l-2 1q-49 -54 -116 -54q-184 0 -184 246zM161 246q0 -30 3 -51.5t11.5 -45t28.5 -36t51 -12.5q92 0 92 145q0 148 -92 148q-31 0 -51 -13t-29 -37.5t-11.5 -46t-2.5 -51.5zM281 529l-56 22q37 40 37 64
q0 27 -62 32l34 80q117 -16 117 -85q0 -54 -70 -113zM212 870q27 -1 73 -24.5t61 -23.5q31 0 64 46l60 -34q-46 -99 -114 -99q-27 0 -74.5 23t-64.5 23q-32 0 -68 -45l-57 33q47 101 120 101z" />
    <glyph glyph-name="uni1F07" unicode="&#x1f07;" horiz-adv-x="519" 
d="M45 240q0 259 189 259q71 0 111 -49l2 1v44h113v-495h-113v47l-2 1q-49 -54 -116 -54q-184 0 -184 246zM161 246q0 -30 3 -51.5t11.5 -45t28.5 -36t51 -12.5q92 0 92 145q0 148 -92 148q-31 0 -51 -13t-29 -37.5t-11.5 -46t-2.5 -51.5zM320 551l-56 -22q-70 60 -70 113
q0 68 117 84l34 -80q-61 -4 -61 -32q0 -24 36 -63zM211 877q27 -1 73 -24.5t61 -23.5q31 0 64 46l60 -34q-46 -99 -114 -99q-27 0 -74.5 23t-64.5 23q-32 0 -68 -45l-57 33q47 101 120 101z" />
    <glyph glyph-name="uni1F08" unicode="&#x1f08;" horiz-adv-x="629" 
d="M626 0h-128l-55 154h-258l-56 -154h-127l263 696h98zM407 257l-46 141l-46 143h-3l-45 -140l-47 -144h187zM40 482l-57 25q30 42 30 71q0 39 -66 51l34 96q128 -25 128 -114q0 -26 -17.5 -62t-51.5 -67z" />
    <glyph glyph-name="uni1F09" unicode="&#x1f09;" horiz-adv-x="629" 
d="M626 0h-128l-55 154h-258l-56 -154h-127l263 696h98zM407 257l-46 141l-46 143h-3l-45 -140l-47 -144h187zM81 508l-56 -25q-35 31 -52.5 67t-17.5 62q0 89 128 114l34 -96q-65 -12 -65 -51q0 -31 29 -71z" />
    <glyph glyph-name="uni1F0A" unicode="&#x1f0a;" horiz-adv-x="629" 
d="M626 0h-128l-55 154h-258l-56 -154h-127l263 696h98zM407 257l-46 141l-46 143h-3l-45 -140l-47 -144h187zM-139 489l-56 25q30 43 30 72q0 39 -66 50l34 96q59 -11 93 -39.5t34 -74.5q0 -27 -17 -62.5t-52 -66.5zM138 512l-61 -23l-148 224l117 22z" />
    <glyph glyph-name="uni1F0B" unicode="&#x1f0b;" horiz-adv-x="629" 
d="M626 0h-128l-55 154h-258l-56 -154h-127l263 696h98zM407 257l-46 141l-46 143h-3l-45 -140l-47 -144h187zM-107 514l-55 -25q-35 32 -52.5 67.5t-17.5 61.5q0 46 34 74.5t93 39.5l34 -96q-65 -11 -65 -50q0 -30 29 -72zM143 513l-62 -23l-147 224l116 22z" />
    <glyph glyph-name="uni1F0C" unicode="&#x1f0c;" horiz-adv-x="629" 
d="M626 0h-128l-55 154h-258l-56 -154h-127l263 696h98zM407 257l-46 141l-46 143h-3l-45 -140l-47 -144h187zM-130 490l-56 26q30 39 30 72q0 38 -66 50l34 95q127 -23 127 -113q0 -26 -17 -62t-52 -68zM9 488l-62 23l95 223l114 -22z" />
    <glyph glyph-name="uni1F0D" unicode="&#x1f0d;" horiz-adv-x="629" 
d="M626 0h-128l-55 154h-258l-56 -154h-127l263 696h98zM407 257l-46 141l-46 143h-3l-45 -140l-47 -144h187zM-90 518l-56 -26q-35 31 -52.5 67t-17.5 62q0 46 34 74.5t93 39.5l34 -96q-65 -12 -65 -50q0 -33 30 -71zM8 490l-61 23l94 223l114 -22z" />
    <glyph glyph-name="uni1F0E" unicode="&#x1f0e;" horiz-adv-x="629" 
d="M626 0h-128l-55 154h-258l-56 -154h-127l263 696h98zM407 257l-46 141l-46 143h-3l-45 -140l-47 -144h187zM-15 419l-56 22q37 40 37 64q0 27 -62 32l34 80q117 -16 117 -85q0 -54 -70 -113zM-84 760q27 -1 73 -24.5t61 -23.5q31 0 64 46l60 -34q-46 -99 -114 -99
q-27 0 -74.5 23t-64.5 23q-32 0 -68 -45l-57 33q47 101 120 101z" />
    <glyph glyph-name="uni1F0F" unicode="&#x1f0f;" horiz-adv-x="629" 
d="M626 0h-128l-55 154h-258l-56 -154h-127l263 696h98zM407 257l-46 141l-46 143h-3l-45 -140l-47 -144h187zM30 442l-56 -22q-70 60 -70 113q0 68 117 84l34 -80q-61 -4 -61 -32q0 -24 36 -63zM-79 768q27 -1 73 -24.5t61 -23.5q31 0 64 46l60 -34q-46 -99 -114 -99
q-27 0 -74.5 23t-64.5 23q-32 0 -68 -45l-57 33q47 101 120 101z" />
    <glyph glyph-name="uni1F10" unicode="&#x1f10;" horiz-adv-x="458" 
d="M441 69q-78 -74 -198 -74q-90 0 -144 40t-54 111q0 29 18.5 62t54.5 48v2q-34 11 -50 38t-16 57q0 63 51 105t142 42q118 0 187 -69l-69 -80q-44 44 -113 44q-34 0 -58.5 -14.5t-24.5 -38.5q0 -45 68 -45h72v-88h-74q-35 0 -54.5 -15t-19.5 -39q0 -23 24 -39.5t69 -16.5
q74 0 116 48zM242 538l-57 25q30 42 30 71q0 39 -66 51l34 96q128 -25 128 -114q0 -26 -17.5 -62t-51.5 -67z" />
    <glyph glyph-name="uni1F11" unicode="&#x1f11;" horiz-adv-x="458" 
d="M441 69q-78 -74 -198 -74q-90 0 -144 40t-54 111q0 29 18.5 62t54.5 48v2q-34 11 -50 38t-16 57q0 63 51 105t142 42q118 0 187 -69l-69 -80q-44 44 -113 44q-34 0 -58.5 -14.5t-24.5 -38.5q0 -45 68 -45h72v-88h-74q-35 0 -54.5 -15t-19.5 -39q0 -23 24 -39.5t69 -16.5
q74 0 116 48zM282 563l-56 -25q-35 31 -52.5 67t-17.5 62q0 89 128 114l34 -96q-65 -12 -65 -51q0 -31 29 -71z" />
    <glyph glyph-name="uni1F12" unicode="&#x1f12;" horiz-adv-x="458" 
d="M441 69q-78 -74 -198 -74q-90 0 -144 40t-54 111q0 29 18.5 62t54.5 48v2q-34 11 -50 38t-16 57q0 63 51 105t142 42q118 0 187 -69l-69 -80q-44 44 -113 44q-34 0 -58.5 -14.5t-24.5 -38.5q0 -45 68 -45h72v-88h-74q-35 0 -54.5 -15t-19.5 -39q0 -23 24 -39.5t69 -16.5
q74 0 116 48zM137 545l-56 25q30 43 30 72q0 39 -66 50l34 96q59 -11 93 -39.5t34 -74.5q0 -27 -17 -62.5t-52 -66.5zM414 568l-61 -23l-148 224l117 22z" />
    <glyph glyph-name="uni1F13" unicode="&#x1f13;" horiz-adv-x="458" 
d="M441 69q-78 -74 -198 -74q-90 0 -144 40t-54 111q0 29 18.5 62t54.5 48v2q-34 11 -50 38t-16 57q0 63 51 105t142 42q118 0 187 -69l-69 -80q-44 44 -113 44q-34 0 -58.5 -14.5t-24.5 -38.5q0 -45 68 -45h72v-88h-74q-35 0 -54.5 -15t-19.5 -39q0 -23 24 -39.5t69 -16.5
q74 0 116 48zM162 569l-55 -25q-35 32 -52.5 67.5t-17.5 61.5q0 46 34 74.5t93 39.5l34 -96q-65 -11 -65 -50q0 -30 29 -72zM412 568l-62 -23l-147 224l116 22z" />
    <glyph glyph-name="uni1F14" unicode="&#x1f14;" horiz-adv-x="458" 
d="M441 69q-78 -74 -198 -74q-90 0 -144 40t-54 111q0 29 18.5 62t54.5 48v2q-34 11 -50 38t-16 57q0 63 51 105t142 42q118 0 187 -69l-69 -80q-44 44 -113 44q-34 0 -58.5 -14.5t-24.5 -38.5q0 -45 68 -45h72v-88h-74q-35 0 -54.5 -15t-19.5 -39q0 -23 24 -39.5t69 -16.5
q74 0 116 48zM188 547l-56 26q30 39 30 72q0 38 -66 50l34 95q127 -23 127 -113q0 -26 -17 -62t-52 -68zM327 545l-62 23l95 223l114 -22z" />
    <glyph glyph-name="uni1F15" unicode="&#x1f15;" horiz-adv-x="458" 
d="M441 69q-78 -74 -198 -74q-90 0 -144 40t-54 111q0 29 18.5 62t54.5 48v2q-34 11 -50 38t-16 57q0 63 51 105t142 42q118 0 187 -69l-69 -80q-44 44 -113 44q-34 0 -58.5 -14.5t-24.5 -38.5q0 -45 68 -45h72v-88h-74q-35 0 -54.5 -15t-19.5 -39q0 -23 24 -39.5t69 -16.5
q74 0 116 48zM224 573l-56 -26q-35 31 -52.5 67t-17.5 62q0 46 34 74.5t93 39.5l34 -96q-65 -12 -65 -50q0 -33 30 -71zM322 545l-61 23l94 223l114 -22z" />
    <glyph glyph-name="uni1F18" unicode="&#x1f18;" horiz-adv-x="564" 
d="M539 0h-466v696h466v-110h-345v-182h294v-106h-294v-188h345v-110zM-65 488l-57 25q30 42 30 71q0 39 -66 51l34 96q128 -25 128 -114q0 -26 -17.5 -62t-51.5 -67z" />
    <glyph glyph-name="uni1F19" unicode="&#x1f19;" horiz-adv-x="564" 
d="M539 0h-466v696h466v-110h-345v-182h294v-106h-294v-188h345v-110zM-34 513l-56 -25q-35 31 -52.5 67t-17.5 62q0 89 128 114l34 -96q-65 -12 -65 -51q0 -31 29 -71z" />
    <glyph glyph-name="uni1F1A" unicode="&#x1f1a;" horiz-adv-x="564" 
d="M539 0h-466v696h466v-110h-345v-182h294v-106h-294v-188h345v-110zM-258 495l-56 25q30 43 30 72q0 39 -66 50l34 96q59 -11 93 -39.5t34 -74.5q0 -27 -17 -62.5t-52 -66.5zM19 518l-61 -23l-148 224l117 22z" />
    <glyph glyph-name="uni1F1B" unicode="&#x1f1b;" horiz-adv-x="564" 
d="M539 0h-466v696h466v-110h-345v-182h294v-106h-294v-188h345v-110zM-230 519l-55 -25q-35 32 -52.5 67.5t-17.5 61.5q0 46 34 74.5t93 39.5l34 -96q-65 -11 -65 -50q0 -30 29 -72zM20 518l-62 -23l-147 224l116 22z" />
    <glyph glyph-name="uni1F1C" unicode="&#x1f1c;" horiz-adv-x="564" 
d="M539 0h-466v696h466v-110h-345v-182h294v-106h-294v-188h345v-110zM-267 497l-56 26q30 39 30 72q0 38 -66 50l34 95q127 -23 127 -113q0 -26 -17 -62t-52 -68zM-128 495l-62 23l95 223l114 -22z" />
    <glyph glyph-name="uni1F1D" unicode="&#x1f1d;" horiz-adv-x="564" 
d="M539 0h-466v696h466v-110h-345v-182h294v-106h-294v-188h345v-110zM-227 523l-56 -26q-35 31 -52.5 67t-17.5 62q0 46 34 74.5t93 39.5l34 -96q-65 -12 -65 -50q0 -33 30 -71zM-129 495l-61 23l94 223l114 -22z" />
    <glyph glyph-name="uni1F20" unicode="&#x1f20;" horiz-adv-x="538" 
d="M474 0h-112v294q0 100 -91 100q-42 0 -69 -27t-27 -73v-294h-113v496h113v-52h3q23 26 58.5 41t70.5 15q78 0 122.5 -45t44.5 -130v-325zM273 538l-57 25q30 42 30 71q0 39 -66 51l34 96q128 -25 128 -114q0 -26 -17.5 -62t-51.5 -67z" />
    <glyph glyph-name="uni1F21" unicode="&#x1f21;" horiz-adv-x="538" 
d="M474 0h-112v294q0 100 -91 100q-42 0 -69 -27t-27 -73v-294h-113v496h113v-52h3q23 26 58.5 41t70.5 15q78 0 122.5 -45t44.5 -130v-325zM307 563l-56 -25q-35 31 -52.5 67t-17.5 62q0 89 128 114l34 -96q-65 -12 -65 -51q0 -31 29 -71z" />
    <glyph glyph-name="uni1F22" unicode="&#x1f22;" horiz-adv-x="538" 
d="M474 0h-112v294q0 100 -91 100q-42 0 -69 -27t-27 -73v-294h-113v496h113v-52h3q23 26 58.5 41t70.5 15q78 0 122.5 -45t44.5 -130v-325zM155 545l-56 25q30 43 30 72q0 39 -66 50l34 96q59 -11 93 -39.5t34 -74.5q0 -27 -17 -62.5t-52 -66.5zM432 568l-61 -23l-148 224
l117 22z" />
    <glyph glyph-name="uni1F23" unicode="&#x1f23;" horiz-adv-x="538" 
d="M474 0h-112v294q0 100 -91 100q-42 0 -69 -27t-27 -73v-294h-113v496h113v-52h3q23 26 58.5 41t70.5 15q78 0 122.5 -45t44.5 -130v-325zM190 569l-55 -25q-35 32 -52.5 67.5t-17.5 61.5q0 46 34 74.5t93 39.5l34 -96q-65 -11 -65 -50q0 -30 29 -72zM440 568l-62 -23
l-147 224l116 22z" />
    <glyph glyph-name="uni1F24" unicode="&#x1f24;" horiz-adv-x="538" 
d="M474 0h-112v294q0 100 -91 100q-42 0 -69 -27t-27 -73v-294h-113v496h113v-52h3q23 26 58.5 41t70.5 15q78 0 122.5 -45t44.5 -130v-325zM182 547l-56 26q30 39 30 72q0 38 -66 50l34 95q127 -23 127 -113q0 -26 -17 -62t-52 -68zM321 545l-62 23l95 223l114 -22z" />
    <glyph glyph-name="uni1F25" unicode="&#x1f25;" horiz-adv-x="538" 
d="M474 0h-112v294q0 100 -91 100q-42 0 -69 -27t-27 -73v-294h-113v496h113v-52h3q23 26 58.5 41t70.5 15q78 0 122.5 -45t44.5 -130v-325zM231 573l-56 -26q-35 31 -52.5 67t-17.5 62q0 46 34 74.5t93 39.5l34 -96q-65 -12 -65 -50q0 -33 30 -71zM329 545l-61 23l94 223
l114 -22z" />
    <glyph glyph-name="uni1F26" unicode="&#x1f26;" horiz-adv-x="538" 
d="M474 0h-112v294q0 100 -91 100q-42 0 -69 -27t-27 -73v-294h-113v496h113v-52h3q23 26 58.5 41t70.5 15q78 0 122.5 -45t44.5 -130v-325zM254 529l-56 22q37 40 37 64q0 27 -62 32l34 80q117 -16 117 -85q0 -54 -70 -113zM185 870q27 -1 73 -24.5t61 -23.5q31 0 64 46
l60 -34q-46 -99 -114 -99q-27 0 -74.5 23t-64.5 23q-32 0 -68 -45l-57 33q47 101 120 101z" />
    <glyph glyph-name="uni1F27" unicode="&#x1f27;" horiz-adv-x="538" 
d="M474 0h-112v294q0 100 -91 100q-42 0 -69 -27t-27 -73v-294h-113v496h113v-52h3q23 26 58.5 41t70.5 15q78 0 122.5 -45t44.5 -130v-325zM296 550l-56 -22q-70 60 -70 113q0 68 117 84l34 -80q-61 -4 -61 -32q0 -24 36 -63zM187 876q27 -1 73 -24.5t61 -23.5q31 0 64 46
l60 -34q-46 -99 -114 -99q-27 0 -74.5 23t-64.5 23q-32 0 -68 -45l-57 33q47 101 120 101z" />
    <glyph glyph-name="uni1F28" unicode="&#x1f28;" horiz-adv-x="655" 
d="M582 0h-120v298h-268v-298h-121v696h121v-292h268v292h120v-696zM-64 488l-57 25q30 42 30 71q0 39 -66 51l34 96q128 -25 128 -114q0 -26 -17.5 -62t-51.5 -67z" />
    <glyph glyph-name="uni1F29" unicode="&#x1f29;" horiz-adv-x="655" 
d="M582 0h-120v298h-268v-298h-121v696h121v-292h268v292h120v-696zM-33 513l-56 -25q-35 31 -52.5 67t-17.5 62q0 89 128 114l34 -96q-65 -12 -65 -51q0 -31 29 -71z" />
    <glyph glyph-name="uni1F2A" unicode="&#x1f2a;" horiz-adv-x="655" 
d="M582 0h-120v298h-268v-298h-121v696h121v-292h268v292h120v-696zM-271 495l-56 25q30 43 30 72q0 39 -66 50l34 96q59 -11 93 -39.5t34 -74.5q0 -27 -17 -62.5t-52 -66.5zM6 518l-61 -23l-148 224l117 22z" />
    <glyph glyph-name="uni1F2B" unicode="&#x1f2b;" horiz-adv-x="655" 
d="M582 0h-120v298h-268v-298h-121v696h121v-292h268v292h120v-696zM-247 519l-55 -25q-35 32 -52.5 67.5t-17.5 61.5q0 46 34 74.5t93 39.5l34 -96q-65 -11 -65 -50q0 -30 29 -72zM3 518l-62 -23l-147 224l116 22z" />
    <glyph glyph-name="uni1F2C" unicode="&#x1f2c;" horiz-adv-x="655" 
d="M582 0h-120v298h-268v-298h-121v696h121v-292h268v292h120v-696zM-271 497l-56 26q30 39 30 72q0 38 -66 50l34 95q127 -23 127 -113q0 -26 -17 -62t-52 -68zM-132 495l-62 23l95 223l114 -22z" />
    <glyph glyph-name="uni1F2D" unicode="&#x1f2d;" horiz-adv-x="655" 
d="M582 0h-120v298h-268v-298h-121v696h121v-292h268v292h120v-696zM-225 523l-56 -26q-35 31 -52.5 67t-17.5 62q0 46 34 74.5t93 39.5l34 -96q-65 -12 -65 -50q0 -33 30 -71zM-127 495l-61 23l94 223l114 -22z" />
    <glyph glyph-name="uni1F2E" unicode="&#x1f2e;" horiz-adv-x="655" 
d="M582 0h-120v298h-268v-298h-121v696h121v-292h268v292h120v-696zM-167 420l-56 22q37 40 37 64q0 27 -62 32l34 80q117 -16 117 -85q0 -54 -70 -113zM-236 761q27 -1 73 -24.5t61 -23.5q31 0 64 46l60 -34q-46 -99 -114 -99q-27 0 -74.5 23t-64.5 23q-32 0 -68 -45
l-57 33q47 101 120 101z" />
    <glyph glyph-name="uni1F2F" unicode="&#x1f2f;" horiz-adv-x="655" 
d="M582 0h-120v298h-268v-298h-121v696h121v-292h268v292h120v-696zM-128 442l-56 -22q-70 60 -70 113q0 68 117 84l34 -80q-61 -4 -61 -32q0 -24 36 -63zM-237 768q27 -1 73 -24.5t61 -23.5q31 0 64 46l60 -34q-46 -99 -114 -99q-27 0 -74.5 23t-64.5 23q-32 0 -68 -45
l-57 33q47 101 120 101z" />
    <glyph glyph-name="uni1F30" unicode="&#x1f30;" horiz-adv-x="263" 
d="M229 89l-2 -93q-12 -1 -35 -1q-76 0 -101.5 34.5t-25.5 98.5v367h112v-360q0 -27 10 -36.5t42 -9.5zM136 538l-57 25q30 42 30 71q0 39 -66 51l34 96q128 -25 128 -114q0 -26 -17.5 -62t-51.5 -67z" />
    <glyph glyph-name="uni1F31" unicode="&#x1f31;" horiz-adv-x="263" 
d="M229 89l-2 -93q-12 -1 -35 -1q-76 0 -101.5 34.5t-25.5 98.5v367h112v-360q0 -27 10 -36.5t42 -9.5zM167 563l-56 -25q-35 31 -52.5 67t-17.5 62q0 89 128 114l34 -96q-65 -12 -65 -51q0 -31 29 -71z" />
    <glyph glyph-name="uni1F32" unicode="&#x1f32;" horiz-adv-x="263" 
d="M229 89l-2 -93q-12 -1 -35 -1q-76 0 -101.5 34.5t-25.5 98.5v367h112v-360q0 -27 10 -36.5t42 -9.5zM29 545l-56 25q30 43 30 72q0 39 -66 50l34 96q59 -11 93 -39.5t34 -74.5q0 -27 -17 -62.5t-52 -66.5zM306 568l-61 -23l-148 224l117 22z" />
    <glyph glyph-name="uni1F33" unicode="&#x1f33;" horiz-adv-x="263" 
d="M229 89l-2 -93q-12 -1 -35 -1q-76 0 -101.5 34.5t-25.5 98.5v367h112v-360q0 -27 10 -36.5t42 -9.5zM62 571l-55 -25q-35 32 -52.5 67.5t-17.5 61.5q0 46 34 74.5t93 39.5l34 -96q-65 -11 -65 -50q0 -30 29 -72zM312 570l-62 -23l-147 224l116 22z" />
    <glyph glyph-name="uni1F34" unicode="&#x1f34;" horiz-adv-x="263" 
d="M229 89l-2 -93q-12 -1 -35 -1q-76 0 -101.5 34.5t-25.5 98.5v367h112v-360q0 -27 10 -36.5t42 -9.5zM74 547l-56 26q30 39 30 72q0 38 -66 50l34 95q127 -23 127 -113q0 -26 -17 -62t-52 -68zM213 545l-62 23l95 223l114 -22z" />
    <glyph glyph-name="uni1F35" unicode="&#x1f35;" horiz-adv-x="263" 
d="M229 89l-2 -93q-12 -1 -35 -1q-76 0 -101.5 34.5t-25.5 98.5v367h112v-360q0 -27 10 -36.5t42 -9.5zM109 573l-56 -26q-35 31 -52.5 67t-17.5 62q0 46 34 74.5t93 39.5l34 -96q-65 -12 -65 -50q0 -33 30 -71zM207 545l-61 23l94 223l114 -22z" />
    <glyph glyph-name="uni1F36" unicode="&#x1f36;" horiz-adv-x="263" 
d="M229 89l-2 -93q-12 -1 -35 -1q-76 0 -101.5 34.5t-25.5 98.5v367h112v-360q0 -27 10 -36.5t42 -9.5zM136 529l-56 22q37 40 37 64q0 27 -62 32l34 80q117 -16 117 -85q0 -54 -70 -113zM67 870q27 -1 73 -24.5t61 -23.5q31 0 64 46l60 -34q-46 -99 -114 -99
q-27 0 -74.5 23t-64.5 23q-32 0 -68 -45l-57 33q47 101 120 101z" />
    <glyph glyph-name="uni1F37" unicode="&#x1f37;" horiz-adv-x="263" 
d="M229 89l-2 -93q-12 -1 -35 -1q-76 0 -101.5 34.5t-25.5 98.5v367h112v-360q0 -27 10 -36.5t42 -9.5zM168 551l-56 -22q-70 60 -70 113q0 68 117 84l34 -80q-61 -4 -61 -32q0 -24 36 -63zM59 877q27 -1 73 -24.5t61 -23.5q31 0 64 46l60 -34q-46 -99 -114 -99
q-27 0 -74.5 23t-64.5 23q-32 0 -68 -45l-57 33q47 101 120 101z" />
    <glyph glyph-name="uni1F38" unicode="&#x1f38;" horiz-adv-x="268" 
d="M196 0h-122v696h122v-696zM-66 488l-57 25q30 42 30 71q0 39 -66 51l34 96q128 -25 128 -114q0 -26 -17.5 -62t-51.5 -67z" />
    <glyph glyph-name="uni1F39" unicode="&#x1f39;" horiz-adv-x="268" 
d="M196 0h-122v696h122v-696zM-17 513l-56 -25q-35 31 -52.5 67t-17.5 62q0 89 128 114l34 -96q-65 -12 -65 -51q0 -31 29 -71z" />
    <glyph glyph-name="uni1F3A" unicode="&#x1f3a;" horiz-adv-x="268" 
d="M196 0h-122v696h122v-696zM-246 495l-56 25q30 43 30 72q0 39 -66 50l34 96q59 -11 93 -39.5t34 -74.5q0 -27 -17 -62.5t-52 -66.5zM31 518l-61 -23l-148 224l117 22z" />
    <glyph glyph-name="uni1F3B" unicode="&#x1f3b;" horiz-adv-x="268" 
d="M196 0h-122v696h122v-696zM-217 519l-55 -25q-35 32 -52.5 67.5t-17.5 61.5q0 46 34 74.5t93 39.5l34 -96q-65 -11 -65 -50q0 -30 29 -72zM33 518l-62 -23l-147 224l116 22z" />
    <glyph glyph-name="uni1F3C" unicode="&#x1f3c;" horiz-adv-x="268" 
d="M196 0h-122v696h122v-696zM-238 497l-56 26q30 39 30 72q0 38 -66 50l34 95q127 -23 127 -113q0 -26 -17 -62t-52 -68zM-99 495l-62 23l95 223l114 -22z" />
    <glyph glyph-name="uni1F3D" unicode="&#x1f3d;" horiz-adv-x="268" 
d="M196 0h-122v696h122v-696zM-199 523l-56 -26q-35 31 -52.5 67t-17.5 62q0 46 34 74.5t93 39.5l34 -96q-65 -12 -65 -50q0 -33 30 -71zM-101 495l-61 23l94 223l114 -22z" />
    <glyph glyph-name="uni1F3E" unicode="&#x1f3e;" horiz-adv-x="268" 
d="M196 0h-122v696h122v-696zM-152 419l-56 22q37 40 37 64q0 27 -62 32l34 80q117 -16 117 -85q0 -54 -70 -113zM-221 760q27 -1 73 -24.5t61 -23.5q31 0 64 46l60 -34q-46 -99 -114 -99q-27 0 -74.5 23t-64.5 23q-32 0 -68 -45l-57 33q47 101 120 101z" />
    <glyph glyph-name="uni1F3F" unicode="&#x1f3f;" horiz-adv-x="268" 
d="M196 0h-122v696h122v-696zM-111 441l-56 -22q-70 60 -70 113q0 68 117 84l34 -80q-61 -4 -61 -32q0 -24 36 -63zM-220 767q27 -1 73 -24.5t61 -23.5q31 0 64 46l60 -34q-46 -99 -114 -99q-27 0 -74.5 23t-64.5 23q-32 0 -68 -45l-57 33q47 101 120 101z" />
    <glyph glyph-name="uni1F40" unicode="&#x1f40;" horiz-adv-x="515" 
d="M264 501q116 0 172 -83q38 -59 36 -163q0 -109 -34 -168q-28 -46 -77 -70t-109 -24q-118 0 -171 78q-41 61 -39 176q0 89 25 140q25 54 77 84t120 30zM260 399q-61 0 -87 -56q-15 -33 -17 -97q0 -65 15 -95q24 -55 84 -55q71 0 93 71q9 29 9 88q0 58 -13 87
q-22 57 -84 57zM257 538l-57 25q30 42 30 71q0 39 -66 51l34 96q128 -25 128 -114q0 -26 -17.5 -62t-51.5 -67z" />
    <glyph glyph-name="uni1F41" unicode="&#x1f41;" horiz-adv-x="515" 
d="M264 501q116 0 172 -83q38 -59 36 -163q0 -109 -34 -168q-28 -46 -77 -70t-109 -24q-118 0 -171 78q-41 61 -39 176q0 89 25 140q25 54 77 84t120 30zM260 399q-61 0 -87 -56q-15 -33 -17 -97q0 -65 15 -95q24 -55 84 -55q71 0 93 71q9 29 9 88q0 58 -13 87
q-22 57 -84 57zM302 563l-56 -25q-35 31 -52.5 67t-17.5 62q0 89 128 114l34 -96q-65 -12 -65 -51q0 -31 29 -71z" />
    <glyph glyph-name="uni1F42" unicode="&#x1f42;" horiz-adv-x="515" 
d="M264 501q116 0 172 -83q38 -59 36 -163q0 -109 -34 -168q-28 -46 -77 -70t-109 -24q-118 0 -171 78q-41 61 -39 176q0 89 25 140q25 54 77 84t120 30zM260 399q-61 0 -87 -56q-15 -33 -17 -97q0 -65 15 -95q24 -55 84 -55q71 0 93 71q9 29 9 88q0 58 -13 87
q-22 57 -84 57zM151 545l-56 25q30 43 30 72q0 39 -66 50l34 96q59 -11 93 -39.5t34 -74.5q0 -27 -17 -62.5t-52 -66.5zM428 568l-61 -23l-148 224l117 22z" />
    <glyph glyph-name="uni1F43" unicode="&#x1f43;" horiz-adv-x="515" 
d="M264 501q116 0 172 -83q38 -59 36 -163q0 -109 -34 -168q-28 -46 -77 -70t-109 -24q-118 0 -171 78q-41 61 -39 176q0 89 25 140q25 54 77 84t120 30zM260 399q-61 0 -87 -56q-15 -33 -17 -97q0 -65 15 -95q24 -55 84 -55q71 0 93 71q9 29 9 88q0 58 -13 87
q-22 57 -84 57zM193 569l-55 -25q-35 32 -52.5 67.5t-17.5 61.5q0 46 34 74.5t93 39.5l34 -96q-65 -11 -65 -50q0 -30 29 -72zM443 568l-62 -23l-147 224l116 22z" />
    <glyph glyph-name="uni1F44" unicode="&#x1f44;" horiz-adv-x="515" 
d="M264 501q116 0 172 -83q38 -59 36 -163q0 -109 -34 -168q-28 -46 -77 -70t-109 -24q-118 0 -171 78q-41 61 -39 176q0 89 25 140q25 54 77 84t120 30zM260 399q-61 0 -87 -56q-15 -33 -17 -97q0 -65 15 -95q24 -55 84 -55q71 0 93 71q9 29 9 88q0 58 -13 87
q-22 57 -84 57zM201 547l-56 26q30 39 30 72q0 38 -66 50l34 95q127 -23 127 -113q0 -26 -17 -62t-52 -68zM340 545l-62 23l95 223l114 -22z" />
    <glyph glyph-name="uni1F45" unicode="&#x1f45;" horiz-adv-x="515" 
d="M264 501q116 0 172 -83q38 -59 36 -163q0 -109 -34 -168q-28 -46 -77 -70t-109 -24q-118 0 -171 78q-41 61 -39 176q0 89 25 140q25 54 77 84t120 30zM260 399q-61 0 -87 -56q-15 -33 -17 -97q0 -65 15 -95q24 -55 84 -55q71 0 93 71q9 29 9 88q0 58 -13 87
q-22 57 -84 57zM246 573l-56 -26q-35 31 -52.5 67t-17.5 62q0 46 34 74.5t93 39.5l34 -96q-65 -12 -65 -50q0 -33 30 -71zM344 545l-61 23l94 223l114 -22z" />
    <glyph glyph-name="uni1F48" unicode="&#x1f48;" horiz-adv-x="610" 
d="M304 701q118 0 189 -74t71 -190v-178q0 -121 -70.5 -193t-189.5 -72q-124 0 -191.5 76t-67.5 189v178q0 112 67.5 188t191.5 76zM304 587q-66 0 -101.5 -42.5t-35.5 -101.5v-187q0 -62 35.5 -105.5t101.5 -43.5q62 0 99.5 42t37.5 107v187q0 61 -37 102.5t-100 41.5z
M-68 488l-57 25q30 42 30 71q0 39 -66 51l34 96q128 -25 128 -114q0 -26 -17.5 -62t-51.5 -67z" />
    <glyph glyph-name="uni1F49" unicode="&#x1f49;" horiz-adv-x="610" 
d="M304 701q118 0 189 -74t71 -190v-178q0 -121 -70.5 -193t-189.5 -72q-124 0 -191.5 76t-67.5 189v178q0 112 67.5 188t191.5 76zM304 587q-66 0 -101.5 -42.5t-35.5 -101.5v-187q0 -62 35.5 -105.5t101.5 -43.5q62 0 99.5 42t37.5 107v187q0 61 -37 102.5t-100 41.5z
M-18 513l-56 -25q-35 31 -52.5 67t-17.5 62q0 89 128 114l34 -96q-65 -12 -65 -51q0 -31 29 -71z" />
    <glyph glyph-name="uni1F4A" unicode="&#x1f4a;" horiz-adv-x="610" 
d="M304 701q118 0 189 -74t71 -190v-178q0 -121 -70.5 -193t-189.5 -72q-124 0 -191.5 76t-67.5 189v178q0 112 67.5 188t191.5 76zM304 587q-66 0 -101.5 -42.5t-35.5 -101.5v-187q0 -62 35.5 -105.5t101.5 -43.5q62 0 99.5 42t37.5 107v187q0 61 -37 102.5t-100 41.5z
M-263 495l-56 25q30 43 30 72q0 39 -66 50l34 96q59 -11 93 -39.5t34 -74.5q0 -27 -17 -62.5t-52 -66.5zM14 518l-61 -23l-148 224l117 22z" />
    <glyph glyph-name="uni1F4B" unicode="&#x1f4b;" horiz-adv-x="610" 
d="M304 701q118 0 189 -74t71 -190v-178q0 -121 -70.5 -193t-189.5 -72q-124 0 -191.5 76t-67.5 189v178q0 112 67.5 188t191.5 76zM304 587q-66 0 -101.5 -42.5t-35.5 -101.5v-187q0 -62 35.5 -105.5t101.5 -43.5q62 0 99.5 42t37.5 107v187q0 61 -37 102.5t-100 41.5z
M-234 519l-55 -25q-35 32 -52.5 67.5t-17.5 61.5q0 46 34 74.5t93 39.5l34 -96q-65 -11 -65 -50q0 -30 29 -72zM16 518l-62 -23l-147 224l116 22z" />
    <glyph glyph-name="uni1F4C" unicode="&#x1f4c;" horiz-adv-x="610" 
d="M304 701q118 0 189 -74t71 -190v-178q0 -121 -70.5 -193t-189.5 -72q-124 0 -191.5 76t-67.5 189v178q0 112 67.5 188t191.5 76zM304 587q-66 0 -101.5 -42.5t-35.5 -101.5v-187q0 -62 35.5 -105.5t101.5 -43.5q62 0 99.5 42t37.5 107v187q0 61 -37 102.5t-100 41.5z
M-231 497l-56 26q30 39 30 72q0 38 -66 50l34 95q127 -23 127 -113q0 -26 -17 -62t-52 -68zM-92 495l-62 23l95 223l114 -22z" />
    <glyph glyph-name="uni1F4D" unicode="&#x1f4d;" horiz-adv-x="610" 
d="M304 701q118 0 189 -74t71 -190v-178q0 -121 -70.5 -193t-189.5 -72q-124 0 -191.5 76t-67.5 189v178q0 112 67.5 188t191.5 76zM304 587q-66 0 -101.5 -42.5t-35.5 -101.5v-187q0 -62 35.5 -105.5t101.5 -43.5q62 0 99.5 42t37.5 107v187q0 61 -37 102.5t-100 41.5z
M-191 523l-56 -26q-35 31 -52.5 67t-17.5 62q0 46 34 74.5t93 39.5l34 -96q-65 -12 -65 -50q0 -33 30 -71zM-93 495l-61 23l94 223l114 -22z" />
    <glyph glyph-name="uni1F50" unicode="&#x1f50;" horiz-adv-x="540" 
d="M477 178q0 -82 -58 -132.5t-149 -50.5q-89 0 -147.5 51t-58.5 132v317h113v-294q0 -46 26.5 -73t67.5 -27t67 27t26 73v294h113v-317zM285 538l-57 25q30 42 30 71q0 39 -66 51l34 96q128 -25 128 -114q0 -26 -17.5 -62t-51.5 -67z" />
    <glyph glyph-name="uni1F51" unicode="&#x1f51;" horiz-adv-x="540" 
d="M477 178q0 -82 -58 -132.5t-149 -50.5q-89 0 -147.5 51t-58.5 132v317h113v-294q0 -46 26.5 -73t67.5 -27t67 27t26 73v294h113v-317zM323 563l-56 -25q-35 31 -52.5 67t-17.5 62q0 89 128 114l34 -96q-65 -12 -65 -51q0 -31 29 -71z" />
    <glyph glyph-name="uni1F52" unicode="&#x1f52;" horiz-adv-x="540" 
d="M477 178q0 -82 -58 -132.5t-149 -50.5q-89 0 -147.5 51t-58.5 132v317h113v-294q0 -46 26.5 -73t67.5 -27t67 27t26 73v294h113v-317zM161 545l-56 25q30 43 30 72q0 39 -66 50l34 96q59 -11 93 -39.5t34 -74.5q0 -27 -17 -62.5t-52 -66.5zM438 568l-61 -23l-148 224
l117 22z" />
    <glyph glyph-name="uni1F53" unicode="&#x1f53;" horiz-adv-x="540" 
d="M477 178q0 -82 -58 -132.5t-149 -50.5q-89 0 -147.5 51t-58.5 132v317h113v-294q0 -46 26.5 -73t67.5 -27t67 27t26 73v294h113v-317zM202 569l-55 -25q-35 32 -52.5 67.5t-17.5 61.5q0 46 34 74.5t93 39.5l34 -96q-65 -11 -65 -50q0 -30 29 -72zM452 568l-62 -23
l-147 224l116 22z" />
    <glyph glyph-name="uni1F54" unicode="&#x1f54;" horiz-adv-x="540" 
d="M477 178q0 -82 -58 -132.5t-149 -50.5q-89 0 -147.5 51t-58.5 132v317h113v-294q0 -46 26.5 -73t67.5 -27t67 27t26 73v294h113v-317zM221 547l-56 26q30 39 30 72q0 38 -66 50l34 95q127 -23 127 -113q0 -26 -17 -62t-52 -68zM360 545l-62 23l95 223l114 -22z" />
    <glyph glyph-name="uni1F55" unicode="&#x1f55;" horiz-adv-x="540" 
d="M477 178q0 -82 -58 -132.5t-149 -50.5q-89 0 -147.5 51t-58.5 132v317h113v-294q0 -46 26.5 -73t67.5 -27t67 27t26 73v294h113v-317zM256 573l-56 -26q-35 31 -52.5 67t-17.5 62q0 46 34 74.5t93 39.5l34 -96q-65 -12 -65 -50q0 -33 30 -71zM354 545l-61 23l94 223
l114 -22z" />
    <glyph glyph-name="uni1F56" unicode="&#x1f56;" horiz-adv-x="540" 
d="M477 178q0 -82 -58 -132.5t-149 -50.5q-89 0 -147.5 51t-58.5 132v317h113v-294q0 -46 26.5 -73t67.5 -27t67 27t26 73v294h113v-317zM277 529l-56 22q37 40 37 64q0 27 -62 32l34 80q117 -16 117 -85q0 -54 -70 -113zM208 870q27 -1 73 -24.5t61 -23.5q31 0 64 46
l60 -34q-46 -99 -114 -99q-27 0 -74.5 23t-64.5 23q-32 0 -68 -45l-57 33q47 101 120 101z" />
    <glyph glyph-name="uni1F57" unicode="&#x1f57;" horiz-adv-x="540" 
d="M477 178q0 -82 -58 -132.5t-149 -50.5q-89 0 -147.5 51t-58.5 132v317h113v-294q0 -46 26.5 -73t67.5 -27t67 27t26 73v294h113v-317zM313 551l-56 -22q-70 60 -70 113q0 68 117 84l34 -80q-61 -4 -61 -32q0 -24 36 -63zM204 877q27 -1 73 -24.5t61 -23.5q31 0 64 46
l60 -34q-46 -99 -114 -99q-27 0 -74.5 23t-64.5 23q-32 0 -68 -45l-57 33q47 101 120 101z" />
    <glyph glyph-name="uni1F59" unicode="&#x1f59;" horiz-adv-x="557" 
d="M553 696q-144 -274 -217 -410v-286h-115v286q-40 74 -113 213t-104 197h129l84 -172q21 -44 61 -134h2l62 137l83 169h128zM-59 513l-56 -25q-35 31 -52.5 67t-17.5 62q0 89 128 114l34 -96q-65 -12 -65 -51q0 -31 29 -71z" />
    <glyph glyph-name="uni1F5B" unicode="&#x1f5b;" horiz-adv-x="557" 
d="M553 696q-144 -274 -217 -410v-286h-115v286q-40 74 -113 213t-104 197h129l84 -172q21 -44 61 -134h2l62 137l83 169h128zM-248 519l-55 -25q-35 32 -52.5 67.5t-17.5 61.5q0 46 34 74.5t93 39.5l34 -96q-65 -11 -65 -50q0 -30 29 -72zM2 518l-62 -23l-147 224l116 22z
" />
    <glyph glyph-name="uni1F5D" unicode="&#x1f5d;" horiz-adv-x="557" 
d="M553 696q-144 -274 -217 -410v-286h-115v286q-40 74 -113 213t-104 197h129l84 -172q21 -44 61 -134h2l62 137l83 169h128zM-259 523l-56 -26q-35 31 -52.5 67t-17.5 62q0 46 34 74.5t93 39.5l34 -96q-65 -12 -65 -50q0 -33 30 -71zM-161 495l-61 23l94 223l114 -22z" />
    <glyph glyph-name="uni1F5F" unicode="&#x1f5f;" horiz-adv-x="557" 
d="M553 696q-144 -274 -217 -410v-286h-115v286q-40 74 -113 213t-104 197h129l84 -172q21 -44 61 -134h2l62 137l83 169h128zM-283 769q27 -1 73 -24.5t61 -23.5q31 0 64 46l60 -34q-46 -99 -114 -99q-27 0 -74.5 23t-64.5 23q-32 0 -68 -45l-57 33q47 101 120 101z
M-174 443l-56 -22q-70 60 -70 113q0 68 117 84l34 -80q-61 -4 -61 -32q0 -24 36 -63z" />
    <glyph glyph-name="uni1F60" unicode="&#x1f60;" horiz-adv-x="755" 
d="M513 394l15 106q189 -9 189 -252q0 -252 -196 -252q-92 0 -139 74h-2q-53 -75 -136 -75q-202 0 -202 252q0 240 190 253l15 -106q-50 -7 -71 -44t-21 -106q0 -59 26.5 -99t74.5 -40q30 0 48 26.5t18 66.5v157h110v-157q0 -42 23.5 -70.5t63.5 -28.5q84 0 84 146
q0 70 -20 107t-70 42zM387 538l-57 25q30 42 30 71q0 39 -66 51l34 96q128 -25 128 -114q0 -26 -17.5 -62t-51.5 -67z" />
    <glyph glyph-name="uni1F61" unicode="&#x1f61;" horiz-adv-x="755" 
d="M513 394l15 106q189 -9 189 -252q0 -252 -196 -252q-92 0 -139 74h-2q-53 -75 -136 -75q-202 0 -202 252q0 240 190 253l15 -106q-50 -7 -71 -44t-21 -106q0 -59 26.5 -99t74.5 -40q30 0 48 26.5t18 66.5v157h110v-157q0 -42 23.5 -70.5t63.5 -28.5q84 0 84 146
q0 70 -20 107t-70 42zM426 563l-56 -25q-35 31 -52.5 67t-17.5 62q0 89 128 114l34 -96q-65 -12 -65 -51q0 -31 29 -71z" />
    <glyph glyph-name="uni1F62" unicode="&#x1f62;" horiz-adv-x="755" 
d="M513 394l15 106q189 -9 189 -252q0 -252 -196 -252q-92 0 -139 74h-2q-53 -75 -136 -75q-202 0 -202 252q0 240 190 253l15 -106q-50 -7 -71 -44t-21 -106q0 -59 26.5 -99t74.5 -40q30 0 48 26.5t18 66.5v157h110v-157q0 -42 23.5 -70.5t63.5 -28.5q84 0 84 146
q0 70 -20 107t-70 42zM277 545l-56 25q30 43 30 72q0 39 -66 50l34 96q59 -11 93 -39.5t34 -74.5q0 -27 -17 -62.5t-52 -66.5zM554 568l-61 -23l-148 224l117 22z" />
    <glyph glyph-name="uni1F63" unicode="&#x1f63;" horiz-adv-x="755" 
d="M513 394l15 106q189 -9 189 -252q0 -252 -196 -252q-92 0 -139 74h-2q-53 -75 -136 -75q-202 0 -202 252q0 240 190 253l15 -106q-50 -7 -71 -44t-21 -106q0 -59 26.5 -99t74.5 -40q30 0 48 26.5t18 66.5v157h110v-157q0 -42 23.5 -70.5t63.5 -28.5q84 0 84 146
q0 70 -20 107t-70 42zM315 569l-55 -25q-35 32 -52.5 67.5t-17.5 61.5q0 46 34 74.5t93 39.5l34 -96q-65 -11 -65 -50q0 -30 29 -72zM565 568l-62 -23l-147 224l116 22z" />
    <glyph glyph-name="uni1F64" unicode="&#x1f64;" horiz-adv-x="755" 
d="M513 394l15 106q189 -9 189 -252q0 -252 -196 -252q-92 0 -139 74h-2q-53 -75 -136 -75q-202 0 -202 252q0 240 190 253l15 -106q-50 -7 -71 -44t-21 -106q0 -59 26.5 -99t74.5 -40q30 0 48 26.5t18 66.5v157h110v-157q0 -42 23.5 -70.5t63.5 -28.5q84 0 84 146
q0 70 -20 107t-70 42zM322 547l-56 26q30 39 30 72q0 38 -66 50l34 95q127 -23 127 -113q0 -26 -17 -62t-52 -68zM461 545l-62 23l95 223l114 -22z" />
    <glyph glyph-name="uni1F65" unicode="&#x1f65;" horiz-adv-x="755" 
d="M513 394l15 106q189 -9 189 -252q0 -252 -196 -252q-92 0 -139 74h-2q-53 -75 -136 -75q-202 0 -202 252q0 240 190 253l15 -106q-50 -7 -71 -44t-21 -106q0 -59 26.5 -99t74.5 -40q30 0 48 26.5t18 66.5v157h110v-157q0 -42 23.5 -70.5t63.5 -28.5q84 0 84 146
q0 70 -20 107t-70 42zM364 573l-56 -26q-35 31 -52.5 67t-17.5 62q0 46 34 74.5t93 39.5l34 -96q-65 -12 -65 -50q0 -33 30 -71zM462 545l-61 23l94 223l114 -22z" />
    <glyph glyph-name="uni1F66" unicode="&#x1f66;" horiz-adv-x="755" 
d="M513 394l15 106q189 -9 189 -252q0 -252 -196 -252q-92 0 -139 74h-2q-53 -75 -136 -75q-202 0 -202 252q0 240 190 253l15 -106q-50 -7 -71 -44t-21 -106q0 -59 26.5 -99t74.5 -40q30 0 48 26.5t18 66.5v157h110v-157q0 -42 23.5 -70.5t63.5 -28.5q84 0 84 146
q0 70 -20 107t-70 42zM320 870q27 -1 73 -24.5t61 -23.5q31 0 64 46l60 -34q-46 -99 -114 -99q-27 0 -74.5 23t-64.5 23q-32 0 -68 -45l-57 33q47 101 120 101zM389 529l-56 22q37 40 37 64q0 27 -62 32l34 80q117 -16 117 -85q0 -54 -70 -113z" />
    <glyph glyph-name="uni1F67" unicode="&#x1f67;" horiz-adv-x="755" 
d="M513 394l15 106q189 -9 189 -252q0 -252 -196 -252q-92 0 -139 74h-2q-53 -75 -136 -75q-202 0 -202 252q0 240 190 253l15 -106q-50 -7 -71 -44t-21 -106q0 -59 26.5 -99t74.5 -40q30 0 48 26.5t18 66.5v157h110v-157q0 -42 23.5 -70.5t63.5 -28.5q84 0 84 146
q0 70 -20 107t-70 42zM317 877q27 -1 73 -24.5t61 -23.5q31 0 64 46l60 -34q-46 -99 -114 -99q-27 0 -74.5 23t-64.5 23q-32 0 -68 -45l-57 33q47 101 120 101zM426 551l-56 -22q-70 60 -70 113q0 68 117 84l34 -80q-61 -4 -61 -32q0 -24 36 -63z" />
    <glyph glyph-name="uni1F68" unicode="&#x1f68;" horiz-adv-x="604" 
d="M345 120q92 22 92 167v156q0 62 -37 104t-101 42q-67 0 -102 -43t-35 -103v-156q0 -140 94 -168v-119h-230v109h74v1l1 2q-60 45 -60 171v154q0 112 67 188t191 76q118 0 189 -74t71 -190v-154q0 -117 -61 -173q1 0 1 -1h76v-109h-230v120zM-70 488l-57 25q30 42 30 71
q0 39 -66 51l34 96q128 -25 128 -114q0 -26 -17.5 -62t-51.5 -67z" />
    <glyph glyph-name="uni1F69" unicode="&#x1f69;" horiz-adv-x="604" 
d="M345 120q92 22 92 167v156q0 62 -37 104t-101 42q-67 0 -102 -43t-35 -103v-156q0 -140 94 -168v-119h-230v109h74v1l1 2q-60 45 -60 171v154q0 112 67 188t191 76q118 0 189 -74t71 -190v-154q0 -117 -61 -173q1 0 1 -1h76v-109h-230v120zM-25 513l-56 -25
q-35 31 -52.5 67t-17.5 62q0 89 128 114l34 -96q-65 -12 -65 -51q0 -31 29 -71z" />
    <glyph glyph-name="uni1F6A" unicode="&#x1f6a;" horiz-adv-x="604" 
d="M345 120q92 22 92 167v156q0 62 -37 104t-101 42q-67 0 -102 -43t-35 -103v-156q0 -140 94 -168v-119h-230v109h74v1l1 2q-60 45 -60 171v154q0 112 67 188t191 76q118 0 189 -74t71 -190v-154q0 -117 -61 -173q1 0 1 -1h76v-109h-230v120zM-264 495l-56 25q30 43 30 72
q0 39 -66 50l34 96q59 -11 93 -39.5t34 -74.5q0 -27 -17 -62.5t-52 -66.5zM13 518l-61 -23l-148 224l117 22z" />
    <glyph glyph-name="uni1F6B" unicode="&#x1f6b;" horiz-adv-x="604" 
d="M345 120q92 22 92 167v156q0 62 -37 104t-101 42q-67 0 -102 -43t-35 -103v-156q0 -140 94 -168v-119h-230v109h74v1l1 2q-60 45 -60 171v154q0 112 67 188t191 76q118 0 189 -74t71 -190v-154q0 -117 -61 -173q1 0 1 -1h76v-109h-230v120zM-239 519l-55 -25
q-35 32 -52.5 67.5t-17.5 61.5q0 46 34 74.5t93 39.5l34 -96q-65 -11 -65 -50q0 -30 29 -72zM11 518l-62 -23l-147 224l116 22z" />
    <glyph glyph-name="uni1F6C" unicode="&#x1f6c;" horiz-adv-x="604" 
d="M345 120q92 22 92 167v156q0 62 -37 104t-101 42q-67 0 -102 -43t-35 -103v-156q0 -140 94 -168v-119h-230v109h74v1l1 2q-60 45 -60 171v154q0 112 67 188t191 76q118 0 189 -74t71 -190v-154q0 -117 -61 -173q1 0 1 -1h76v-109h-230v120zM-218 497l-56 26q30 39 30 72
q0 38 -66 50l34 95q127 -23 127 -113q0 -26 -17 -62t-52 -68zM-79 495l-62 23l95 223l114 -22z" />
    <glyph glyph-name="uni1F6D" unicode="&#x1f6d;" horiz-adv-x="604" 
d="M345 120q92 22 92 167v156q0 62 -37 104t-101 42q-67 0 -102 -43t-35 -103v-156q0 -140 94 -168v-119h-230v109h74v1l1 2q-60 45 -60 171v154q0 112 67 188t191 76q118 0 189 -74t71 -190v-154q0 -117 -61 -173q1 0 1 -1h76v-109h-230v120zM-172 523l-56 -26
q-35 31 -52.5 67t-17.5 62q0 46 34 74.5t93 39.5l34 -96q-65 -12 -65 -50q0 -33 30 -71zM-74 495l-61 23l94 223l114 -22z" />
    <glyph glyph-name="uni1F6E" unicode="&#x1f6e;" horiz-adv-x="604" 
d="M345 120q92 22 92 167v156q0 62 -37 104t-101 42q-67 0 -102 -43t-35 -103v-156q0 -140 94 -168v-119h-230v109h74v1l1 2q-60 45 -60 171v154q0 112 67 188t191 76q118 0 189 -74t71 -190v-154q0 -117 -61 -173q1 0 1 -1h76v-109h-230v120zM-116 418l-56 22q37 40 37 64
q0 27 -62 32l34 80q117 -16 117 -85q0 -54 -70 -113zM-185 759q27 -1 73 -24.5t61 -23.5q31 0 64 46l60 -34q-46 -99 -114 -99q-27 0 -74.5 23t-64.5 23q-32 0 -68 -45l-57 33q47 101 120 101z" />
    <glyph glyph-name="uni1F6F" unicode="&#x1f6f;" horiz-adv-x="604" 
d="M345 120q92 22 92 167v156q0 62 -37 104t-101 42q-67 0 -102 -43t-35 -103v-156q0 -140 94 -168v-119h-230v109h74v1l1 2q-60 45 -60 171v154q0 112 67 188t191 76q118 0 189 -74t71 -190v-154q0 -117 -61 -173q1 0 1 -1h76v-109h-230v120zM-71 441l-56 -22
q-70 60 -70 113q0 68 117 84l34 -80q-61 -4 -61 -32q0 -24 36 -63zM-180 767q27 -1 73 -24.5t61 -23.5q31 0 64 46l60 -34q-46 -99 -114 -99q-27 0 -74.5 23t-64.5 23q-32 0 -68 -45l-57 33q47 101 120 101z" />
    <glyph glyph-name="uni1F70" unicode="&#x1f70;" horiz-adv-x="519" 
d="M45 240q0 259 189 259q71 0 111 -49l2 1v44h113v-495h-113v47l-2 1q-49 -54 -116 -54q-184 0 -184 246zM161 246q0 -30 3 -51.5t11.5 -45t28.5 -36t51 -12.5q92 0 92 145q0 148 -92 148q-31 0 -51 -13t-29 -37.5t-11.5 -46t-2.5 -51.5zM320 568l-62 -23l-147 224l117 22z
" />
    <glyph glyph-name="uni1F71" unicode="&#x1f71;" horiz-adv-x="519" 
d="M45 240q0 259 189 259q71 0 111 -49l2 1v44h113v-495h-113v47l-2 1q-49 -54 -116 -54q-184 0 -184 246zM161 246q0 -30 3 -51.5t11.5 -45t28.5 -36t51 -12.5q92 0 92 145q0 148 -92 148q-31 0 -51 -13t-29 -37.5t-11.5 -46t-2.5 -51.5zM279 545l-62 23l95 223l114 -22z
" />
    <glyph glyph-name="uni1F72" unicode="&#x1f72;" horiz-adv-x="458" 
d="M441 69q-78 -74 -198 -74q-90 0 -144 40t-54 111q0 29 18.5 62t54.5 48v2q-34 11 -50 38t-16 57q0 63 51 105t142 42q118 0 187 -69l-69 -80q-44 44 -113 44q-34 0 -58.5 -14.5t-24.5 -38.5q0 -45 68 -45h72v-88h-74q-35 0 -54.5 -15t-19.5 -39q0 -23 24 -39.5t69 -16.5
q74 0 116 48zM295 568l-62 -23l-147 224l117 22z" />
    <glyph glyph-name="uni1F73" unicode="&#x1f73;" horiz-adv-x="458" 
d="M441 69q-78 -74 -198 -74q-90 0 -144 40t-54 111q0 29 18.5 62t54.5 48v2q-34 11 -50 38t-16 57q0 63 51 105t142 42q118 0 187 -69l-69 -80q-44 44 -113 44q-34 0 -58.5 -14.5t-24.5 -38.5q0 -45 68 -45h72v-88h-74q-35 0 -54.5 -15t-19.5 -39q0 -23 24 -39.5t69 -16.5
q74 0 116 48zM243 545l-62 23l95 223l114 -22z" />
    <glyph glyph-name="uni1F74" unicode="&#x1f74;" horiz-adv-x="538" 
d="M474 0h-112v294q0 100 -91 100q-42 0 -69 -27t-27 -73v-294h-113v496h113v-52h3q23 26 58.5 41t70.5 15q78 0 122.5 -45t44.5 -130v-325zM315 568l-62 -23l-147 224l117 22z" />
    <glyph glyph-name="uni1F75" unicode="&#x1f75;" horiz-adv-x="538" 
d="M474 0h-112v294q0 100 -91 100q-42 0 -69 -27t-27 -73v-294h-113v496h113v-52h3q23 26 58.5 41t70.5 15q78 0 122.5 -45t44.5 -130v-325zM261 545l-62 23l95 223l114 -22z" />
    <glyph glyph-name="uni1F76" unicode="&#x1f76;" horiz-adv-x="263" 
d="M229 89l-2 -93q-12 -1 -35 -1q-76 0 -101.5 34.5t-25.5 98.5v367h112v-360q0 -27 10 -36.5t42 -9.5zM177 568l-62 -23l-147 224l117 22z" />
    <glyph glyph-name="uni1F77" unicode="&#x1f77;" horiz-adv-x="263" 
d="M229 89l-2 -93q-12 -1 -35 -1q-76 0 -101.5 34.5t-25.5 98.5v367h112v-360q0 -27 10 -36.5t42 -9.5zM147 545l-62 23l95 223l114 -22z" />
    <glyph glyph-name="uni1F78" unicode="&#x1f78;" horiz-adv-x="515" 
d="M264 501q116 0 172 -83q38 -59 36 -163q0 -109 -34 -168q-28 -46 -77 -70t-109 -24q-118 0 -171 78q-41 61 -39 176q0 89 25 140q25 54 77 84t120 30zM260 399q-61 0 -87 -56q-15 -33 -17 -97q0 -65 15 -95q24 -55 84 -55q71 0 93 71q9 29 9 88q0 58 -13 87
q-22 57 -84 57zM300 568l-62 -23l-147 224l117 22z" />
    <glyph glyph-name="uni1F79" unicode="&#x1f79;" horiz-adv-x="515" 
d="M264 501q116 0 172 -83q38 -59 36 -163q0 -109 -34 -168q-28 -46 -77 -70t-109 -24q-118 0 -171 78q-41 61 -39 176q0 89 25 140q25 54 77 84t120 30zM260 399q-61 0 -87 -56q-15 -33 -17 -97q0 -65 15 -95q24 -55 84 -55q71 0 93 71q9 29 9 88q0 58 -13 87
q-22 57 -84 57zM278 545l-62 23l95 223l114 -22z" />
    <glyph glyph-name="uni1F7A" unicode="&#x1f7a;" horiz-adv-x="540" 
d="M477 178q0 -82 -58 -132.5t-149 -50.5q-89 0 -147.5 51t-58.5 132v317h113v-294q0 -46 26.5 -73t67.5 -27t67 27t26 73v294h113v-317zM325 568l-62 -23l-147 224l117 22z" />
    <glyph glyph-name="uni1F7B" unicode="&#x1f7b;" horiz-adv-x="540" 
d="M477 178q0 -82 -58 -132.5t-149 -50.5q-89 0 -147.5 51t-58.5 132v317h113v-294q0 -46 26.5 -73t67.5 -27t67 27t26 73v294h113v-317zM279 545l-62 23l95 223l114 -22z" />
    <glyph glyph-name="uni1F7C" unicode="&#x1f7c;" horiz-adv-x="755" 
d="M513 394l15 106q189 -9 189 -252q0 -252 -196 -252q-92 0 -139 74h-2q-53 -75 -136 -75q-202 0 -202 252q0 240 190 253l15 -106q-50 -7 -71 -44t-21 -106q0 -59 26.5 -99t74.5 -40q30 0 48 26.5t18 66.5v157h110v-157q0 -42 23.5 -70.5t63.5 -28.5q84 0 84 146
q0 70 -20 107t-70 42zM424 568l-62 -23l-147 224l117 22z" />
    <glyph glyph-name="uni1F7D" unicode="&#x1f7d;" horiz-adv-x="755" 
d="M513 394l15 106q189 -9 189 -252q0 -252 -196 -252q-92 0 -139 74h-2q-53 -75 -136 -75q-202 0 -202 252q0 240 190 253l15 -106q-50 -7 -71 -44t-21 -106q0 -59 26.5 -99t74.5 -40q30 0 48 26.5t18 66.5v157h110v-157q0 -42 23.5 -70.5t63.5 -28.5q84 0 84 146
q0 70 -20 107t-70 42zM389 545l-62 23l95 223l114 -22z" />
    <glyph glyph-name="uni1F80" unicode="&#x1f80;" horiz-adv-x="519" 
d="M45 240q0 259 189 259q71 0 111 -49l2 1v44h113v-495h-113v47l-2 1q-49 -54 -116 -54q-184 0 -184 246zM161 246q0 -30 3 -51.5t11.5 -45t28.5 -36t51 -12.5q92 0 92 145q0 148 -92 148q-31 0 -51 -13t-29 -37.5t-11.5 -46t-2.5 -51.5zM285 538l-57 25q30 42 30 71
q0 39 -66 51l34 96q128 -25 128 -114q0 -26 -17.5 -62t-51.5 -67zM219 -53h96v-84q0 -42 46 -42h21v-89h-42q-121 0 -121 113v102z" />
    <glyph glyph-name="uni1F81" unicode="&#x1f81;" horiz-adv-x="519" 
d="M45 240q0 259 189 259q71 0 111 -49l2 1v44h113v-495h-113v47l-2 1q-49 -54 -116 -54q-184 0 -184 246zM161 246q0 -30 3 -51.5t11.5 -45t28.5 -36t51 -12.5q92 0 92 145q0 148 -92 148q-31 0 -51 -13t-29 -37.5t-11.5 -46t-2.5 -51.5zM326 563l-56 -25q-35 31 -52.5 67
t-17.5 62q0 89 128 114l34 -96q-65 -12 -65 -51q0 -31 29 -71zM219 -53h96v-84q0 -42 46 -42h21v-89h-42q-121 0 -121 113v102z" />
    <glyph glyph-name="uni1F82" unicode="&#x1f82;" horiz-adv-x="519" 
d="M45 240q0 259 189 259q71 0 111 -49l2 1v44h113v-495h-113v47l-2 1q-49 -54 -116 -54q-184 0 -184 246zM161 246q0 -30 3 -51.5t11.5 -45t28.5 -36t51 -12.5q92 0 92 145q0 148 -92 148q-31 0 -51 -13t-29 -37.5t-11.5 -46t-2.5 -51.5zM166 545l-56 25q30 43 30 72
q0 39 -66 50l34 96q59 -11 93 -39.5t34 -74.5q0 -27 -17 -62.5t-52 -66.5zM443 568l-61 -23l-148 224l117 22zM219 -53h96v-84q0 -42 46 -42h21v-89h-42q-121 0 -121 113v102z" />
    <glyph glyph-name="uni1F83" unicode="&#x1f83;" horiz-adv-x="519" 
d="M45 240q0 259 189 259q71 0 111 -49l2 1v44h113v-495h-113v47l-2 1q-49 -54 -116 -54q-184 0 -184 246zM161 246q0 -30 3 -51.5t11.5 -45t28.5 -36t51 -12.5q92 0 92 145q0 148 -92 148q-31 0 -51 -13t-29 -37.5t-11.5 -46t-2.5 -51.5zM197 569l-55 -25
q-35 32 -52.5 67.5t-17.5 61.5q0 46 34 74.5t93 39.5l34 -96q-65 -11 -65 -50q0 -30 29 -72zM447 568l-62 -23l-147 224l116 22zM219 -53h96v-84q0 -42 46 -42h21v-89h-42q-121 0 -121 113v102z" />
    <glyph glyph-name="uni1F84" unicode="&#x1f84;" horiz-adv-x="519" 
d="M45 240q0 259 189 259q71 0 111 -49l2 1v44h113v-495h-113v47l-2 1q-49 -54 -116 -54q-184 0 -184 246zM161 246q0 -30 3 -51.5t11.5 -45t28.5 -36t51 -12.5q92 0 92 145q0 148 -92 148q-31 0 -51 -13t-29 -37.5t-11.5 -46t-2.5 -51.5zM190 547l-56 26q30 39 30 72
q0 38 -66 50l34 95q127 -23 127 -113q0 -26 -17 -62t-52 -68zM329 545l-62 23l95 223l114 -22zM219 -53h96v-84q0 -42 46 -42h21v-89h-42q-121 0 -121 113v102z" />
    <glyph glyph-name="uni1F85" unicode="&#x1f85;" horiz-adv-x="519" 
d="M45 240q0 259 189 259q71 0 111 -49l2 1v44h113v-495h-113v47l-2 1q-49 -54 -116 -54q-184 0 -184 246zM161 246q0 -30 3 -51.5t11.5 -45t28.5 -36t51 -12.5q92 0 92 145q0 148 -92 148q-31 0 -51 -13t-29 -37.5t-11.5 -46t-2.5 -51.5zM234 573l-56 -26q-35 31 -52.5 67
t-17.5 62q0 46 34 74.5t93 39.5l34 -96q-65 -12 -65 -50q0 -33 30 -71zM332 545l-61 23l94 223l114 -22zM219 -53h96v-84q0 -42 46 -42h21v-89h-42q-121 0 -121 113v102z" />
    <glyph glyph-name="uni1F86" unicode="&#x1f86;" horiz-adv-x="519" 
d="M45 240q0 259 189 259q71 0 111 -49l2 1v44h113v-495h-113v47l-2 1q-49 -54 -116 -54q-184 0 -184 246zM161 246q0 -30 3 -51.5t11.5 -45t28.5 -36t51 -12.5q92 0 92 145q0 148 -92 148q-31 0 -51 -13t-29 -37.5t-11.5 -46t-2.5 -51.5zM258 529l-56 22q37 40 37 64
q0 27 -62 32l34 80q117 -16 117 -85q0 -54 -70 -113zM189 870q27 -1 73 -24.5t61 -23.5q31 0 64 46l60 -34q-46 -99 -114 -99q-27 0 -74.5 23t-64.5 23q-32 0 -68 -45l-57 33q47 101 120 101zM219 -53h96v-84q0 -42 46 -42h21v-89h-42q-121 0 -121 113v102z" />
    <glyph glyph-name="uni1F87" unicode="&#x1f87;" horiz-adv-x="519" 
d="M45 240q0 259 189 259q71 0 111 -49l2 1v44h113v-495h-113v47l-2 1q-49 -54 -116 -54q-184 0 -184 246zM161 246q0 -30 3 -51.5t11.5 -45t28.5 -36t51 -12.5q92 0 92 145q0 148 -92 148q-31 0 -51 -13t-29 -37.5t-11.5 -46t-2.5 -51.5zM298 551l-56 -22q-70 60 -70 113
q0 68 117 84l34 -80q-61 -4 -61 -32q0 -24 36 -63zM189 877q27 -1 73 -24.5t61 -23.5q31 0 64 46l60 -34q-46 -99 -114 -99q-27 0 -74.5 23t-64.5 23q-32 0 -68 -45l-57 33q47 101 120 101zM209 -53h96v-84q0 -42 46 -42h21v-89h-42q-121 0 -121 113v102z" />
    <glyph glyph-name="uni1F88" unicode="&#x1f88;" horiz-adv-x="849" 
d="M626 0h-128l-55 154h-258l-56 -154h-127l263 696h98zM407 257l-46 141l-46 143h-3l-45 -140l-47 -144h187zM40 431l-57 25q30 42 30 71q0 39 -66 51l34 96q128 -25 128 -114q0 -26 -17.5 -62t-51.5 -67zM834 0h-45q-61 0 -98 29.5t-37 93.5v372h113v-347q0 -48 50 -48h17
v-100z" />
    <glyph glyph-name="uni1F89" unicode="&#x1f89;" horiz-adv-x="849" 
d="M626 0h-128l-55 154h-258l-56 -154h-127l263 696h98zM407 257l-46 141l-46 143h-3l-45 -140l-47 -144h187zM83 464l-56 -25q-35 31 -52.5 67t-17.5 62q0 89 128 114l34 -96q-65 -12 -65 -51q0 -31 29 -71zM834 0h-45q-61 0 -98 29.5t-37 93.5v372h113v-347q0 -48 50 -48
h17v-100z" />
    <glyph glyph-name="uni1F8A" unicode="&#x1f8a;" horiz-adv-x="849" 
d="M626 0h-128l-55 154h-258l-56 -154h-127l263 696h98zM407 257l-46 141l-46 143h-3l-45 -140l-47 -144h187zM-149 453l-56 25q30 43 30 72q0 39 -66 50l34 96q59 -11 93 -39.5t34 -74.5q0 -27 -17 -62.5t-52 -66.5zM128 476l-61 -23l-148 224l117 22zM834 0h-45
q-61 0 -98 29.5t-37 93.5v372h113v-347q0 -48 50 -48h17v-100z" />
    <glyph glyph-name="uni1F8B" unicode="&#x1f8b;" horiz-adv-x="849" 
d="M626 0h-128l-55 154h-258l-56 -154h-127l263 696h98zM407 257l-46 141l-46 143h-3l-45 -140l-47 -144h187zM-121 475l-55 -25q-35 32 -52.5 67.5t-17.5 61.5q0 46 34 74.5t93 39.5l34 -96q-65 -11 -65 -50q0 -30 29 -72zM129 474l-62 -23l-147 224l116 22zM834 0h-45
q-61 0 -98 29.5t-37 93.5v372h113v-347q0 -48 50 -48h17v-100z" />
    <glyph glyph-name="uni1F8C" unicode="&#x1f8c;" horiz-adv-x="849" 
d="M626 0h-128l-55 154h-258l-56 -154h-127l263 696h98zM407 257l-46 141l-46 143h-3l-45 -140l-47 -144h187zM-121 454l-56 26q30 39 30 72q0 38 -66 50l34 95q127 -23 127 -113q0 -26 -17 -62t-52 -68zM18 452l-62 23l95 223l114 -22zM834 0h-45q-61 0 -98 29.5t-37 93.5
v372h113v-347q0 -48 50 -48h17v-100z" />
    <glyph glyph-name="uni1F8D" unicode="&#x1f8d;" horiz-adv-x="849" 
d="M626 0h-128l-55 154h-258l-56 -154h-127l263 696h98zM407 257l-46 141l-46 143h-3l-45 -140l-47 -144h187zM-82 481l-56 -26q-35 31 -52.5 67t-17.5 62q0 46 34 74.5t93 39.5l34 -96q-65 -12 -65 -50q0 -33 30 -71zM16 453l-61 23l94 223l114 -22zM834 0h-45
q-61 0 -98 29.5t-37 93.5v372h113v-347q0 -48 50 -48h17v-100z" />
    <glyph glyph-name="uni1F8E" unicode="&#x1f8e;" horiz-adv-x="849" 
d="M626 0h-128l-55 154h-258l-56 -154h-127l263 696h98zM407 257l-46 141l-46 143h-3l-45 -140l-47 -144h187zM-20 406l-56 22q37 40 37 64q0 27 -62 32l34 80q117 -16 117 -85q0 -54 -70 -113zM-89 747q27 -1 73 -24.5t61 -23.5q31 0 64 46l60 -34q-46 -99 -114 -99
q-27 0 -74.5 23t-64.5 23q-32 0 -68 -45l-57 33q47 101 120 101zM834 0h-45q-61 0 -98 29.5t-37 93.5v372h113v-347q0 -48 50 -48h17v-100z" />
    <glyph glyph-name="uni1F8F" unicode="&#x1f8f;" horiz-adv-x="849" 
d="M626 0h-128l-55 154h-258l-56 -154h-127l263 696h98zM407 257l-46 141l-46 143h-3l-45 -140l-47 -144h187zM27 428l-56 -22q-70 60 -70 113q0 68 117 84l34 -80q-61 -4 -61 -32q0 -24 36 -63zM-82 754q27 -1 73 -24.5t61 -23.5q31 0 64 46l60 -34q-46 -99 -114 -99
q-27 0 -74.5 23t-64.5 23q-32 0 -68 -45l-57 33q47 101 120 101zM834 0h-45q-61 0 -98 29.5t-37 93.5v372h113v-347q0 -48 50 -48h17v-100z" />
    <glyph glyph-name="uni1F90" unicode="&#x1f90;" horiz-adv-x="538" 
d="M474 0h-112v294q0 100 -91 100q-42 0 -69 -27t-27 -73v-294h-113v496h113v-52h3q23 26 58.5 41t70.5 15q78 0 122.5 -45t44.5 -130v-325zM273 538l-57 25q30 42 30 71q0 39 -66 51l34 96q128 -25 128 -114q0 -26 -17.5 -62t-51.5 -67zM219 -53h96v-84q0 -42 46 -42h21
v-89h-42q-121 0 -121 113v102z" />
    <glyph glyph-name="uni1F91" unicode="&#x1f91;" horiz-adv-x="538" 
d="M474 0h-112v294q0 100 -91 100q-42 0 -69 -27t-27 -73v-294h-113v496h113v-52h3q23 26 58.5 41t70.5 15q78 0 122.5 -45t44.5 -130v-325zM307 563l-56 -25q-35 31 -52.5 67t-17.5 62q0 89 128 114l34 -96q-65 -12 -65 -51q0 -31 29 -71zM219 -53h96v-84q0 -42 46 -42h21
v-89h-42q-121 0 -121 113v102z" />
    <glyph glyph-name="uni1F92" unicode="&#x1f92;" horiz-adv-x="538" 
d="M474 0h-112v294q0 100 -91 100q-42 0 -69 -27t-27 -73v-294h-113v496h113v-52h3q23 26 58.5 41t70.5 15q78 0 122.5 -45t44.5 -130v-325zM155 545l-56 25q30 43 30 72q0 39 -66 50l34 96q59 -11 93 -39.5t34 -74.5q0 -27 -17 -62.5t-52 -66.5zM432 568l-61 -23l-148 224
l117 22zM219 -53h96v-84q0 -42 46 -42h21v-89h-42q-121 0 -121 113v102z" />
    <glyph glyph-name="uni1F93" unicode="&#x1f93;" horiz-adv-x="538" 
d="M474 0h-112v294q0 100 -91 100q-42 0 -69 -27t-27 -73v-294h-113v496h113v-52h3q23 26 58.5 41t70.5 15q78 0 122.5 -45t44.5 -130v-325zM190 569l-55 -25q-35 32 -52.5 67.5t-17.5 61.5q0 46 34 74.5t93 39.5l34 -96q-65 -11 -65 -50q0 -30 29 -72zM440 568l-62 -23
l-147 224l116 22zM219 -53h96v-84q0 -42 46 -42h21v-89h-42q-121 0 -121 113v102z" />
    <glyph glyph-name="uni1F94" unicode="&#x1f94;" horiz-adv-x="538" 
d="M474 0h-112v294q0 100 -91 100q-42 0 -69 -27t-27 -73v-294h-113v496h113v-52h3q23 26 58.5 41t70.5 15q78 0 122.5 -45t44.5 -130v-325zM221 547l-56 26q30 39 30 72q0 38 -66 50l34 95q127 -23 127 -113q0 -26 -17 -62t-52 -68zM360 545l-62 23l95 223l114 -22z
M219 -53h96v-84q0 -42 46 -42h21v-89h-42q-121 0 -121 113v102z" />
    <glyph glyph-name="uni1F95" unicode="&#x1f95;" horiz-adv-x="538" 
d="M474 0h-112v294q0 100 -91 100q-42 0 -69 -27t-27 -73v-294h-113v496h113v-52h3q23 26 58.5 41t70.5 15q78 0 122.5 -45t44.5 -130v-325zM242 573l-56 -26q-35 31 -52.5 67t-17.5 62q0 46 34 74.5t93 39.5l34 -96q-65 -12 -65 -50q0 -33 30 -71zM340 545l-61 23l94 223
l114 -22zM219 -53h96v-84q0 -42 46 -42h21v-89h-42q-121 0 -121 113v102z" />
    <glyph glyph-name="uni1F96" unicode="&#x1f96;" horiz-adv-x="538" 
d="M474 0h-112v294q0 100 -91 100q-42 0 -69 -27t-27 -73v-294h-113v496h113v-52h3q23 26 58.5 41t70.5 15q78 0 122.5 -45t44.5 -130v-325zM260 529l-56 22q37 40 37 64q0 27 -62 32l34 80q117 -16 117 -85q0 -54 -70 -113zM191 870q27 -1 73 -24.5t61 -23.5q31 0 64 46
l60 -34q-46 -99 -114 -99q-27 0 -74.5 23t-64.5 23q-32 0 -68 -45l-57 33q47 101 120 101zM219 -53h96v-84q0 -42 46 -42h21v-89h-42q-121 0 -121 113v102z" />
    <glyph glyph-name="uni1F97" unicode="&#x1f97;" horiz-adv-x="538" 
d="M474 0h-112v294q0 100 -91 100q-42 0 -69 -27t-27 -73v-294h-113v496h113v-52h3q23 26 58.5 41t70.5 15q78 0 122.5 -45t44.5 -130v-325zM296 550l-56 -22q-70 60 -70 113q0 68 117 84l34 -80q-61 -4 -61 -32q0 -24 36 -63zM187 876q27 -1 73 -24.5t61 -23.5q31 0 64 46
l60 -34q-46 -99 -114 -99q-27 0 -74.5 23t-64.5 23q-32 0 -68 -45l-57 33q47 101 120 101zM219 -53h96v-84q0 -42 46 -42h21v-89h-42q-121 0 -121 113v102z" />
    <glyph glyph-name="uni1F98" unicode="&#x1f98;" horiz-adv-x="867" 
d="M582 0h-120v298h-268v-298h-121v696h121v-292h268v292h120v-696zM-65 437l-57 25q30 42 30 71q0 39 -66 51l34 96q128 -25 128 -114q0 -26 -17.5 -62t-51.5 -67zM847 0h-45q-61 0 -98 29.5t-37 93.5v372h113v-347q0 -48 50 -48h17v-100z" />
    <glyph glyph-name="uni1F99" unicode="&#x1f99;" horiz-adv-x="874" 
d="M582 0h-120v298h-268v-298h-121v696h121v-292h268v292h120v-696zM-16 467l-56 -25q-35 31 -52.5 67t-17.5 62q0 89 128 114l34 -96q-65 -12 -65 -51q0 -31 29 -71zM854 0h-45q-61 0 -98 29.5t-37 93.5v372h113v-347q0 -48 50 -48h17v-100z" />
    <glyph glyph-name="uni1F9A" unicode="&#x1f9a;" horiz-adv-x="874" 
d="M582 0h-120v298h-268v-298h-121v696h121v-292h268v292h120v-696zM-248 451l-56 25q30 43 30 72q0 39 -66 50l34 96q59 -11 93 -39.5t34 -74.5q0 -27 -17 -62.5t-52 -66.5zM29 474l-61 -23l-148 224l117 22zM854 0h-45q-61 0 -98 29.5t-37 93.5v372h113v-347q0 -48 50 -48
h17v-100z" />
    <glyph glyph-name="uni1F9B" unicode="&#x1f9b;" horiz-adv-x="874" 
d="M582 0h-120v298h-268v-298h-121v696h121v-292h268v292h120v-696zM-218 475l-55 -25q-35 32 -52.5 67.5t-17.5 61.5q0 46 34 74.5t93 39.5l34 -96q-65 -11 -65 -50q0 -30 29 -72zM32 474l-62 -23l-147 224l116 22zM854 0h-45q-61 0 -98 29.5t-37 93.5v372h113v-347
q0 -48 50 -48h17v-100z" />
    <glyph glyph-name="uni1F9C" unicode="&#x1f9c;" horiz-adv-x="874" 
d="M582 0h-120v298h-268v-298h-121v696h121v-292h268v292h120v-696zM-260 449l-56 26q30 39 30 72q0 38 -66 50l34 95q127 -23 127 -113q0 -26 -17 -62t-52 -68zM-121 447l-62 23l95 223l114 -22zM854 0h-45q-61 0 -98 29.5t-37 93.5v372h113v-347q0 -48 50 -48h17v-100z
" />
    <glyph glyph-name="uni1F9D" unicode="&#x1f9d;" horiz-adv-x="874" 
d="M582 0h-120v298h-268v-298h-121v696h121v-292h268v292h120v-696zM-199 472l-56 -26q-35 31 -52.5 67t-17.5 62q0 46 34 74.5t93 39.5l34 -96q-65 -12 -65 -50q0 -33 30 -71zM-101 444l-61 23l94 223l114 -22zM854 0h-45q-61 0 -98 29.5t-37 93.5v372h113v-347
q0 -48 50 -48h17v-100z" />
    <glyph glyph-name="uni1F9E" unicode="&#x1f9e;" horiz-adv-x="874" 
d="M582 0h-120v298h-268v-298h-121v696h121v-292h268v292h120v-696zM-151 407l-56 22q37 40 37 64q0 27 -62 32l34 80q117 -16 117 -85q0 -54 -70 -113zM-220 748q27 -1 73 -24.5t61 -23.5q31 0 64 46l60 -34q-46 -99 -114 -99q-27 0 -74.5 23t-64.5 23q-32 0 -68 -45
l-57 33q47 101 120 101zM854 0h-45q-61 0 -98 29.5t-37 93.5v372h113v-347q0 -48 50 -48h17v-100z" />
    <glyph glyph-name="uni1F9F" unicode="&#x1f9f;" horiz-adv-x="874" 
d="M582 0h-120v298h-268v-298h-121v696h121v-292h268v292h120v-696zM-105 427l-56 -22q-70 60 -70 113q0 68 117 84l34 -80q-61 -4 -61 -32q0 -24 36 -63zM-214 753q27 -1 73 -24.5t61 -23.5q31 0 64 46l60 -34q-46 -99 -114 -99q-27 0 -74.5 23t-64.5 23q-32 0 -68 -45
l-57 33q47 101 120 101zM854 0h-45q-61 0 -98 29.5t-37 93.5v372h113v-347q0 -48 50 -48h17v-100z" />
    <glyph glyph-name="uni1FA0" unicode="&#x1fa0;" horiz-adv-x="755" 
d="M513 394l15 106q189 -9 189 -252q0 -252 -196 -252q-92 0 -139 74h-2q-53 -75 -136 -75q-202 0 -202 252q0 240 190 253l15 -106q-50 -7 -71 -44t-21 -106q0 -59 26.5 -99t74.5 -40q30 0 48 26.5t18 66.5v157h110v-157q0 -42 23.5 -70.5t63.5 -28.5q84 0 84 146
q0 70 -20 107t-70 42zM329 -53h96v-84q0 -42 46 -42h21v-89h-42q-121 0 -121 113v102zM393 538l-57 25q30 42 30 71q0 39 -66 51l34 96q128 -25 128 -114q0 -26 -17.5 -62t-51.5 -67z" />
    <glyph glyph-name="uni1FA1" unicode="&#x1fa1;" horiz-adv-x="755" 
d="M513 394l15 106q189 -9 189 -252q0 -252 -196 -252q-92 0 -139 74h-2q-53 -75 -136 -75q-202 0 -202 252q0 240 190 253l15 -106q-50 -7 -71 -44t-21 -106q0 -59 26.5 -99t74.5 -40q30 0 48 26.5t18 66.5v157h110v-157q0 -42 23.5 -70.5t63.5 -28.5q84 0 84 146
q0 70 -20 107t-70 42zM327 -53h96v-84q0 -42 46 -42h21v-89h-42q-121 0 -121 113v102zM426 563l-56 -25q-35 31 -52.5 67t-17.5 62q0 89 128 114l34 -96q-65 -12 -65 -51q0 -31 29 -71z" />
    <glyph glyph-name="uni1FA2" unicode="&#x1fa2;" horiz-adv-x="755" 
d="M513 394l15 106q189 -9 189 -252q0 -252 -196 -252q-92 0 -139 74h-2q-53 -75 -136 -75q-202 0 -202 252q0 240 190 253l15 -106q-50 -7 -71 -44t-21 -106q0 -59 26.5 -99t74.5 -40q30 0 48 26.5t18 66.5v157h110v-157q0 -42 23.5 -70.5t63.5 -28.5q84 0 84 146
q0 70 -20 107t-70 42zM329 -53h96v-84q0 -42 46 -42h21v-89h-42q-121 0 -121 113v102zM277 545l-56 25q30 43 30 72q0 39 -66 50l34 96q59 -11 93 -39.5t34 -74.5q0 -27 -17 -62.5t-52 -66.5zM554 568l-61 -23l-148 224l117 22z" />
    <glyph glyph-name="uni1FA3" unicode="&#x1fa3;" horiz-adv-x="755" 
d="M513 394l15 106q189 -9 189 -252q0 -252 -196 -252q-92 0 -139 74h-2q-53 -75 -136 -75q-202 0 -202 252q0 240 190 253l15 -106q-50 -7 -71 -44t-21 -106q0 -59 26.5 -99t74.5 -40q30 0 48 26.5t18 66.5v157h110v-157q0 -42 23.5 -70.5t63.5 -28.5q84 0 84 146
q0 70 -20 107t-70 42zM329 -53h96v-84q0 -42 46 -42h21v-89h-42q-121 0 -121 113v102zM315 569l-55 -25q-35 32 -52.5 67.5t-17.5 61.5q0 46 34 74.5t93 39.5l34 -96q-65 -11 -65 -50q0 -30 29 -72zM565 568l-62 -23l-147 224l116 22z" />
    <glyph glyph-name="uni1FA4" unicode="&#x1fa4;" horiz-adv-x="755" 
d="M513 394l15 106q189 -9 189 -252q0 -252 -196 -252q-92 0 -139 74h-2q-53 -75 -136 -75q-202 0 -202 252q0 240 190 253l15 -106q-50 -7 -71 -44t-21 -106q0 -59 26.5 -99t74.5 -40q30 0 48 26.5t18 66.5v157h110v-157q0 -42 23.5 -70.5t63.5 -28.5q84 0 84 146
q0 70 -20 107t-70 42zM329 -53h96v-84q0 -42 46 -42h21v-89h-42q-121 0 -121 113v102zM332 547l-56 26q30 39 30 72q0 38 -66 50l34 95q127 -23 127 -113q0 -26 -17 -62t-52 -68zM471 545l-62 23l95 223l114 -22z" />
    <glyph glyph-name="uni1FA5" unicode="&#x1fa5;" horiz-adv-x="755" 
d="M513 394l15 106q189 -9 189 -252q0 -252 -196 -252q-92 0 -139 74h-2q-53 -75 -136 -75q-202 0 -202 252q0 240 190 253l15 -106q-50 -7 -71 -44t-21 -106q0 -59 26.5 -99t74.5 -40q30 0 48 26.5t18 66.5v157h110v-157q0 -42 23.5 -70.5t63.5 -28.5q84 0 84 146
q0 70 -20 107t-70 42zM329 -53h96v-84q0 -42 46 -42h21v-89h-42q-121 0 -121 113v102zM364 573l-56 -26q-35 31 -52.5 67t-17.5 62q0 46 34 74.5t93 39.5l34 -96q-65 -12 -65 -50q0 -33 30 -71zM462 545l-61 23l94 223l114 -22z" />
    <glyph glyph-name="uni1FA6" unicode="&#x1fa6;" horiz-adv-x="755" 
d="M513 394l15 106q189 -9 189 -252q0 -252 -196 -252q-92 0 -139 74h-2q-53 -75 -136 -75q-202 0 -202 252q0 240 190 253l15 -106q-50 -7 -71 -44t-21 -106q0 -59 26.5 -99t74.5 -40q30 0 48 26.5t18 66.5v157h110v-157q0 -42 23.5 -70.5t63.5 -28.5q84 0 84 146
q0 70 -20 107t-70 42zM320 870q27 -1 73 -24.5t61 -23.5q31 0 64 46l60 -34q-46 -99 -114 -99q-27 0 -74.5 23t-64.5 23q-32 0 -68 -45l-57 33q47 101 120 101zM329 -53h96v-84q0 -42 46 -42h21v-89h-42q-121 0 -121 113v102zM389 529l-56 22q37 40 37 64q0 27 -62 32l34 80
q117 -16 117 -85q0 -54 -70 -113z" />
    <glyph glyph-name="uni1FA7" unicode="&#x1fa7;" horiz-adv-x="755" 
d="M513 394l15 106q189 -9 189 -252q0 -252 -196 -252q-92 0 -139 74h-2q-53 -75 -136 -75q-202 0 -202 252q0 240 190 253l15 -106q-50 -7 -71 -44t-21 -106q0 -59 26.5 -99t74.5 -40q30 0 48 26.5t18 66.5v157h110v-157q0 -42 23.5 -70.5t63.5 -28.5q84 0 84 146
q0 70 -20 107t-70 42zM317 877q27 -1 73 -24.5t61 -23.5q31 0 64 46l60 -34q-46 -99 -114 -99q-27 0 -74.5 23t-64.5 23q-32 0 -68 -45l-57 33q47 101 120 101zM329 -53h96v-84q0 -42 46 -42h21v-89h-42q-121 0 -121 113v102zM426 551l-56 -22q-70 60 -70 113q0 68 117 84
l34 -80q-61 -4 -61 -32q0 -24 36 -63z" />
    <glyph glyph-name="uni1FA8" unicode="&#x1fa8;" horiz-adv-x="839" 
d="M345 120q92 22 92 167v156q0 62 -37 104t-101 42q-67 0 -102 -43t-35 -103v-156q0 -140 94 -168v-119h-230v109h74v1l1 2q-60 45 -60 171v154q0 112 67 188t191 76q118 0 189 -74t71 -190v-154q0 -117 -61 -173q1 0 1 -1h76v-109h-230v120zM-75 436l-57 25q30 42 30 71
q0 39 -66 51l34 96q128 -25 128 -114q0 -26 -17.5 -62t-51.5 -67zM824 0h-45q-61 0 -98 29.5t-37 93.5v372h113v-347q0 -48 50 -48h17v-100z" />
    <glyph glyph-name="uni1FA9" unicode="&#x1fa9;" horiz-adv-x="829" 
d="M345 120q92 22 92 167v156q0 62 -37 104t-101 42q-67 0 -102 -43t-35 -103v-156q0 -140 94 -168v-119h-230v109h74v1l1 2q-60 45 -60 171v154q0 112 67 188t191 76q118 0 189 -74t71 -190v-154q0 -117 -61 -173q1 0 1 -1h76v-109h-230v120zM-34 464l-56 -25
q-35 31 -52.5 67t-17.5 62q0 89 128 114l34 -96q-65 -12 -65 -51q0 -31 29 -71zM814 0h-45q-61 0 -98 29.5t-37 93.5v372h113v-347q0 -48 50 -48h17v-100z" />
    <glyph glyph-name="uni1FAA" unicode="&#x1faa;" horiz-adv-x="829" 
d="M345 120q92 22 92 167v156q0 62 -37 104t-101 42q-67 0 -102 -43t-35 -103v-156q0 -140 94 -168v-119h-230v109h74v1l1 2q-60 45 -60 171v154q0 112 67 188t191 76q118 0 189 -74t71 -190v-154q0 -117 -61 -173q1 0 1 -1h76v-109h-230v120zM-285 453l-56 25q30 43 30 72
q0 39 -66 50l34 96q59 -11 93 -39.5t34 -74.5q0 -27 -17 -62.5t-52 -66.5zM-8 476l-61 -23l-148 224l117 22zM814 0h-45q-61 0 -98 29.5t-37 93.5v372h113v-347q0 -48 50 -48h17v-100z" />
    <glyph glyph-name="uni1FAB" unicode="&#x1fab;" horiz-adv-x="829" 
d="M345 120q92 22 92 167v156q0 62 -37 104t-101 42q-67 0 -102 -43t-35 -103v-156q0 -140 94 -168v-119h-230v109h74v1l1 2q-60 45 -60 171v154q0 112 67 188t191 76q118 0 189 -74t71 -190v-154q0 -117 -61 -173q1 0 1 -1h76v-109h-230v120zM-254 475l-55 -25
q-35 32 -52.5 67.5t-17.5 61.5q0 46 34 74.5t93 39.5l34 -96q-65 -11 -65 -50q0 -30 29 -72zM-4 474l-62 -23l-147 224l116 22zM814 0h-45q-61 0 -98 29.5t-37 93.5v372h113v-347q0 -48 50 -48h17v-100z" />
    <glyph glyph-name="uni1FAC" unicode="&#x1fac;" horiz-adv-x="829" 
d="M345 120q92 22 92 167v156q0 62 -37 104t-101 42q-67 0 -102 -43t-35 -103v-156q0 -140 94 -168v-119h-230v109h74v1l1 2q-60 45 -60 171v154q0 112 67 188t191 76q118 0 189 -74t71 -190v-154q0 -117 -61 -173q1 0 1 -1h76v-109h-230v120zM-271 454l-56 26q30 39 30 72
q0 38 -66 50l34 95q127 -23 127 -113q0 -26 -17 -62t-52 -68zM-132 452l-62 23l95 223l114 -22zM814 0h-45q-61 0 -98 29.5t-37 93.5v372h113v-347q0 -48 50 -48h17v-100z" />
    <glyph glyph-name="uni1FAD" unicode="&#x1fad;" horiz-adv-x="829" 
d="M345 120q92 22 92 167v156q0 62 -37 104t-101 42q-67 0 -102 -43t-35 -103v-156q0 -140 94 -168v-119h-230v109h74v1l1 2q-60 45 -60 171v154q0 112 67 188t191 76q118 0 189 -74t71 -190v-154q0 -117 -61 -173q1 0 1 -1h76v-109h-230v120zM-227 480l-56 -26
q-35 31 -52.5 67t-17.5 62q0 46 34 74.5t93 39.5l34 -96q-65 -12 -65 -50q0 -33 30 -71zM-129 452l-61 23l94 223l114 -22zM814 0h-45q-61 0 -98 29.5t-37 93.5v372h113v-347q0 -48 50 -48h17v-100z" />
    <glyph glyph-name="uni1FAE" unicode="&#x1fae;" horiz-adv-x="840" 
d="M345 120q92 22 92 167v156q0 62 -37 104t-101 42q-67 0 -102 -43t-35 -103v-156q0 -140 94 -168v-119h-230v109h74v1l1 2q-60 45 -60 171v154q0 112 67 188t191 76q118 0 189 -74t71 -190v-154q0 -117 -61 -173q1 0 1 -1h76v-109h-230v120zM-156 396l-56 22q37 40 37 64
q0 27 -62 32l34 80q117 -16 117 -85q0 -54 -70 -113zM-225 737q27 -1 73 -24.5t61 -23.5q31 0 64 46l60 -34q-46 -99 -114 -99q-27 0 -74.5 23t-64.5 23q-32 0 -68 -45l-57 33q47 101 120 101zM825 0h-45q-61 0 -98 29.5t-37 93.5v372h113v-347q0 -48 50 -48h17v-100z" />
    <glyph glyph-name="uni1FAF" unicode="&#x1faf;" horiz-adv-x="839" 
d="M345 120q92 22 92 167v156q0 62 -37 104t-101 42q-67 0 -102 -43t-35 -103v-156q0 -140 94 -168v-119h-230v109h74v1l1 2q-60 45 -60 171v154q0 112 67 188t191 76q118 0 189 -74t71 -190v-154q0 -117 -61 -173q1 0 1 -1h76v-109h-230v120zM-100 414l-56 -22
q-70 60 -70 113q0 68 117 84l34 -80q-61 -4 -61 -32q0 -24 36 -63zM-209 740q27 -1 73 -24.5t61 -23.5q31 0 64 46l60 -34q-46 -99 -114 -99q-27 0 -74.5 23t-64.5 23q-32 0 -68 -45l-57 33q47 101 120 101zM824 0h-45q-61 0 -98 29.5t-37 93.5v372h113v-347q0 -48 50 -48
h17v-100z" />
    <glyph glyph-name="uni1FB0" unicode="&#x1fb0;" horiz-adv-x="519" 
d="M45 240q0 259 189 259q71 0 111 -49l2 1v44h113v-495h-113v47l-2 1q-49 -54 -116 -54q-184 0 -184 246zM161 246q0 -30 3 -51.5t11.5 -45t28.5 -36t51 -12.5q92 0 92 145q0 148 -92 148q-31 0 -51 -13t-29 -37.5t-11.5 -46t-2.5 -51.5zM266 564q-75 0 -110.5 45.5
t-39.5 100.5h87q1 -23 18 -44.5t45 -21.5q30 0 47 21t17 45h86q-2 -19 -7 -37t-16 -38.5t-27 -35.5t-42 -25t-58 -10z" />
    </font>
</defs>
</svg>
